G04 #@! TF.GenerationSoftware,KiCad,Pcbnew,(6.0.0)*
G04 #@! TF.CreationDate,2022-02-12T17:38:40+01:00*
G04 #@! TF.ProjectId,plain60-flex-edition,706c6169-6e36-4302-9d66-6c65782d6564,rev?*
G04 #@! TF.SameCoordinates,Original*
G04 #@! TF.FileFunction,Profile,NP*
%FSLAX46Y46*%
G04 Gerber Fmt 4.6, Leading zero omitted, Abs format (unit mm)*
G04 Created by KiCad (PCBNEW (6.0.0)) date 2022-02-12 17:38:40*
%MOMM*%
%LPD*%
G01*
G04 APERTURE LIST*
G04 #@! TA.AperFunction,Profile*
%ADD10C,0.100000*%
G04 #@! TD*
G04 APERTURE END LIST*
D10*
X195634611Y-75700064D02*
G75*
G03*
X196839524Y-75093476I-576J1501145D01*
G01*
X237625192Y-19550264D02*
G75*
G03*
X237625192Y-18550008I0J500128D01*
G01*
X15825008Y-94725008D02*
G75*
G03*
X9525008Y-94725008I-3150000J-734500D01*
G01*
X48126422Y-18550136D02*
G75*
G03*
X48126422Y-19550136I0J-500000D01*
G01*
X88908032Y-75089636D02*
G75*
G03*
X90115786Y-75700068I1207754J889569D01*
G01*
X88105632Y-75686426D02*
G75*
G03*
X90115786Y-76700063I2010154J1486359D01*
G01*
X96325006Y-94725008D02*
X15825008Y-94725008D01*
X203273196Y-75091882D02*
G75*
G03*
X196839524Y-75093476I-3216247J-2378172D01*
G01*
X81271104Y-76700062D02*
G75*
G03*
X83281258Y-75686427I-429J2500852D01*
G01*
X183125008Y-94725006D02*
X102625008Y-94725006D01*
X189425008Y-94725008D02*
G75*
G03*
X183125008Y-94725006I-3150000J-734499D01*
G01*
X102625008Y-525008D02*
X183125008Y-525008D01*
X203273198Y-75091881D02*
G75*
G03*
X204479287Y-75700059I1206089J891820D01*
G01*
X269924797Y-525060D02*
G75*
G03*
X276225231Y-525009I3150211J734552D01*
G01*
X525008Y-2525008D02*
X525008Y-92725008D01*
X7525008Y-525008D02*
G75*
G03*
X13825008Y-525008I3150000J734500D01*
G01*
X285225008Y-2525007D02*
G75*
G03*
X283225008Y-525007I-2000000J0D01*
G01*
X269925008Y-94725006D02*
X189425008Y-94725008D01*
X48126422Y-19550136D02*
X237625192Y-19550136D01*
X43363195Y-75700064D02*
X81271104Y-75700063D01*
X276225008Y-94725008D02*
G75*
G03*
X269925008Y-94725006I-3150000J-734499D01*
G01*
X195634612Y-76700063D02*
G75*
G03*
X197644765Y-75686429I-429J2500850D01*
G01*
X283225008Y-94725008D02*
G75*
G03*
X285225008Y-92725008I0J2000000D01*
G01*
X283225008Y-94725008D02*
X276225008Y-94725008D01*
X43363195Y-76700064D02*
X81271104Y-76700062D01*
X195634611Y-75700064D02*
X90115786Y-75700069D01*
X285225008Y-92725008D02*
X285225008Y-2525007D01*
X202469132Y-75686428D02*
G75*
G03*
X204479287Y-76700066I2010156J1486362D01*
G01*
X525008Y-92725008D02*
G75*
G03*
X2525007Y-94725007I1999999J0D01*
G01*
X102625008Y-94725008D02*
G75*
G03*
X96325006Y-94725008I-3150001J-734500D01*
G01*
X232862718Y-75700000D02*
X204479287Y-75700060D01*
X9525008Y-94725008D02*
X2525007Y-94725008D01*
X202469131Y-75686429D02*
G75*
G03*
X197644765Y-75686429I-2412183J-1783628D01*
G01*
X183125008Y-525008D02*
G75*
G03*
X189425008Y-525010I3150000J734499D01*
G01*
X81271104Y-75700063D02*
G75*
G03*
X82277196Y-75091882I-100257J1302114D01*
G01*
X232862718Y-76700000D02*
G75*
G03*
X232862718Y-75700000I0J500000D01*
G01*
X88105631Y-75686427D02*
G75*
G03*
X83281258Y-75686427I-2412187J-1783634D01*
G01*
X189425008Y-525010D02*
X269924797Y-525059D01*
X276225231Y-525009D02*
X283225008Y-525010D01*
X2525008Y-525008D02*
G75*
G03*
X525008Y-2525008I0J-2000000D01*
G01*
X237625192Y-18550008D02*
X48126422Y-18550136D01*
X88908032Y-75089636D02*
G75*
G03*
X82277196Y-75091882I-3314587J-2454473D01*
G01*
X96325008Y-525008D02*
G75*
G03*
X102625008Y-525008I3150000J734500D01*
G01*
X232862718Y-76700000D02*
X204479287Y-76700066D01*
X43363195Y-75700064D02*
G75*
G03*
X43363195Y-76700064I0J-500000D01*
G01*
X90115786Y-76700064D02*
X195634612Y-76700064D01*
X2525008Y-525008D02*
X7525008Y-525008D01*
X13825008Y-525008D02*
X96325008Y-525008D01*
M02*
