G04 #@! TF.GenerationSoftware,KiCad,Pcbnew,(6.0.0)*
G04 #@! TF.CreationDate,2022-02-12T17:38:39+01:00*
G04 #@! TF.ProjectId,plain60-flex-edition,706c6169-6e36-4302-9d66-6c65782d6564,rev?*
G04 #@! TF.SameCoordinates,Original*
G04 #@! TF.FileFunction,Copper,L1,Top*
G04 #@! TF.FilePolarity,Positive*
%FSLAX46Y46*%
G04 Gerber Fmt 4.6, Leading zero omitted, Abs format (unit mm)*
G04 Created by KiCad (PCBNEW (6.0.0)) date 2022-02-12 17:38:39*
%MOMM*%
%LPD*%
G01*
G04 APERTURE LIST*
G04 #@! TA.AperFunction,ComponentPad*
%ADD10C,2.286000*%
G04 #@! TD*
G04 #@! TA.AperFunction,ComponentPad*
%ADD11C,2.000000*%
G04 #@! TD*
G04 #@! TA.AperFunction,ComponentPad*
%ADD12O,1.000000X2.100000*%
G04 #@! TD*
G04 #@! TA.AperFunction,ComponentPad*
%ADD13O,1.000000X1.600000*%
G04 #@! TD*
G04 #@! TA.AperFunction,ComponentPad*
%ADD14R,1.700000X1.700000*%
G04 #@! TD*
G04 #@! TA.AperFunction,ComponentPad*
%ADD15O,1.700000X1.700000*%
G04 #@! TD*
G04 #@! TA.AperFunction,ViaPad*
%ADD16C,0.600000*%
G04 #@! TD*
G04 #@! TA.AperFunction,Conductor*
%ADD17C,0.250000*%
G04 #@! TD*
G04 #@! TA.AperFunction,Conductor*
%ADD18C,0.500000*%
G04 #@! TD*
G04 APERTURE END LIST*
D10*
X19208750Y-42545000D03*
X12858750Y-45085000D03*
X93027500Y-61595000D03*
X86677500Y-64135000D03*
X226377500Y-80645000D03*
X220027500Y-83185000D03*
X16827500Y-80645000D03*
X10477500Y-83185000D03*
X78740000Y-23495000D03*
X72390000Y-26035000D03*
X97790000Y-23495000D03*
X91440000Y-26035000D03*
X154940000Y-23495000D03*
X148590000Y-26035000D03*
X173990000Y-23495000D03*
X167640000Y-26035000D03*
X40640000Y-23495000D03*
X34290000Y-26035000D03*
X135890000Y-23495000D03*
X129540000Y-26035000D03*
X116840000Y-23495000D03*
X110490000Y-26035000D03*
X59690000Y-23495000D03*
X53340000Y-26035000D03*
X16827500Y-23495000D03*
X10477500Y-26035000D03*
X269240000Y-4445000D03*
X262890000Y-6985000D03*
X145415000Y-4445000D03*
X139065000Y-6985000D03*
X183515000Y-4445000D03*
X177165000Y-6985000D03*
X88265000Y-4445000D03*
X81915000Y-6985000D03*
X240665000Y-4445000D03*
X234315000Y-6985000D03*
X221615000Y-4445000D03*
X215265000Y-6985000D03*
X202565000Y-4445000D03*
X196215000Y-6985000D03*
X164465000Y-4445000D03*
X158115000Y-6985000D03*
X126365000Y-4445000D03*
X120015000Y-6985000D03*
X107315000Y-4445000D03*
X100965000Y-6985000D03*
X69215000Y-4445000D03*
X62865000Y-6985000D03*
X31115000Y-4445000D03*
X24765000Y-6985000D03*
X12065000Y-4445000D03*
X5715000Y-6985000D03*
X50165000Y-4445000D03*
X43815000Y-6985000D03*
X40640000Y-80645000D03*
X34290000Y-83185000D03*
X150177500Y-61595000D03*
X143827500Y-64135000D03*
X252571460Y-61595056D03*
X246221460Y-64135056D03*
X14446250Y-42545000D03*
X8096250Y-45085000D03*
X226377500Y-61595000D03*
X220027500Y-64135000D03*
X169227500Y-61595000D03*
X162877500Y-64135000D03*
X207327500Y-61595000D03*
X200977500Y-64135000D03*
X131127500Y-61595000D03*
X124777500Y-64135000D03*
X188277500Y-61595000D03*
X181927500Y-64135000D03*
X14446250Y-61595000D03*
X8096250Y-64135000D03*
X250190000Y-23495000D03*
X243840000Y-26035000D03*
X54927500Y-61595000D03*
X48577500Y-64135000D03*
X193040000Y-23495000D03*
X186690000Y-26035000D03*
X121602500Y-42545000D03*
X115252500Y-45085000D03*
X64452500Y-42545000D03*
X58102500Y-45085000D03*
X278765000Y-61595000D03*
X272415000Y-64135000D03*
X178752500Y-42545000D03*
X172402500Y-45085000D03*
X231140000Y-23495000D03*
X224790000Y-26035000D03*
X64452500Y-80645000D03*
X58102500Y-83185000D03*
X83502500Y-42545000D03*
X77152500Y-45085000D03*
X35877500Y-61595000D03*
X29527500Y-64135000D03*
X254952500Y-42545000D03*
X248602500Y-45085000D03*
X159702500Y-42545000D03*
X153352500Y-45085000D03*
X102552500Y-42545000D03*
X96202500Y-45085000D03*
X45402500Y-42545000D03*
X39052500Y-45085000D03*
X197802500Y-42545000D03*
X191452500Y-45085000D03*
X235902500Y-42545000D03*
X229552500Y-45085000D03*
X216852500Y-42545000D03*
X210502500Y-45085000D03*
X212090000Y-23495000D03*
X205740000Y-26035000D03*
X140652500Y-42545000D03*
X134302500Y-45085000D03*
X112077500Y-61595000D03*
X105727500Y-64135000D03*
X250190000Y-80645000D03*
X243840000Y-83185000D03*
X73977500Y-61595000D03*
X67627500Y-64135000D03*
X274002728Y-80645072D03*
X267652728Y-83185072D03*
X262096468Y-61595000D03*
X255746468Y-64135000D03*
X145415000Y-80645000D03*
X139065000Y-83185000D03*
X270033980Y-35560000D03*
X276383980Y-33020000D03*
D11*
X4524382Y-36909406D03*
D12*
X22888000Y-6160000D03*
X14248000Y-6160000D03*
D13*
X22888000Y-1980000D03*
X14248000Y-1980000D03*
D14*
X9604382Y-34369406D03*
D15*
X7064382Y-34369406D03*
X9604382Y-36909406D03*
X7064382Y-36909406D03*
X9604382Y-39449406D03*
X7064382Y-39449406D03*
D16*
X40481284Y-35123467D03*
X32146902Y-38695345D03*
X19050016Y-10150008D03*
X14287512Y-35123467D03*
X19050016Y-50601605D03*
X16668764Y-35123467D03*
X27384398Y-38100032D03*
X17859390Y-39290658D03*
X29170337Y-46434414D03*
X25598459Y-53578170D03*
X33932841Y-54173483D03*
X19645329Y-30340650D03*
X16668764Y-36939093D03*
X42624414Y-42862536D03*
X14678135Y-15478138D03*
X23217207Y-16162513D03*
X43457849Y-32742215D03*
X37504719Y-42267223D03*
X22621894Y-45243788D03*
X23812520Y-16668764D03*
X33128754Y-34914693D03*
X19050016Y-37340647D03*
X33128754Y-39677197D03*
X31551589Y-51196918D03*
X14287512Y-38695345D03*
X20135603Y-20346163D03*
X21546884Y-31603126D03*
X38100032Y-43457849D03*
X35183552Y-42564329D03*
X22263602Y-38695345D03*
X18881229Y-31928125D03*
X24943891Y-35718780D03*
X21431268Y-35123467D03*
X38695345Y-32146902D03*
X48220353Y-51265666D03*
X42853162Y-11915634D03*
X48815666Y-50640666D03*
X48210979Y-30965650D03*
X20776434Y-44112683D03*
X36357881Y-45525698D03*
X33337528Y-43457849D03*
X25780499Y-64889117D03*
X24407833Y-88106324D03*
X25351828Y-43415908D03*
X34250052Y-40139041D03*
X41076597Y-37766342D03*
X59690000Y-37941332D03*
X79117081Y-38159580D03*
X100548341Y-40540840D03*
X121602500Y-50760253D03*
X134302500Y-56316497D03*
X159702500Y-51038302D03*
X178216771Y-52605728D03*
X196969123Y-52903377D03*
X213042566Y-55879934D03*
X232687887Y-55284613D03*
X254952500Y-51950767D03*
X260508750Y-51553887D03*
X27384398Y-17859390D03*
X17475016Y-10120321D03*
X19645329Y-9525008D03*
X21431268Y-14912512D03*
X18250013Y-12501573D03*
X27384398Y-19050016D03*
X28821654Y-40727915D03*
X14287512Y-37504719D03*
X9525008Y-51792231D03*
X19050016Y-14882825D03*
X19050016Y-12501573D03*
X27384398Y-16668764D03*
X15478138Y-15478138D03*
X21033763Y-8243619D03*
X20589324Y-19687270D03*
X25598459Y-39856284D03*
X26789085Y-39885971D03*
X21431268Y-19645329D03*
D17*
X82645015Y-73095054D02*
X87977879Y-73095054D01*
X80415015Y-75325054D02*
X82645015Y-73095054D01*
X42977524Y-75325054D02*
X80415015Y-75325054D01*
X42481989Y-75820589D02*
X42977524Y-75325054D01*
X42976176Y-77075074D02*
X42481989Y-76580887D01*
X80659374Y-77075074D02*
X42976176Y-77075074D01*
X42481989Y-76580887D02*
X42481989Y-75820589D01*
X86915698Y-80367255D02*
X83951555Y-80367255D01*
X83951555Y-80367255D02*
X80659374Y-77075074D01*
X90207879Y-77075074D02*
X86915698Y-80367255D01*
X127158750Y-83185000D02*
X121048824Y-77075074D01*
X121048824Y-77075074D02*
X90207879Y-77075074D01*
X90207882Y-75325057D02*
X87977879Y-73095054D01*
X127992295Y-75325057D02*
X90207882Y-75325057D01*
X131127500Y-72189852D02*
X127992295Y-75325057D01*
X131127500Y-61595000D02*
X131127500Y-72189852D01*
X25780499Y-64889117D02*
X26498479Y-64171137D01*
X26498479Y-59753813D02*
X25085340Y-58340674D01*
X26498479Y-64171137D02*
X26498479Y-59753813D01*
X25085340Y-58340674D02*
X24712540Y-57967874D01*
X24712540Y-57967874D02*
X24712540Y-46129707D01*
X27354710Y-43487537D02*
X33307840Y-43487537D01*
X24712540Y-46129707D02*
X27354710Y-43487537D01*
X33307840Y-43487537D02*
X33337528Y-43457849D01*
X275599287Y-32235307D02*
X276383980Y-33020000D01*
X275599287Y-10804287D02*
X275599287Y-32235307D01*
X269240000Y-4445000D02*
X275599287Y-10804287D01*
X14678135Y-15478138D02*
X14678135Y-15868761D01*
X19050016Y-10150008D02*
X18484390Y-10715634D01*
X20835955Y-29150024D02*
X19645329Y-30340650D01*
X20835955Y-22026581D02*
X20835955Y-29150024D01*
X14678135Y-15868761D02*
X20835955Y-22026581D01*
D18*
X14287512Y-38695345D02*
X14442200Y-38540657D01*
X31551589Y-47982231D02*
X35183552Y-44350268D01*
X21546884Y-35007851D02*
X21431268Y-35123467D01*
X21546884Y-31603126D02*
X21546884Y-29650034D01*
X31551589Y-50006292D02*
X31551589Y-51196918D01*
X38695345Y-32146902D02*
X33337528Y-32146902D01*
X31551589Y-51196918D02*
X31551589Y-47982231D01*
X33337528Y-32146902D02*
X32742215Y-32742215D01*
X19050016Y-37340647D02*
X19050016Y-32096912D01*
X19050016Y-32096912D02*
X18881229Y-31928125D01*
X14442200Y-38540657D02*
X22108914Y-38540657D01*
X20796026Y-21003974D02*
X20793414Y-21003974D01*
X20796026Y-21003974D02*
X20136668Y-20344616D01*
X20793414Y-21003974D02*
X20135603Y-20346163D01*
X35183552Y-44350268D02*
X35183552Y-42564329D01*
X29765650Y-35718780D02*
X32742215Y-32742215D01*
X21546884Y-31603126D02*
X21546884Y-32626598D01*
X24943891Y-35718780D02*
X29765650Y-35718780D01*
X21546884Y-29650034D02*
X21546884Y-21754832D01*
X22108914Y-38540657D02*
X22263602Y-38695345D01*
X33128754Y-34914693D02*
X33128754Y-39677197D01*
X21546884Y-21754832D02*
X20796026Y-21003974D01*
X21546884Y-29650034D02*
X21546884Y-35007851D01*
D17*
X50456302Y-33192225D02*
X50456302Y-25818855D01*
X43364990Y-12427462D02*
X42853162Y-11915634D01*
X50456302Y-25818855D02*
X43364990Y-18727543D01*
X50456302Y-33192225D02*
X50456302Y-32285971D01*
X49115667Y-51265667D02*
X50456302Y-49925032D01*
X50456302Y-49925032D02*
X50456302Y-33192225D01*
X48220353Y-51265666D02*
X49115667Y-51265667D01*
X43364990Y-18727543D02*
X43364990Y-12427462D01*
X50006292Y-42862536D02*
X50006292Y-32760963D01*
X50006292Y-32760963D02*
X48210979Y-30965650D01*
X50006292Y-49450040D02*
X50006292Y-42862536D01*
X48815666Y-50640666D02*
X50006292Y-49450040D01*
X29026052Y-41816195D02*
X28430739Y-41816195D01*
X36357881Y-45525698D02*
X36357881Y-42813656D01*
X33481813Y-41816195D02*
X32886500Y-41816195D01*
X29026052Y-41816195D02*
X32886500Y-41816195D01*
X35360420Y-41816195D02*
X34741060Y-41816195D01*
X36357881Y-42813656D02*
X35360420Y-41816195D01*
X26338057Y-41816195D02*
X23072922Y-41816195D01*
X23072922Y-41816195D02*
X20776434Y-44112683D01*
X33481813Y-41816195D02*
X34741060Y-41816195D01*
X28430739Y-41816195D02*
X26338057Y-41816195D01*
X24407833Y-88106324D02*
X23771402Y-88106324D01*
X25598459Y-60126613D02*
X25598459Y-63103178D01*
X24705489Y-63996147D02*
X24705489Y-83046165D01*
X23812520Y-44955216D02*
X25351828Y-43415908D01*
X23812520Y-45243788D02*
X23812520Y-46434414D01*
X23812520Y-46434414D02*
X23812520Y-58340675D01*
X23771402Y-88106324D02*
X22736491Y-87071413D01*
X24705489Y-83046165D02*
X23812520Y-83939133D01*
X22736491Y-87071413D02*
X22736491Y-85015162D01*
X25300802Y-59828957D02*
X25598459Y-60126613D01*
X22736491Y-85015162D02*
X23812520Y-83939133D01*
X23812520Y-45243788D02*
X23812520Y-44955216D01*
X23812520Y-45184412D02*
X23812520Y-45243788D01*
X23812520Y-58340675D02*
X25300802Y-59828957D01*
X25598459Y-63103178D02*
X24705489Y-63996147D01*
X5715000Y-6985000D02*
X5715000Y-12382500D01*
X8429381Y-31093453D02*
X10025322Y-29497512D01*
X6548443Y-76795377D02*
X8096250Y-78343184D01*
X8096250Y-71675692D02*
X6548443Y-73223499D01*
X33022908Y-41366185D02*
X34250052Y-40139041D01*
X16027834Y-23495000D02*
X16827500Y-23495000D01*
X8096250Y-45085000D02*
X8096250Y-57388180D01*
X27673986Y-41366185D02*
X22560207Y-41366185D01*
X8429381Y-44751869D02*
X8429381Y-31093453D01*
X8096250Y-57388180D02*
X7143756Y-58340674D01*
X7143756Y-60721926D02*
X8096250Y-61674420D01*
X22560207Y-41366185D02*
X21842875Y-42083517D01*
X18841392Y-45085000D02*
X17105289Y-45085000D01*
X12858750Y-45085000D02*
X17105289Y-45085000D01*
X7143756Y-58340674D02*
X7143756Y-60721926D01*
X5715000Y-12382500D02*
X16827500Y-23495000D01*
X6548443Y-73223499D02*
X6548443Y-76795377D01*
X29459925Y-41366185D02*
X27673986Y-41366185D01*
X8096250Y-61674420D02*
X8096250Y-64135000D01*
X10025322Y-29497512D02*
X16027834Y-23495000D01*
X8096250Y-45085000D02*
X8429381Y-44751869D01*
X21842875Y-42083517D02*
X18841392Y-45085000D01*
X8096250Y-64135000D02*
X8096250Y-71675692D01*
X8096250Y-78343184D02*
X8096250Y-83185000D01*
X29459925Y-41366185D02*
X33022908Y-41366185D01*
X24765000Y-9286862D02*
X34290000Y-18811862D01*
X41076597Y-27979711D02*
X39885971Y-26789085D01*
X39131886Y-26035000D02*
X39885971Y-26789085D01*
X34290000Y-18811862D02*
X34290000Y-26035000D01*
X34290000Y-26035000D02*
X39131886Y-26035000D01*
X29527500Y-64135000D02*
X29527500Y-60364763D01*
X41076597Y-37766342D02*
X41671910Y-37171029D01*
X24765000Y-6985000D02*
X24765000Y-9286862D01*
X29527500Y-80803750D02*
X31908750Y-83185000D01*
X41076597Y-43060903D02*
X39052500Y-45085000D01*
X39052500Y-50839763D02*
X39052500Y-50244450D01*
X29527500Y-64135000D02*
X29527500Y-80803750D01*
X41076597Y-37766342D02*
X41076597Y-43060903D01*
X41671910Y-28575024D02*
X41076597Y-27979711D01*
X29527500Y-60364763D02*
X39052500Y-50839763D01*
X41671910Y-37171029D02*
X41671910Y-28575024D01*
X39052500Y-45085000D02*
X39052500Y-50244450D01*
X42031979Y-76767287D02*
X42789776Y-77525084D01*
X57930975Y-21735975D02*
X59690000Y-23495000D01*
X59690000Y-23495000D02*
X59690000Y-31710289D01*
X45839101Y-74875044D02*
X42791123Y-74875045D01*
X59690000Y-37941332D02*
X59690000Y-43497500D01*
X42789776Y-77525084D02*
X50061334Y-77525084D01*
X58102500Y-45085000D02*
X58102500Y-54610000D01*
X50061334Y-77525084D02*
X55721250Y-83185000D01*
X58102500Y-54610000D02*
X48577500Y-64135000D01*
X43815000Y-6985000D02*
X43815000Y-18541143D01*
X59690000Y-31710289D02*
X59690000Y-37941332D01*
X48577500Y-64135000D02*
X48577500Y-72136645D01*
X42791123Y-74875045D02*
X42031979Y-75634189D01*
X47009832Y-21735975D02*
X57930975Y-21735975D01*
X48577500Y-72136645D02*
X45839101Y-74875044D01*
X43815000Y-18541143D02*
X47009832Y-21735975D01*
X42031979Y-75634189D02*
X42031979Y-76767287D01*
X59690000Y-43497500D02*
X58102500Y-45085000D01*
X69215000Y-14724133D02*
X67125066Y-16814067D01*
X78740000Y-31988218D02*
X78740000Y-32900899D01*
X78740000Y-23495000D02*
X76530965Y-21285965D01*
X69215000Y-4445000D02*
X69215000Y-14724133D01*
X67125066Y-16814067D02*
X47192579Y-16814068D01*
X78740000Y-37782500D02*
X79117081Y-38159580D01*
X47196232Y-21285965D02*
X46590318Y-20680051D01*
X83502500Y-42545000D02*
X83502500Y-52070000D01*
X79117081Y-38159580D02*
X83502500Y-42545000D01*
X45895189Y-19984922D02*
X46590318Y-20680051D01*
X45895187Y-18111462D02*
X45895189Y-19984922D01*
X76530965Y-21285965D02*
X47196232Y-21285965D01*
X78740000Y-23495000D02*
X78740000Y-31988218D01*
X47192579Y-16814068D02*
X45895187Y-18111462D01*
X83502500Y-52070000D02*
X73977500Y-61595000D01*
X78740000Y-32900899D02*
X78740000Y-37782500D01*
X97790000Y-32583547D02*
X97790000Y-37782500D01*
X46345198Y-19798521D02*
X47382632Y-20835955D01*
X88265000Y-14724149D02*
X85725072Y-17264077D01*
X47378980Y-17264077D02*
X46345196Y-18297861D01*
X100548341Y-40540840D02*
X102552500Y-42545000D01*
X85725072Y-17264077D02*
X47378980Y-17264077D01*
X102552500Y-52070000D02*
X93027500Y-61595000D01*
X88265000Y-4445000D02*
X88265000Y-14724149D01*
X47382632Y-20835955D02*
X95130955Y-20835955D01*
X102552500Y-42545000D02*
X102552500Y-52070000D01*
X97790000Y-23495000D02*
X97790000Y-32583547D01*
X95130955Y-20835955D02*
X97790000Y-23495000D01*
X46345196Y-18297861D02*
X46345198Y-19798521D01*
X97790000Y-37782500D02*
X100548341Y-40540840D01*
X47554478Y-17724989D02*
X46795206Y-18484261D01*
X121602500Y-42545000D02*
X121602500Y-50760253D01*
X107315000Y-4445000D02*
X107315000Y-14589763D01*
X116840000Y-37782500D02*
X117812410Y-38754909D01*
X48085839Y-20375156D02*
X113720156Y-20375156D01*
X107315000Y-14589763D02*
X104179775Y-17724988D01*
X116840000Y-23495000D02*
X116840000Y-37782500D01*
X46795206Y-18484261D02*
X46795206Y-19284537D01*
X121602500Y-52070000D02*
X112077500Y-61595000D01*
X121602500Y-50760253D02*
X121602500Y-52070000D01*
X104179775Y-17724988D02*
X47554478Y-17724989D01*
X117812410Y-38754909D02*
X121602500Y-42545000D01*
X46795206Y-19284537D02*
X46795207Y-19612120D01*
X113720156Y-20375156D02*
X116840000Y-23495000D01*
X46795207Y-19612120D02*
X47558243Y-20375156D01*
X47558243Y-20375156D02*
X48085839Y-20375156D01*
X134302500Y-56316497D02*
X134302500Y-58420000D01*
X134302500Y-45085000D02*
X134302500Y-53816408D01*
X135890000Y-43497500D02*
X134302500Y-45085000D01*
X47740879Y-18174998D02*
X47245216Y-18670661D01*
X134302500Y-58420000D02*
X131127500Y-61595000D01*
X47744643Y-19925146D02*
X132320146Y-19925146D01*
X134302500Y-53816408D02*
X134302500Y-56316497D01*
X122634478Y-18174998D02*
X47740879Y-18174998D01*
X47245216Y-18670661D02*
X47245216Y-19425719D01*
X47245216Y-19425719D02*
X47744643Y-19925146D01*
X126365000Y-14444476D02*
X122634478Y-18174998D01*
X135890000Y-23495000D02*
X135890000Y-43497500D01*
X126365000Y-4445000D02*
X126365000Y-14444476D01*
X132320146Y-19925146D02*
X135890000Y-23495000D01*
X148536918Y-18163371D02*
X237726363Y-18163371D01*
X154940000Y-37782500D02*
X155912426Y-38754925D01*
X238506397Y-18835900D02*
X238506397Y-19264132D01*
X238010733Y-19925146D02*
X238506397Y-19429482D01*
X237995344Y-18163371D02*
X237726363Y-18163371D01*
X238506397Y-19429482D02*
X238506397Y-19264132D01*
X145415000Y-15041453D02*
X148536918Y-18163371D01*
X238506397Y-18835900D02*
X238506397Y-18674424D01*
X155912426Y-38754925D02*
X159702500Y-42545000D01*
X154940000Y-23495000D02*
X154940000Y-37782500D01*
X145415000Y-4445000D02*
X145415000Y-15041453D01*
X154940000Y-23495000D02*
X158509854Y-19925146D01*
X238506397Y-18674424D02*
X237995344Y-18163371D01*
X159702500Y-52070000D02*
X150177500Y-61595000D01*
X158509854Y-19925146D02*
X238010733Y-19925146D01*
X159702500Y-51038302D02*
X159702500Y-52070000D01*
X159702500Y-42545000D02*
X159702500Y-51038302D01*
X238956407Y-19615882D02*
X238197133Y-20375156D01*
X238197133Y-20375156D02*
X177109844Y-20375156D01*
X238181745Y-17713362D02*
X238956407Y-18488024D01*
X164465000Y-14895408D02*
X167282953Y-17713361D01*
X164465000Y-4445000D02*
X164465000Y-14895408D01*
X175855403Y-39647903D02*
X178752500Y-42545000D01*
X173990000Y-37782500D02*
X175855403Y-39647903D01*
X167282953Y-17713361D02*
X238181745Y-17713362D01*
X177109844Y-20375156D02*
X173990000Y-23495000D01*
X173990000Y-23495000D02*
X173990000Y-37782500D01*
X178752500Y-42545000D02*
X178752500Y-52070000D01*
X178216771Y-52605728D02*
X169227500Y-61595000D01*
X178752500Y-52070000D02*
X178216771Y-52605728D01*
X238956407Y-18488024D02*
X238956407Y-19615882D01*
X238368146Y-17263353D02*
X239406417Y-18301624D01*
X195203068Y-39945567D02*
X197802500Y-42545000D01*
X197802500Y-42545000D02*
X197802500Y-52070000D01*
X186332969Y-17263352D02*
X238368146Y-17263353D01*
X183515000Y-14445383D02*
X186332969Y-17263352D01*
X195699045Y-20835955D02*
X193040000Y-23495000D01*
X193040000Y-37782500D02*
X195203068Y-39945567D01*
X196969123Y-52903377D02*
X188277500Y-61595000D01*
X197802500Y-52070000D02*
X196969123Y-52903377D01*
X183515000Y-4445000D02*
X183515000Y-14445383D01*
X239406417Y-18301624D02*
X239406416Y-19802283D01*
X238372744Y-20835955D02*
X195699045Y-20835955D01*
X193040000Y-23495000D02*
X193040000Y-37782500D01*
X239406416Y-19802283D02*
X238372744Y-20835955D01*
X239856425Y-19988684D02*
X238864833Y-20980275D01*
X212090000Y-37782500D02*
X216852500Y-42545000D01*
X213042566Y-55879934D02*
X207327500Y-61595000D01*
X216852500Y-52070000D02*
X215721474Y-53201025D01*
X204336938Y-16813343D02*
X238554547Y-16813344D01*
X216852500Y-42545000D02*
X216852500Y-52070000D01*
X202565000Y-15041405D02*
X204336938Y-16813343D01*
X214299035Y-21285965D02*
X212090000Y-23495000D01*
X239856426Y-18115225D02*
X239856425Y-19988684D01*
X215721474Y-53201025D02*
X213042566Y-55879934D01*
X212090000Y-23495000D02*
X212090000Y-37782500D01*
X237979897Y-21285965D02*
X238559143Y-21285965D01*
X238554547Y-16813344D02*
X239856426Y-18115225D01*
X202565000Y-4445000D02*
X202565000Y-15041405D01*
X238559143Y-21285965D02*
X238864833Y-20980275D01*
X237979897Y-21285965D02*
X214299035Y-21285965D01*
X234193933Y-76765874D02*
X233434730Y-77525077D01*
X221615000Y-14735959D02*
X223242375Y-16363334D01*
X238745543Y-21735975D02*
X232899025Y-21735975D01*
X226377500Y-61595000D02*
X226377500Y-72056987D01*
X232687887Y-55284613D02*
X226377500Y-61595000D01*
X234193933Y-75638016D02*
X234193933Y-76765874D01*
X226377500Y-72056987D02*
X229195503Y-74874990D01*
X232899025Y-21735975D02*
X231140000Y-23495000D01*
X223242375Y-16363334D02*
X238740948Y-16363336D01*
X233434730Y-77525077D02*
X231878673Y-77525077D01*
X221615000Y-4445000D02*
X221615000Y-14735959D01*
X240306433Y-20175085D02*
X238745543Y-21735975D01*
X240306435Y-17928826D02*
X240306433Y-20175085D01*
X231705912Y-74874983D02*
X233430901Y-74874984D01*
X235069139Y-52903361D02*
X232687887Y-55284613D01*
X235902500Y-42545000D02*
X235902500Y-52070000D01*
X229195503Y-74874990D02*
X231705912Y-74874983D01*
X231140000Y-37782500D02*
X235902500Y-42545000D01*
X235902500Y-52070000D02*
X235069139Y-52903361D01*
X233430901Y-74874984D02*
X234193933Y-75638016D01*
X238740948Y-16363336D02*
X240306435Y-17928826D01*
X231878673Y-77525077D02*
X228758750Y-80645000D01*
X231140000Y-23495000D02*
X231140000Y-37782500D01*
X254952500Y-51950767D02*
X254952500Y-52546080D01*
X240665000Y-4445000D02*
X240665000Y-13970000D01*
X240665000Y-13970000D02*
X250190000Y-23495000D01*
X252571460Y-80644790D02*
X252571250Y-80645000D01*
X254952500Y-42545000D02*
X254952500Y-37663255D01*
X254952500Y-59214016D02*
X252571460Y-61595056D01*
X254952500Y-52546080D02*
X254952500Y-59214016D01*
X252571460Y-61595056D02*
X252571460Y-80644790D01*
X254952500Y-42545000D02*
X254952500Y-51950767D01*
X250190000Y-32900755D02*
X250190000Y-31393049D01*
X254952500Y-37663255D02*
X250190000Y-32900755D01*
X250190000Y-23495000D02*
X250190000Y-31393049D01*
X260508750Y-52030575D02*
X260508750Y-55125765D01*
X260508750Y-45085000D02*
X260508750Y-51553887D01*
X260508750Y-51553887D02*
X260508750Y-52030575D01*
X278765000Y-78263822D02*
X276383750Y-80645072D01*
X266977985Y-61595000D02*
X278765000Y-61595000D01*
X278765000Y-61595000D02*
X278765000Y-78263822D01*
X260508750Y-41314941D02*
X268803691Y-33020000D01*
X260508750Y-55125765D02*
X266977985Y-61595000D01*
X260508750Y-45085000D02*
X260508750Y-41314941D01*
X268803691Y-33020000D02*
X276383980Y-33020000D01*
X21490643Y-14853137D02*
X24378145Y-14853137D01*
X24378145Y-14853137D02*
X27384398Y-17859390D01*
X18070329Y-9525008D02*
X17475016Y-10120321D01*
X21431268Y-14912512D02*
X21490643Y-14853137D01*
X19645329Y-9525008D02*
X18070329Y-9525008D01*
X18250013Y-12501573D02*
X18250013Y-12925837D01*
X18250013Y-12925837D02*
X20861689Y-15537513D01*
X25598459Y-17264077D02*
X23871895Y-15537513D01*
X27384398Y-19050016D02*
X25598459Y-17264077D01*
X23871895Y-15537513D02*
X22085956Y-15537513D01*
X20861689Y-15537513D02*
X22085956Y-15537513D01*
X9604382Y-45749511D02*
X9519900Y-45833993D01*
X14748440Y-37965647D02*
X14287512Y-37504719D01*
X24266579Y-39449406D02*
X24555488Y-39738316D01*
X8546260Y-46807633D02*
X9519900Y-45833993D01*
X8546260Y-47836918D02*
X8546260Y-50813483D01*
X9604382Y-39449406D02*
X9604382Y-45749511D01*
X22782819Y-37965647D02*
X14748440Y-37965647D01*
X23364862Y-38547690D02*
X24555488Y-39738316D01*
X23364862Y-38547690D02*
X22782819Y-37965647D01*
X11549069Y-37504719D02*
X14287512Y-37504719D01*
X8546260Y-47836918D02*
X8546260Y-46807633D01*
X25545088Y-40727915D02*
X25947141Y-40727915D01*
X28821654Y-40727915D02*
X25947141Y-40727915D01*
X8546260Y-50813483D02*
X9525008Y-51792231D01*
X24555488Y-39738316D02*
X25545088Y-40727915D01*
X9604382Y-39449406D02*
X11549069Y-37504719D01*
X20240642Y-13692199D02*
X20835955Y-14287512D01*
X20538298Y-11013290D02*
X19050016Y-12501573D01*
X25003146Y-14287512D02*
X27384398Y-16668764D01*
X19050016Y-14882825D02*
X16073451Y-14882825D01*
X19050016Y-12501573D02*
X20240642Y-13692199D01*
X21033763Y-10517825D02*
X20538298Y-11013290D01*
X16073451Y-14882825D02*
X15478138Y-15478138D01*
X21033763Y-8243619D02*
X21033763Y-10517825D01*
X20835955Y-14287512D02*
X25003146Y-14287512D01*
X20589324Y-19687270D02*
X22171884Y-21269830D01*
X22171884Y-36429709D02*
X25598459Y-39856284D01*
X22171884Y-21269830D02*
X22171884Y-33482831D01*
X22171884Y-33482831D02*
X22171884Y-36429709D01*
X21431268Y-19645329D02*
X22026581Y-20240642D01*
X22621894Y-35718780D02*
X26789085Y-39885971D01*
X22621894Y-33932841D02*
X22621894Y-35718780D01*
X22621894Y-20835955D02*
X22621894Y-33932841D01*
X22026581Y-20240642D02*
X22621894Y-20835955D01*
G04 #@! TA.AperFunction,Conductor*
G36*
X21948423Y-1053010D02*
G01*
X21994916Y-1106666D01*
X22005020Y-1176940D01*
X21990716Y-1219709D01*
X21959998Y-1275585D01*
X21955166Y-1286858D01*
X21899120Y-1463538D01*
X21896570Y-1475532D01*
X21880393Y-1619761D01*
X21880000Y-1626785D01*
X21880000Y-1707885D01*
X21884475Y-1723124D01*
X21885865Y-1724329D01*
X21893548Y-1726000D01*
X23877885Y-1726000D01*
X23893124Y-1721525D01*
X23894329Y-1720135D01*
X23896000Y-1712452D01*
X23896000Y-1633343D01*
X23895699Y-1627195D01*
X23882188Y-1489397D01*
X23879805Y-1477362D01*
X23826233Y-1299924D01*
X23821559Y-1288584D01*
X23784115Y-1218161D01*
X23769796Y-1148623D01*
X23795344Y-1082383D01*
X23852649Y-1040470D01*
X23895367Y-1033008D01*
X24281833Y-1033008D01*
X24349954Y-1053010D01*
X24396447Y-1106666D01*
X24407833Y-1159008D01*
X24407833Y-5272989D01*
X24387831Y-5341110D01*
X24334175Y-5387603D01*
X24311248Y-5395507D01*
X24257901Y-5408315D01*
X24257894Y-5408317D01*
X24253080Y-5409473D01*
X24248509Y-5411366D01*
X24248507Y-5411367D01*
X24050456Y-5493402D01*
X23979866Y-5500991D01*
X23916379Y-5469211D01*
X23884711Y-5412321D01*
X23881587Y-5413264D01*
X23826233Y-5229924D01*
X23821559Y-5218584D01*
X23734540Y-5054923D01*
X23727751Y-5044706D01*
X23610603Y-4901067D01*
X23601959Y-4892363D01*
X23459144Y-4774216D01*
X23448973Y-4767356D01*
X23285924Y-4679196D01*
X23274619Y-4674444D01*
X23159308Y-4638750D01*
X23145205Y-4638544D01*
X23142000Y-4645299D01*
X23142000Y-6655907D01*
X23138519Y-6685321D01*
X23128789Y-6725850D01*
X23108393Y-6985000D01*
X23128789Y-7244150D01*
X23129943Y-7248957D01*
X23129944Y-7248963D01*
X23138519Y-7284679D01*
X23142000Y-7314093D01*
X23142000Y-7667924D01*
X23145973Y-7681455D01*
X23166686Y-7684433D01*
X23218413Y-7684400D01*
X23278163Y-7722746D01*
X23290416Y-7739473D01*
X23424777Y-7958729D01*
X23430959Y-7965967D01*
X23459989Y-8030755D01*
X23449384Y-8100955D01*
X23402509Y-8154278D01*
X23345801Y-8173345D01*
X23318336Y-8175675D01*
X23270438Y-8179739D01*
X23270434Y-8179740D01*
X23265127Y-8180190D01*
X23259972Y-8181528D01*
X23259966Y-8181529D01*
X23046997Y-8236805D01*
X23046993Y-8236806D01*
X23041828Y-8238147D01*
X23036962Y-8240339D01*
X23036959Y-8240340D01*
X22938521Y-8284683D01*
X22831485Y-8332899D01*
X22827065Y-8335875D01*
X22827061Y-8335877D01*
X22734800Y-8397992D01*
X22640115Y-8461738D01*
X22473188Y-8620978D01*
X22470000Y-8625263D01*
X22341842Y-8797514D01*
X22335479Y-8806066D01*
X22333064Y-8810816D01*
X22252071Y-8970118D01*
X22230923Y-9011712D01*
X22212300Y-9071687D01*
X22164095Y-9226930D01*
X22164094Y-9226936D01*
X22162511Y-9232033D01*
X22132200Y-9460732D01*
X22140854Y-9691268D01*
X22188228Y-9917050D01*
X22190186Y-9922009D01*
X22190187Y-9922011D01*
X22195710Y-9935996D01*
X22272967Y-10131622D01*
X22343206Y-10247372D01*
X22388495Y-10322006D01*
X22392647Y-10328849D01*
X22396144Y-10332879D01*
X22528699Y-10485635D01*
X22543847Y-10503092D01*
X22547978Y-10506479D01*
X22718115Y-10645984D01*
X22718121Y-10645988D01*
X22722243Y-10649368D01*
X22922735Y-10763494D01*
X22927751Y-10765315D01*
X22927756Y-10765317D01*
X23134575Y-10840389D01*
X23134579Y-10840390D01*
X23139590Y-10842209D01*
X23144839Y-10843158D01*
X23144842Y-10843159D01*
X23362523Y-10882522D01*
X23362530Y-10882523D01*
X23366607Y-10883260D01*
X23384344Y-10884096D01*
X23389292Y-10884330D01*
X23389299Y-10884330D01*
X23390780Y-10884400D01*
X23552925Y-10884400D01*
X23619881Y-10878719D01*
X23719562Y-10870261D01*
X23719566Y-10870260D01*
X23724873Y-10869810D01*
X23730028Y-10868472D01*
X23730034Y-10868471D01*
X23943003Y-10813195D01*
X23943007Y-10813194D01*
X23948172Y-10811853D01*
X23953038Y-10809661D01*
X23953041Y-10809660D01*
X24153649Y-10719293D01*
X24158515Y-10717101D01*
X24162935Y-10714125D01*
X24162939Y-10714123D01*
X24211466Y-10681452D01*
X24279145Y-10660001D01*
X24347677Y-10678544D01*
X24395304Y-10731195D01*
X24407834Y-10785972D01*
X24407834Y-13528012D01*
X24387832Y-13596133D01*
X24334176Y-13642626D01*
X24281834Y-13654012D01*
X21150550Y-13654012D01*
X21082429Y-13634010D01*
X21061454Y-13617107D01*
X20660412Y-13216064D01*
X20035015Y-12590667D01*
X20000990Y-12528355D01*
X20006055Y-12457539D01*
X20035014Y-12412480D01*
X21014433Y-11433060D01*
X21014436Y-11433056D01*
X21426010Y-11021482D01*
X21434300Y-11013938D01*
X21440781Y-11009825D01*
X21487422Y-10960157D01*
X21490176Y-10957316D01*
X21509897Y-10937595D01*
X21512375Y-10934400D01*
X21520081Y-10925378D01*
X21544921Y-10898926D01*
X21550349Y-10893146D01*
X21560109Y-10875393D01*
X21570962Y-10858870D01*
X21578516Y-10849131D01*
X21583376Y-10842866D01*
X21600939Y-10802282D01*
X21606146Y-10791652D01*
X21627458Y-10752885D01*
X21629429Y-10745208D01*
X21629431Y-10745203D01*
X21632495Y-10733267D01*
X21638901Y-10714555D01*
X21643796Y-10703244D01*
X21646944Y-10695970D01*
X21648184Y-10688142D01*
X21648186Y-10688135D01*
X21653862Y-10652301D01*
X21656268Y-10640681D01*
X21665291Y-10605536D01*
X21665291Y-10605535D01*
X21667263Y-10597855D01*
X21667263Y-10577601D01*
X21668814Y-10557890D01*
X21670743Y-10545711D01*
X21671983Y-10537882D01*
X21667822Y-10493863D01*
X21667263Y-10482006D01*
X21667263Y-8789239D01*
X21688315Y-8719512D01*
X21753505Y-8621392D01*
X21757406Y-8615521D01*
X21814427Y-8465414D01*
X21819318Y-8452539D01*
X21819319Y-8452537D01*
X21821818Y-8445957D01*
X21822798Y-8438985D01*
X21846511Y-8270258D01*
X21846511Y-8270255D01*
X21847062Y-8266336D01*
X21847379Y-8243619D01*
X21827160Y-8063364D01*
X21824843Y-8056710D01*
X21769827Y-7898725D01*
X21769825Y-7898722D01*
X21767508Y-7892067D01*
X21671389Y-7738243D01*
X21656000Y-7722746D01*
X21548541Y-7614534D01*
X21548537Y-7614531D01*
X21543578Y-7609537D01*
X21532460Y-7602481D01*
X21466139Y-7560393D01*
X21390429Y-7512346D01*
X21347108Y-7496920D01*
X21226188Y-7453862D01*
X21226183Y-7453861D01*
X21219553Y-7451500D01*
X21212565Y-7450667D01*
X21212562Y-7450666D01*
X21089461Y-7435987D01*
X21039443Y-7430023D01*
X21032440Y-7430759D01*
X21032439Y-7430759D01*
X20866051Y-7448247D01*
X20866049Y-7448248D01*
X20859051Y-7448983D01*
X20687342Y-7507437D01*
X20681338Y-7511131D01*
X20538858Y-7598785D01*
X20538855Y-7598787D01*
X20532851Y-7602481D01*
X20527816Y-7607412D01*
X20527813Y-7607414D01*
X20408288Y-7724462D01*
X20403256Y-7729390D01*
X20304998Y-7881857D01*
X20302589Y-7888477D01*
X20302587Y-7888480D01*
X20275650Y-7962490D01*
X20242960Y-8052304D01*
X20220226Y-8232259D01*
X20237926Y-8412779D01*
X20295181Y-8584892D01*
X20298828Y-8590914D01*
X20298829Y-8590916D01*
X20382039Y-8728313D01*
X20400263Y-8793584D01*
X20400263Y-8832063D01*
X20380261Y-8900184D01*
X20326605Y-8946677D01*
X20256331Y-8956781D01*
X20191751Y-8927287D01*
X20184857Y-8920847D01*
X20160107Y-8895923D01*
X20160103Y-8895920D01*
X20155144Y-8890926D01*
X20144026Y-8883870D01*
X20028910Y-8810816D01*
X20001995Y-8793735D01*
X19972792Y-8783336D01*
X19837754Y-8735251D01*
X19837749Y-8735250D01*
X19831119Y-8732889D01*
X19824131Y-8732056D01*
X19824128Y-8732055D01*
X19698886Y-8717121D01*
X19651009Y-8711412D01*
X19644006Y-8712148D01*
X19644005Y-8712148D01*
X19477617Y-8729636D01*
X19477615Y-8729637D01*
X19470617Y-8730372D01*
X19298908Y-8788826D01*
X19162368Y-8872827D01*
X19096348Y-8891508D01*
X18149097Y-8891508D01*
X18137914Y-8890981D01*
X18130421Y-8889306D01*
X18122495Y-8889555D01*
X18122494Y-8889555D01*
X18062331Y-8891446D01*
X18058373Y-8891508D01*
X18030473Y-8891508D01*
X18026483Y-8892012D01*
X18014649Y-8892944D01*
X17970440Y-8894334D01*
X17962826Y-8896546D01*
X17962821Y-8896547D01*
X17950988Y-8899985D01*
X17931625Y-8903996D01*
X17911532Y-8906534D01*
X17904165Y-8909451D01*
X17904160Y-8909452D01*
X17870421Y-8922810D01*
X17859194Y-8926654D01*
X17851890Y-8928776D01*
X17816736Y-8938990D01*
X17809910Y-8943027D01*
X17799301Y-8949301D01*
X17781553Y-8957996D01*
X17762712Y-8965456D01*
X17756296Y-8970118D01*
X17756295Y-8970118D01*
X17726942Y-8991444D01*
X17717022Y-8997960D01*
X17685794Y-9016428D01*
X17685791Y-9016430D01*
X17678967Y-9020466D01*
X17664646Y-9034787D01*
X17649613Y-9047627D01*
X17633222Y-9059536D01*
X17623170Y-9071687D01*
X17605041Y-9093601D01*
X17597051Y-9102382D01*
X17413923Y-9285509D01*
X17351611Y-9319534D01*
X17337999Y-9321723D01*
X17307304Y-9324949D01*
X17307302Y-9324949D01*
X17300304Y-9325685D01*
X17128595Y-9384139D01*
X17122591Y-9387833D01*
X16980111Y-9475487D01*
X16980108Y-9475489D01*
X16974104Y-9479183D01*
X16969069Y-9484114D01*
X16969066Y-9484116D01*
X16867133Y-9583937D01*
X16844509Y-9606092D01*
X16746251Y-9758559D01*
X16743842Y-9765179D01*
X16743840Y-9765182D01*
X16695895Y-9896910D01*
X16684213Y-9929006D01*
X16661479Y-10108961D01*
X16679179Y-10289481D01*
X16736434Y-10461594D01*
X16740081Y-10467616D01*
X16740082Y-10467618D01*
X16823608Y-10605536D01*
X16830396Y-10616745D01*
X16956398Y-10747223D01*
X16975664Y-10759830D01*
X17098771Y-10840389D01*
X17108175Y-10846543D01*
X17114779Y-10848999D01*
X17114781Y-10849000D01*
X17271574Y-10907311D01*
X17271576Y-10907311D01*
X17278184Y-10909769D01*
X17362011Y-10920954D01*
X17450996Y-10932828D01*
X17451000Y-10932828D01*
X17457977Y-10933759D01*
X17464988Y-10933121D01*
X17464992Y-10933121D01*
X17607475Y-10920153D01*
X17638616Y-10917319D01*
X17645318Y-10915141D01*
X17645320Y-10915141D01*
X17804425Y-10863445D01*
X17804428Y-10863444D01*
X17811124Y-10861268D01*
X17910047Y-10802298D01*
X17960876Y-10771998D01*
X17960878Y-10771997D01*
X17966928Y-10768390D01*
X18098282Y-10643303D01*
X18198659Y-10492223D01*
X18257074Y-10338446D01*
X18260571Y-10329241D01*
X18260572Y-10329239D01*
X18263071Y-10322659D01*
X18270897Y-10266973D01*
X18300185Y-10202299D01*
X18359789Y-10163725D01*
X18395671Y-10158508D01*
X19099232Y-10158508D01*
X19168225Y-10179076D01*
X19267339Y-10243934D01*
X19278488Y-10251230D01*
X19285092Y-10253686D01*
X19285094Y-10253687D01*
X19441887Y-10311998D01*
X19441889Y-10311998D01*
X19448497Y-10314456D01*
X19522168Y-10324286D01*
X19621309Y-10337515D01*
X19621313Y-10337515D01*
X19628290Y-10338446D01*
X19635301Y-10337808D01*
X19635305Y-10337808D01*
X19783877Y-10324286D01*
X19808929Y-10322006D01*
X19815631Y-10319828D01*
X19815633Y-10319828D01*
X19974738Y-10268132D01*
X19974741Y-10268131D01*
X19981437Y-10265955D01*
X20097607Y-10196704D01*
X20123447Y-10181300D01*
X20192201Y-10163600D01*
X20259611Y-10185882D01*
X20304273Y-10241071D01*
X20312008Y-10311645D01*
X20277059Y-10378624D01*
X20146935Y-10508748D01*
X18988924Y-11666760D01*
X18926612Y-11700786D01*
X18913002Y-11702975D01*
X18904226Y-11703897D01*
X18882304Y-11706201D01*
X18882302Y-11706201D01*
X18875304Y-11706937D01*
X18703595Y-11765391D01*
X18701824Y-11766481D01*
X18633610Y-11777085D01*
X18607104Y-11769107D01*
X18606679Y-11770300D01*
X18442438Y-11711816D01*
X18442433Y-11711815D01*
X18435803Y-11709454D01*
X18428815Y-11708621D01*
X18428812Y-11708620D01*
X18305711Y-11693941D01*
X18255693Y-11687977D01*
X18248690Y-11688713D01*
X18248689Y-11688713D01*
X18082301Y-11706201D01*
X18082299Y-11706202D01*
X18075301Y-11706937D01*
X17903592Y-11765391D01*
X17895613Y-11770300D01*
X17755108Y-11856739D01*
X17755105Y-11856741D01*
X17749101Y-11860435D01*
X17744066Y-11865366D01*
X17744063Y-11865368D01*
X17624538Y-11982416D01*
X17619506Y-11987344D01*
X17521248Y-12139811D01*
X17518839Y-12146431D01*
X17518837Y-12146434D01*
X17461619Y-12303639D01*
X17459210Y-12310258D01*
X17436476Y-12490213D01*
X17454176Y-12670733D01*
X17511431Y-12842846D01*
X17515078Y-12848868D01*
X17515079Y-12848870D01*
X17605393Y-12997997D01*
X17604413Y-12998590D01*
X17620895Y-13031078D01*
X17624991Y-13045177D01*
X17629000Y-13064537D01*
X17631539Y-13084634D01*
X17634458Y-13092005D01*
X17634458Y-13092007D01*
X17647817Y-13125749D01*
X17651662Y-13136979D01*
X17663995Y-13179430D01*
X17668028Y-13186249D01*
X17668030Y-13186254D01*
X17674306Y-13196865D01*
X17683001Y-13214613D01*
X17690461Y-13233454D01*
X17695123Y-13239870D01*
X17695123Y-13239871D01*
X17716449Y-13269224D01*
X17722965Y-13279144D01*
X17745471Y-13317199D01*
X17759792Y-13331520D01*
X17772632Y-13346553D01*
X17784541Y-13362944D01*
X17790647Y-13367995D01*
X17818618Y-13391135D01*
X17827397Y-13399125D01*
X18462502Y-14034230D01*
X18496528Y-14096542D01*
X18491463Y-14167357D01*
X18448916Y-14224193D01*
X18382396Y-14249004D01*
X18373407Y-14249325D01*
X16152219Y-14249325D01*
X16141036Y-14248798D01*
X16133543Y-14247123D01*
X16125617Y-14247372D01*
X16125616Y-14247372D01*
X16065453Y-14249263D01*
X16061495Y-14249325D01*
X16033595Y-14249325D01*
X16029605Y-14249829D01*
X16017771Y-14250761D01*
X15973562Y-14252151D01*
X15965948Y-14254363D01*
X15965943Y-14254364D01*
X15954110Y-14257802D01*
X15934747Y-14261813D01*
X15914654Y-14264351D01*
X15907287Y-14267268D01*
X15907282Y-14267269D01*
X15873543Y-14280627D01*
X15862316Y-14284471D01*
X15819858Y-14296807D01*
X15813032Y-14300844D01*
X15802423Y-14307118D01*
X15784675Y-14315813D01*
X15765834Y-14323273D01*
X15759418Y-14327935D01*
X15759417Y-14327935D01*
X15730064Y-14349261D01*
X15720144Y-14355777D01*
X15688916Y-14374245D01*
X15688913Y-14374247D01*
X15682089Y-14378283D01*
X15667768Y-14392604D01*
X15652735Y-14405444D01*
X15636344Y-14417353D01*
X15609967Y-14449238D01*
X15608163Y-14451418D01*
X15600173Y-14460199D01*
X15417045Y-14643326D01*
X15354733Y-14677351D01*
X15341121Y-14679540D01*
X15310426Y-14682766D01*
X15310424Y-14682766D01*
X15303426Y-14683502D01*
X15131717Y-14741956D01*
X15125713Y-14745650D01*
X14983233Y-14833304D01*
X14983230Y-14833306D01*
X14977226Y-14837000D01*
X14972191Y-14841931D01*
X14972188Y-14841933D01*
X14852663Y-14958981D01*
X14847631Y-14963909D01*
X14749373Y-15116376D01*
X14687335Y-15286823D01*
X14664601Y-15466778D01*
X14682301Y-15647298D01*
X14739556Y-15819411D01*
X14743203Y-15825433D01*
X14743204Y-15825435D01*
X14815331Y-15944531D01*
X14833518Y-15974562D01*
X14838407Y-15979625D01*
X14838408Y-15979626D01*
X14914016Y-16057920D01*
X14959520Y-16105040D01*
X15007208Y-16136246D01*
X15090904Y-16191015D01*
X15111297Y-16204360D01*
X15117901Y-16206816D01*
X15117903Y-16206817D01*
X15274696Y-16265128D01*
X15274698Y-16265128D01*
X15281306Y-16267586D01*
X15354872Y-16277402D01*
X15454118Y-16290645D01*
X15454122Y-16290645D01*
X15461099Y-16291576D01*
X15468110Y-16290938D01*
X15468114Y-16290938D01*
X15610597Y-16277970D01*
X15641738Y-16275136D01*
X15648440Y-16272958D01*
X15648442Y-16272958D01*
X15807547Y-16221262D01*
X15807550Y-16221261D01*
X15814246Y-16219085D01*
X15949073Y-16138712D01*
X15963998Y-16129815D01*
X15964000Y-16129814D01*
X15970050Y-16126207D01*
X16101404Y-16001120D01*
X16201781Y-15850040D01*
X16260196Y-15696263D01*
X16263693Y-15687058D01*
X16263694Y-15687056D01*
X16266193Y-15680476D01*
X16274019Y-15624790D01*
X16303307Y-15560116D01*
X16362911Y-15521542D01*
X16398793Y-15516325D01*
X18503919Y-15516325D01*
X18572912Y-15536893D01*
X18608401Y-15560116D01*
X18683175Y-15609047D01*
X18689779Y-15611503D01*
X18689781Y-15611504D01*
X18846574Y-15669815D01*
X18846576Y-15669815D01*
X18853184Y-15672273D01*
X18937011Y-15683458D01*
X19025996Y-15695332D01*
X19026000Y-15695332D01*
X19032977Y-15696263D01*
X19039988Y-15695625D01*
X19039992Y-15695625D01*
X19182475Y-15682657D01*
X19213616Y-15679823D01*
X19220318Y-15677645D01*
X19220320Y-15677645D01*
X19379425Y-15625949D01*
X19379428Y-15625948D01*
X19386124Y-15623772D01*
X19541928Y-15530894D01*
X19601892Y-15473791D01*
X19666603Y-15412168D01*
X19729728Y-15379675D01*
X19800398Y-15386468D01*
X19842590Y-15414318D01*
X20358032Y-15929760D01*
X20365576Y-15938050D01*
X20369689Y-15944531D01*
X20375466Y-15949956D01*
X20419356Y-15991171D01*
X20422198Y-15993926D01*
X20441920Y-16013648D01*
X20445044Y-16016071D01*
X20445048Y-16016075D01*
X20445113Y-16016125D01*
X20454134Y-16023830D01*
X20486368Y-16054099D01*
X20493316Y-16057918D01*
X20493318Y-16057920D01*
X20504121Y-16063859D01*
X20520648Y-16074715D01*
X20530387Y-16082270D01*
X20530389Y-16082271D01*
X20536649Y-16087127D01*
X20577229Y-16104687D01*
X20587877Y-16109904D01*
X20608696Y-16121349D01*
X20626629Y-16131208D01*
X20634305Y-16133179D01*
X20634308Y-16133180D01*
X20646251Y-16136246D01*
X20664956Y-16142650D01*
X20683544Y-16150694D01*
X20691367Y-16151933D01*
X20691377Y-16151936D01*
X20727213Y-16157612D01*
X20738833Y-16160018D01*
X20773978Y-16169041D01*
X20781659Y-16171013D01*
X20801913Y-16171013D01*
X20821623Y-16172564D01*
X20841632Y-16175733D01*
X20849524Y-16174987D01*
X20885650Y-16171572D01*
X20897508Y-16171013D01*
X23557301Y-16171013D01*
X23625422Y-16191015D01*
X23646396Y-16207918D01*
X24370929Y-16932451D01*
X24404955Y-16994763D01*
X24407834Y-17021546D01*
X24407834Y-20114642D01*
X24387832Y-20182763D01*
X24334176Y-20229256D01*
X24281834Y-20240642D01*
X22974676Y-20240642D01*
X22906555Y-20220640D01*
X22885580Y-20203737D01*
X22672868Y-19991024D01*
X22265689Y-19583845D01*
X22231663Y-19521533D01*
X22229569Y-19508794D01*
X22228129Y-19495955D01*
X22224665Y-19465074D01*
X22188588Y-19361475D01*
X22167332Y-19300435D01*
X22167330Y-19300432D01*
X22165013Y-19293777D01*
X22093270Y-19178963D01*
X22072627Y-19145927D01*
X22068894Y-19139953D01*
X22063932Y-19134956D01*
X21946046Y-19016244D01*
X21946042Y-19016241D01*
X21941083Y-19011247D01*
X21787934Y-18914056D01*
X21741476Y-18897513D01*
X21623693Y-18855572D01*
X21623688Y-18855571D01*
X21617058Y-18853210D01*
X21610070Y-18852377D01*
X21610067Y-18852376D01*
X21486966Y-18837697D01*
X21436948Y-18831733D01*
X21429945Y-18832469D01*
X21429944Y-18832469D01*
X21263556Y-18849957D01*
X21263554Y-18849958D01*
X21256556Y-18850693D01*
X21166362Y-18881397D01*
X21091517Y-18906876D01*
X21091514Y-18906877D01*
X21084847Y-18909147D01*
X21078849Y-18912837D01*
X21078847Y-18912838D01*
X21037123Y-18938507D01*
X20968622Y-18957165D01*
X20928834Y-18949888D01*
X20781749Y-18897513D01*
X20781744Y-18897512D01*
X20775114Y-18895151D01*
X20768126Y-18894318D01*
X20768123Y-18894317D01*
X20645022Y-18879638D01*
X20595004Y-18873674D01*
X20588001Y-18874410D01*
X20588000Y-18874410D01*
X20421612Y-18891898D01*
X20421610Y-18891899D01*
X20414612Y-18892634D01*
X20242903Y-18951088D01*
X20236899Y-18954782D01*
X20094419Y-19042436D01*
X20094416Y-19042438D01*
X20088412Y-19046132D01*
X20083377Y-19051063D01*
X20083374Y-19051065D01*
X19997708Y-19134956D01*
X19958817Y-19173041D01*
X19860559Y-19325508D01*
X19858150Y-19332128D01*
X19858148Y-19332131D01*
X19800930Y-19489336D01*
X19798521Y-19495955D01*
X19797638Y-19502943D01*
X19797638Y-19502944D01*
X19791255Y-19553468D01*
X19762873Y-19618545D01*
X19732272Y-19644992D01*
X19634691Y-19705025D01*
X19629659Y-19709952D01*
X19629656Y-19709955D01*
X19573953Y-19764504D01*
X19505096Y-19831934D01*
X19406838Y-19984401D01*
X19344800Y-20154848D01*
X19342543Y-20154026D01*
X19312706Y-20205779D01*
X19249621Y-20238350D01*
X19225700Y-20240642D01*
X14521237Y-20240642D01*
X14453116Y-20220640D01*
X14432142Y-20203737D01*
X13133792Y-18905387D01*
X13099766Y-18843075D01*
X13096887Y-18816292D01*
X13096887Y-14451418D01*
X13096886Y-10069301D01*
X13116888Y-10001182D01*
X13170544Y-9954689D01*
X13240818Y-9944585D01*
X13305398Y-9974079D01*
X13340078Y-10023021D01*
X13382967Y-10131622D01*
X13453206Y-10247372D01*
X13498495Y-10322006D01*
X13502647Y-10328849D01*
X13506144Y-10332879D01*
X13638699Y-10485635D01*
X13653847Y-10503092D01*
X13657978Y-10506479D01*
X13828115Y-10645984D01*
X13828121Y-10645988D01*
X13832243Y-10649368D01*
X14032735Y-10763494D01*
X14037751Y-10765315D01*
X14037756Y-10765317D01*
X14244575Y-10840389D01*
X14244579Y-10840390D01*
X14249590Y-10842209D01*
X14254839Y-10843158D01*
X14254842Y-10843159D01*
X14472523Y-10882522D01*
X14472530Y-10882523D01*
X14476607Y-10883260D01*
X14494344Y-10884096D01*
X14499292Y-10884330D01*
X14499299Y-10884330D01*
X14500780Y-10884400D01*
X14662925Y-10884400D01*
X14729881Y-10878719D01*
X14829562Y-10870261D01*
X14829566Y-10870260D01*
X14834873Y-10869810D01*
X14840028Y-10868472D01*
X14840034Y-10868471D01*
X15053003Y-10813195D01*
X15053007Y-10813194D01*
X15058172Y-10811853D01*
X15063038Y-10809661D01*
X15063041Y-10809660D01*
X15263649Y-10719293D01*
X15268515Y-10717101D01*
X15272935Y-10714125D01*
X15272939Y-10714123D01*
X15445636Y-10597855D01*
X15459885Y-10588262D01*
X15626812Y-10429022D01*
X15706434Y-10322006D01*
X15761337Y-10248214D01*
X15761339Y-10248211D01*
X15764521Y-10243934D01*
X15819305Y-10136183D01*
X15866658Y-10043046D01*
X15866658Y-10043045D01*
X15869077Y-10038288D01*
X15903283Y-9928128D01*
X15935905Y-9823070D01*
X15935906Y-9823064D01*
X15937489Y-9817967D01*
X15954988Y-9685937D01*
X15967100Y-9594553D01*
X15967100Y-9594548D01*
X15967800Y-9589268D01*
X15959146Y-9358732D01*
X15911772Y-9132950D01*
X15827033Y-8918378D01*
X15713970Y-8732055D01*
X15710122Y-8725714D01*
X15710121Y-8725713D01*
X15707353Y-8721151D01*
X15620428Y-8620978D01*
X15559653Y-8550941D01*
X15559651Y-8550939D01*
X15556153Y-8546908D01*
X15511344Y-8510167D01*
X15381885Y-8404016D01*
X15381879Y-8404012D01*
X15377757Y-8400632D01*
X15177265Y-8286506D01*
X15172249Y-8284685D01*
X15172244Y-8284683D01*
X14965425Y-8209611D01*
X14965421Y-8209610D01*
X14960410Y-8207791D01*
X14955161Y-8206842D01*
X14955158Y-8206841D01*
X14737477Y-8167478D01*
X14737470Y-8167477D01*
X14733393Y-8166740D01*
X14714670Y-8165857D01*
X14710708Y-8165670D01*
X14710701Y-8165670D01*
X14709220Y-8165600D01*
X14547075Y-8165600D01*
X14480119Y-8171281D01*
X14380438Y-8179739D01*
X14380434Y-8179740D01*
X14375127Y-8180190D01*
X14369972Y-8181528D01*
X14369966Y-8181529D01*
X14156997Y-8236805D01*
X14156993Y-8236806D01*
X14151828Y-8238147D01*
X14146962Y-8240339D01*
X14146959Y-8240340D01*
X14048521Y-8284683D01*
X13941485Y-8332899D01*
X13937065Y-8335875D01*
X13937061Y-8335877D01*
X13844800Y-8397992D01*
X13750115Y-8461738D01*
X13583188Y-8620978D01*
X13580000Y-8625263D01*
X13451842Y-8797514D01*
X13445479Y-8806066D01*
X13340923Y-9011712D01*
X13339518Y-9016235D01*
X13295471Y-9071687D01*
X13228266Y-9094580D01*
X13159354Y-9077505D01*
X13110612Y-9025884D01*
X13096886Y-8968695D01*
X13096886Y-7197614D01*
X13116888Y-7129493D01*
X13170544Y-7083000D01*
X13240818Y-7072896D01*
X13305398Y-7102390D01*
X13334138Y-7138461D01*
X13401460Y-7265077D01*
X13408249Y-7275294D01*
X13525397Y-7418933D01*
X13534041Y-7427637D01*
X13676856Y-7545784D01*
X13687027Y-7552644D01*
X13850076Y-7640804D01*
X13861381Y-7645556D01*
X13976692Y-7681250D01*
X13990795Y-7681456D01*
X13994000Y-7674701D01*
X13994000Y-7667924D01*
X14502000Y-7667924D01*
X14505973Y-7681455D01*
X14513768Y-7682575D01*
X14621521Y-7650862D01*
X14632889Y-7646269D01*
X14797154Y-7560393D01*
X14807415Y-7553679D01*
X14951873Y-7437532D01*
X14960632Y-7428954D01*
X15079778Y-7286961D01*
X15086708Y-7276841D01*
X15176002Y-7114415D01*
X15180834Y-7103142D01*
X15236880Y-6926462D01*
X15239430Y-6914468D01*
X15255607Y-6770239D01*
X15256000Y-6763215D01*
X15256000Y-6547026D01*
X15276002Y-6478905D01*
X15329658Y-6432412D01*
X15399932Y-6422308D01*
X15409486Y-6424061D01*
X15579494Y-6462062D01*
X15579501Y-6462063D01*
X15584543Y-6463190D01*
X15590088Y-6463500D01*
X15723244Y-6463500D01*
X15858037Y-6448857D01*
X15976190Y-6409094D01*
X16023204Y-6393272D01*
X16023206Y-6393271D01*
X16029675Y-6391094D01*
X16184905Y-6297823D01*
X16189862Y-6293135D01*
X16189865Y-6293133D01*
X16311527Y-6178082D01*
X16311529Y-6178080D01*
X16316485Y-6173393D01*
X16320317Y-6167755D01*
X16320320Y-6167751D01*
X16414442Y-6029255D01*
X16418277Y-6023612D01*
X16485530Y-5855466D01*
X16486644Y-5848738D01*
X16486645Y-5848734D01*
X16513993Y-5683539D01*
X16513993Y-5683536D01*
X16515108Y-5676802D01*
X16511943Y-5616398D01*
X16510203Y-5583198D01*
X20620892Y-5583198D01*
X20621249Y-5590015D01*
X20621249Y-5590019D01*
X20626151Y-5683539D01*
X20630370Y-5764047D01*
X20632181Y-5770620D01*
X20632181Y-5770623D01*
X20655551Y-5855466D01*
X20678461Y-5938641D01*
X20762922Y-6098836D01*
X20767327Y-6104049D01*
X20767330Y-6104053D01*
X20875406Y-6231943D01*
X20875410Y-6231947D01*
X20879813Y-6237157D01*
X20885237Y-6241304D01*
X20885238Y-6241305D01*
X21018257Y-6343006D01*
X21018261Y-6343009D01*
X21023678Y-6347150D01*
X21110372Y-6387576D01*
X21181631Y-6420805D01*
X21181634Y-6420806D01*
X21187808Y-6423685D01*
X21194456Y-6425171D01*
X21194459Y-6425172D01*
X21290686Y-6446681D01*
X21364543Y-6463190D01*
X21370088Y-6463500D01*
X21503244Y-6463500D01*
X21638037Y-6448857D01*
X21644501Y-6446682D01*
X21644504Y-6446681D01*
X21711716Y-6424061D01*
X21713811Y-6423356D01*
X21784753Y-6420586D01*
X21845932Y-6456609D01*
X21877923Y-6519990D01*
X21880000Y-6542775D01*
X21880000Y-6756657D01*
X21880301Y-6762805D01*
X21893812Y-6900603D01*
X21896195Y-6912638D01*
X21949767Y-7090076D01*
X21954441Y-7101416D01*
X22041460Y-7265077D01*
X22048249Y-7275294D01*
X22165397Y-7418933D01*
X22174041Y-7427637D01*
X22316856Y-7545784D01*
X22327027Y-7552644D01*
X22490076Y-7640804D01*
X22501381Y-7645556D01*
X22616692Y-7681250D01*
X22630795Y-7681456D01*
X22634000Y-7674701D01*
X22634000Y-4652076D01*
X22630027Y-4638545D01*
X22622232Y-4637425D01*
X22514479Y-4669138D01*
X22503111Y-4673731D01*
X22338846Y-4759607D01*
X22328585Y-4766321D01*
X22184127Y-4882468D01*
X22175368Y-4891046D01*
X22131000Y-4943921D01*
X22071890Y-4983248D01*
X22000902Y-4984374D01*
X21957952Y-4963028D01*
X21892322Y-4912850D01*
X21787186Y-4863825D01*
X21734369Y-4839195D01*
X21734366Y-4839194D01*
X21728192Y-4836315D01*
X21721544Y-4834829D01*
X21721541Y-4834828D01*
X21556494Y-4797936D01*
X21556495Y-4797936D01*
X21551457Y-4796810D01*
X21545912Y-4796500D01*
X21412756Y-4796500D01*
X21277963Y-4811143D01*
X21194609Y-4839195D01*
X21112796Y-4866728D01*
X21112794Y-4866729D01*
X21106325Y-4868906D01*
X20951095Y-4962177D01*
X20946138Y-4966865D01*
X20946135Y-4966867D01*
X20824473Y-5081918D01*
X20819515Y-5086607D01*
X20815683Y-5092245D01*
X20815680Y-5092249D01*
X20764740Y-5167205D01*
X20717723Y-5236388D01*
X20650470Y-5404534D01*
X20649356Y-5411262D01*
X20649355Y-5411266D01*
X20633183Y-5508952D01*
X20620892Y-5583198D01*
X16510203Y-5583198D01*
X16505987Y-5502766D01*
X16505630Y-5495953D01*
X16482304Y-5411266D01*
X16459352Y-5327941D01*
X16457539Y-5321359D01*
X16373078Y-5161164D01*
X16368673Y-5155951D01*
X16368670Y-5155947D01*
X16260594Y-5028057D01*
X16260590Y-5028053D01*
X16256187Y-5022843D01*
X16250762Y-5018695D01*
X16117743Y-4916994D01*
X16117739Y-4916991D01*
X16112322Y-4912850D01*
X16007186Y-4863825D01*
X15954369Y-4839195D01*
X15954366Y-4839194D01*
X15948192Y-4836315D01*
X15941544Y-4834829D01*
X15941541Y-4834828D01*
X15776494Y-4797936D01*
X15776495Y-4797936D01*
X15771457Y-4796810D01*
X15765912Y-4796500D01*
X15632756Y-4796500D01*
X15497963Y-4811143D01*
X15414609Y-4839195D01*
X15332796Y-4866728D01*
X15332794Y-4866729D01*
X15326325Y-4868906D01*
X15174349Y-4960222D01*
X15174346Y-4960223D01*
X15171095Y-4962177D01*
X15170745Y-4961594D01*
X15109083Y-4985065D01*
X15039609Y-4970439D01*
X15001609Y-4939085D01*
X14970603Y-4901067D01*
X14961959Y-4892363D01*
X14819144Y-4774216D01*
X14808973Y-4767356D01*
X14645924Y-4679196D01*
X14634619Y-4674444D01*
X14519308Y-4638750D01*
X14505205Y-4638544D01*
X14502000Y-4645299D01*
X14502000Y-7667924D01*
X13994000Y-7667924D01*
X13994000Y-4652076D01*
X13990027Y-4638545D01*
X13982232Y-4637425D01*
X13875468Y-4668847D01*
X13804472Y-4668892D01*
X13744721Y-4630546D01*
X13715187Y-4565984D01*
X13714281Y-4538087D01*
X13721219Y-4449930D01*
X13721607Y-4445000D01*
X13701211Y-4185850D01*
X13640527Y-3933080D01*
X13541048Y-3692916D01*
X13405223Y-3471271D01*
X13236398Y-3273602D01*
X13141054Y-3192170D01*
X13102247Y-3132723D01*
X13096886Y-3096362D01*
X13096886Y-2767614D01*
X13116888Y-2699493D01*
X13170544Y-2653000D01*
X13240818Y-2642896D01*
X13305398Y-2672390D01*
X13334138Y-2708461D01*
X13401460Y-2835077D01*
X13408249Y-2845294D01*
X13525397Y-2988933D01*
X13534041Y-2997637D01*
X13676856Y-3115784D01*
X13687027Y-3122644D01*
X13850076Y-3210804D01*
X13861381Y-3215556D01*
X13976692Y-3251250D01*
X13990795Y-3251456D01*
X13994000Y-3244701D01*
X13994000Y-3237924D01*
X14502000Y-3237924D01*
X14505973Y-3251455D01*
X14513768Y-3252575D01*
X14621521Y-3220862D01*
X14632889Y-3216269D01*
X14797154Y-3130393D01*
X14807415Y-3123679D01*
X14951873Y-3007532D01*
X14960632Y-2998954D01*
X15079778Y-2856961D01*
X15086708Y-2846841D01*
X15176002Y-2684415D01*
X15180834Y-2673142D01*
X15236880Y-2496462D01*
X15239430Y-2484468D01*
X15255607Y-2340239D01*
X15256000Y-2333215D01*
X15256000Y-2326657D01*
X21880000Y-2326657D01*
X21880301Y-2332805D01*
X21893812Y-2470603D01*
X21896195Y-2482638D01*
X21949767Y-2660076D01*
X21954441Y-2671416D01*
X22041460Y-2835077D01*
X22048249Y-2845294D01*
X22165397Y-2988933D01*
X22174041Y-2997637D01*
X22316856Y-3115784D01*
X22327027Y-3122644D01*
X22490076Y-3210804D01*
X22501381Y-3215556D01*
X22616692Y-3251250D01*
X22630795Y-3251456D01*
X22634000Y-3244701D01*
X22634000Y-3237924D01*
X23142000Y-3237924D01*
X23145973Y-3251455D01*
X23153768Y-3252575D01*
X23261521Y-3220862D01*
X23272889Y-3216269D01*
X23437154Y-3130393D01*
X23447415Y-3123679D01*
X23591873Y-3007532D01*
X23600632Y-2998954D01*
X23719778Y-2856961D01*
X23726708Y-2846841D01*
X23816002Y-2684415D01*
X23820834Y-2673142D01*
X23876880Y-2496462D01*
X23879430Y-2484468D01*
X23895607Y-2340239D01*
X23896000Y-2333215D01*
X23896000Y-2252115D01*
X23891525Y-2236876D01*
X23890135Y-2235671D01*
X23882452Y-2234000D01*
X23160115Y-2234000D01*
X23144876Y-2238475D01*
X23143671Y-2239865D01*
X23142000Y-2247548D01*
X23142000Y-3237924D01*
X22634000Y-3237924D01*
X22634000Y-2252115D01*
X22629525Y-2236876D01*
X22628135Y-2235671D01*
X22620452Y-2234000D01*
X21898115Y-2234000D01*
X21882876Y-2238475D01*
X21881671Y-2239865D01*
X21880000Y-2247548D01*
X21880000Y-2326657D01*
X15256000Y-2326657D01*
X15256000Y-2252115D01*
X15251525Y-2236876D01*
X15250135Y-2235671D01*
X15242452Y-2234000D01*
X14520115Y-2234000D01*
X14504876Y-2238475D01*
X14503671Y-2239865D01*
X14502000Y-2247548D01*
X14502000Y-3237924D01*
X13994000Y-3237924D01*
X13994000Y-1852000D01*
X14014002Y-1783879D01*
X14067658Y-1737386D01*
X14120000Y-1726000D01*
X15237885Y-1726000D01*
X15253124Y-1721525D01*
X15254329Y-1720135D01*
X15256000Y-1712452D01*
X15256000Y-1633343D01*
X15255699Y-1627195D01*
X15242188Y-1489397D01*
X15239805Y-1477362D01*
X15186233Y-1299924D01*
X15181559Y-1288584D01*
X15144115Y-1218161D01*
X15129796Y-1148623D01*
X15155344Y-1082383D01*
X15212649Y-1040470D01*
X15255367Y-1033008D01*
X21880302Y-1033008D01*
X21948423Y-1053010D01*
G37*
G04 #@! TD.AperFunction*
G04 #@! TA.AperFunction,Conductor*
G36*
X45185909Y-29190339D02*
G01*
X45232402Y-29243995D01*
X45243788Y-29296337D01*
X45243788Y-40785660D01*
X45223786Y-40853781D01*
X45170130Y-40900274D01*
X45143251Y-40908375D01*
X45143350Y-40908789D01*
X44890580Y-40969473D01*
X44886009Y-40971366D01*
X44886007Y-40971367D01*
X44654988Y-41067058D01*
X44654986Y-41067059D01*
X44650416Y-41068952D01*
X44428771Y-41204777D01*
X44425004Y-41207994D01*
X44425003Y-41207995D01*
X44334755Y-41285074D01*
X44231102Y-41373602D01*
X44062277Y-41571271D01*
X43926452Y-41792916D01*
X43924559Y-41797486D01*
X43924558Y-41797488D01*
X43828867Y-42028507D01*
X43826973Y-42033080D01*
X43766289Y-42285850D01*
X43745893Y-42545000D01*
X43766289Y-42804150D01*
X43767443Y-42808957D01*
X43767444Y-42808963D01*
X43794229Y-42920529D01*
X43826973Y-43056920D01*
X43828866Y-43061491D01*
X43828867Y-43061493D01*
X43922806Y-43288281D01*
X43926452Y-43297084D01*
X44062277Y-43518729D01*
X44065494Y-43522496D01*
X44065495Y-43522497D01*
X44135946Y-43604985D01*
X44231102Y-43716398D01*
X44234864Y-43719611D01*
X44370696Y-43835622D01*
X44428771Y-43885223D01*
X44650416Y-44021048D01*
X44654986Y-44022941D01*
X44654988Y-44022942D01*
X44868234Y-44111271D01*
X44890580Y-44120527D01*
X45035572Y-44155336D01*
X45143350Y-44181211D01*
X45143036Y-44182517D01*
X45201649Y-44210301D01*
X45239178Y-44270569D01*
X45243788Y-44304340D01*
X45243788Y-46271452D01*
X45223786Y-46339573D01*
X45170130Y-46386066D01*
X45099856Y-46396170D01*
X45035276Y-46366676D01*
X45007373Y-46332153D01*
X44981433Y-46284968D01*
X44981431Y-46284965D01*
X44979524Y-46281496D01*
X44794445Y-46026756D01*
X44578898Y-45797222D01*
X44336282Y-45596513D01*
X44070424Y-45427794D01*
X44066845Y-45426110D01*
X44066838Y-45426106D01*
X43789106Y-45295416D01*
X43789102Y-45295414D01*
X43785516Y-45293727D01*
X43486052Y-45196425D01*
X43176754Y-45137423D01*
X43083200Y-45131537D01*
X42943142Y-45122725D01*
X42943126Y-45122724D01*
X42941147Y-45122600D01*
X42783853Y-45122600D01*
X42781874Y-45122724D01*
X42781858Y-45122725D01*
X42641800Y-45131537D01*
X42548246Y-45137423D01*
X42238948Y-45196425D01*
X41939484Y-45293727D01*
X41935898Y-45295414D01*
X41935894Y-45295416D01*
X41658162Y-45426106D01*
X41658155Y-45426110D01*
X41654576Y-45427794D01*
X41388718Y-45596513D01*
X41146102Y-45797222D01*
X40930555Y-46026756D01*
X40745476Y-46281496D01*
X40743569Y-46284965D01*
X40743567Y-46284968D01*
X40595690Y-46553956D01*
X40593784Y-46557423D01*
X40477870Y-46850187D01*
X40399564Y-47155170D01*
X40360100Y-47467562D01*
X40360100Y-47782438D01*
X40399564Y-48094830D01*
X40477870Y-48399813D01*
X40593784Y-48692577D01*
X40595686Y-48696036D01*
X40595687Y-48696039D01*
X40730020Y-48940389D01*
X40745476Y-48968504D01*
X40930555Y-49223244D01*
X41146102Y-49452778D01*
X41388718Y-49653487D01*
X41654576Y-49822206D01*
X41658155Y-49823890D01*
X41658162Y-49823894D01*
X41935894Y-49954584D01*
X41935898Y-49954586D01*
X41939484Y-49956273D01*
X42238948Y-50053575D01*
X42548246Y-50112577D01*
X42641800Y-50118463D01*
X42781858Y-50127275D01*
X42781874Y-50127276D01*
X42783853Y-50127400D01*
X42941147Y-50127400D01*
X42943126Y-50127276D01*
X42943142Y-50127275D01*
X43083200Y-50118463D01*
X43176754Y-50112577D01*
X43486052Y-50053575D01*
X43785516Y-49956273D01*
X43789102Y-49954586D01*
X43789106Y-49954584D01*
X44066838Y-49823894D01*
X44066845Y-49823890D01*
X44070424Y-49822206D01*
X44336282Y-49653487D01*
X44578898Y-49452778D01*
X44794445Y-49223244D01*
X44979524Y-48968504D01*
X44994981Y-48940389D01*
X45007373Y-48917847D01*
X45057719Y-48867788D01*
X45127136Y-48852895D01*
X45193585Y-48877896D01*
X45235969Y-48934853D01*
X45243788Y-48978548D01*
X45243788Y-55238109D01*
X45223786Y-55306230D01*
X45170130Y-55352723D01*
X45117788Y-55364109D01*
X35728248Y-55364109D01*
X35660127Y-55344107D01*
X35613634Y-55290451D01*
X35603530Y-55220177D01*
X35633024Y-55155597D01*
X35639153Y-55149014D01*
X39444747Y-51343420D01*
X39453037Y-51335876D01*
X39459518Y-51331763D01*
X39506159Y-51282095D01*
X39508913Y-51279254D01*
X39528634Y-51259533D01*
X39531112Y-51256338D01*
X39538818Y-51247316D01*
X39563658Y-51220864D01*
X39569086Y-51215084D01*
X39578846Y-51197331D01*
X39589699Y-51180808D01*
X39597253Y-51171069D01*
X39602113Y-51164804D01*
X39619676Y-51124220D01*
X39624883Y-51113590D01*
X39646195Y-51074823D01*
X39648166Y-51067146D01*
X39648168Y-51067141D01*
X39651232Y-51055205D01*
X39657638Y-51036493D01*
X39662533Y-51025182D01*
X39665681Y-51017908D01*
X39666921Y-51010080D01*
X39666923Y-51010073D01*
X39672599Y-50974239D01*
X39675005Y-50962619D01*
X39684028Y-50927474D01*
X39684028Y-50927473D01*
X39686000Y-50919793D01*
X39686000Y-50899539D01*
X39687551Y-50879828D01*
X39689480Y-50867649D01*
X39690720Y-50859820D01*
X39686559Y-50815801D01*
X39686000Y-50803944D01*
X39686000Y-46694358D01*
X39706002Y-46626237D01*
X39763781Y-46577949D01*
X39804584Y-46561048D01*
X40026229Y-46425223D01*
X40161594Y-46309611D01*
X40213124Y-46265600D01*
X40223898Y-46256398D01*
X40392723Y-46058729D01*
X40528548Y-45837084D01*
X40545060Y-45797222D01*
X40626133Y-45601493D01*
X40626134Y-45601491D01*
X40628027Y-45596920D01*
X40668630Y-45427794D01*
X40687556Y-45348963D01*
X40687557Y-45348957D01*
X40688711Y-45344150D01*
X40709107Y-45085000D01*
X40688711Y-44825850D01*
X40687485Y-44820740D01*
X40636010Y-44606333D01*
X40628027Y-44573080D01*
X40613760Y-44538635D01*
X40611126Y-44532277D01*
X40603537Y-44461687D01*
X40638440Y-44394964D01*
X41468844Y-43564560D01*
X41477134Y-43557016D01*
X41483615Y-43552903D01*
X41530256Y-43503235D01*
X41533010Y-43500394D01*
X41552731Y-43480673D01*
X41555209Y-43477478D01*
X41562915Y-43468456D01*
X41580299Y-43449944D01*
X41593183Y-43436224D01*
X41602943Y-43418471D01*
X41613796Y-43401948D01*
X41621350Y-43392209D01*
X41626210Y-43385944D01*
X41643773Y-43345360D01*
X41648980Y-43334730D01*
X41670292Y-43295963D01*
X41672263Y-43288286D01*
X41672265Y-43288281D01*
X41675329Y-43276345D01*
X41681735Y-43257633D01*
X41686631Y-43246320D01*
X41689778Y-43239048D01*
X41692068Y-43224593D01*
X41696694Y-43195384D01*
X41699101Y-43183763D01*
X41708125Y-43148614D01*
X41708125Y-43148613D01*
X41710097Y-43140933D01*
X41710097Y-43120672D01*
X41711648Y-43100961D01*
X41713576Y-43088788D01*
X41714816Y-43080960D01*
X41710656Y-43036949D01*
X41710097Y-43025092D01*
X41710097Y-38311962D01*
X41731149Y-38242235D01*
X41796339Y-38144115D01*
X41800240Y-38138244D01*
X41859371Y-37982583D01*
X41862152Y-37975262D01*
X41862153Y-37975260D01*
X41864652Y-37968680D01*
X41868376Y-37942186D01*
X41874236Y-37900487D01*
X41903524Y-37835813D01*
X41909915Y-37828928D01*
X42064157Y-37674686D01*
X42072447Y-37667142D01*
X42078928Y-37663029D01*
X42125569Y-37613361D01*
X42128323Y-37610520D01*
X42148045Y-37590798D01*
X42150529Y-37587596D01*
X42158227Y-37578584D01*
X42183071Y-37552127D01*
X42188496Y-37546350D01*
X42198257Y-37528595D01*
X42209108Y-37512076D01*
X42221524Y-37496070D01*
X42239084Y-37455492D01*
X42244301Y-37444842D01*
X42265605Y-37406089D01*
X42270643Y-37386466D01*
X42277047Y-37367763D01*
X42281943Y-37356449D01*
X42281943Y-37356448D01*
X42285091Y-37349174D01*
X42286330Y-37341351D01*
X42286333Y-37341341D01*
X42292009Y-37305505D01*
X42294415Y-37293885D01*
X42303438Y-37258740D01*
X42303438Y-37258739D01*
X42305410Y-37251059D01*
X42305410Y-37230805D01*
X42306961Y-37211094D01*
X42308890Y-37198915D01*
X42310130Y-37191086D01*
X42305969Y-37147067D01*
X42305410Y-37135210D01*
X42305410Y-29858108D01*
X42325412Y-29789987D01*
X42379068Y-29743494D01*
X42449342Y-29733390D01*
X42493742Y-29748606D01*
X42530084Y-29769293D01*
X42607735Y-29813494D01*
X42612751Y-29815315D01*
X42612756Y-29815317D01*
X42819575Y-29890389D01*
X42819579Y-29890390D01*
X42824590Y-29892209D01*
X42829839Y-29893158D01*
X42829842Y-29893159D01*
X43047523Y-29932522D01*
X43047530Y-29932523D01*
X43051607Y-29933260D01*
X43069344Y-29934096D01*
X43074292Y-29934330D01*
X43074299Y-29934330D01*
X43075780Y-29934400D01*
X43237925Y-29934400D01*
X43304881Y-29928719D01*
X43404562Y-29920261D01*
X43404566Y-29920260D01*
X43409873Y-29919810D01*
X43415028Y-29918472D01*
X43415034Y-29918471D01*
X43628003Y-29863195D01*
X43628007Y-29863194D01*
X43633172Y-29861853D01*
X43638038Y-29859661D01*
X43638041Y-29859660D01*
X43838649Y-29769293D01*
X43843515Y-29767101D01*
X43847935Y-29764125D01*
X43847939Y-29764123D01*
X43965779Y-29684787D01*
X44034885Y-29638262D01*
X44201812Y-29479022D01*
X44279738Y-29374286D01*
X44336337Y-29298214D01*
X44336339Y-29298211D01*
X44339521Y-29293934D01*
X44367333Y-29239232D01*
X44416036Y-29187574D01*
X44479650Y-29170337D01*
X45117788Y-29170337D01*
X45185909Y-29190339D01*
G37*
G04 #@! TD.AperFunction*
G04 #@! TA.AperFunction,Conductor*
G36*
X25002165Y-42469697D02*
G01*
X25048658Y-42523353D01*
X25058762Y-42593627D01*
X25029268Y-42658207D01*
X25000067Y-42683011D01*
X24962459Y-42706148D01*
X24856923Y-42771074D01*
X24856920Y-42771076D01*
X24850916Y-42774770D01*
X24845881Y-42779701D01*
X24845878Y-42779703D01*
X24734082Y-42889182D01*
X24721321Y-42901679D01*
X24623063Y-43054146D01*
X24620654Y-43060766D01*
X24620652Y-43060769D01*
X24605387Y-43102710D01*
X24561025Y-43224593D01*
X24553965Y-43280476D01*
X24525585Y-43345549D01*
X24518055Y-43353776D01*
X23420267Y-44451564D01*
X23411981Y-44459104D01*
X23405502Y-44463216D01*
X23400077Y-44468993D01*
X23358877Y-44512867D01*
X23356122Y-44515709D01*
X23336385Y-44535446D01*
X23333905Y-44538643D01*
X23326202Y-44547663D01*
X23295934Y-44579895D01*
X23292115Y-44586841D01*
X23292113Y-44586844D01*
X23286172Y-44597650D01*
X23275321Y-44614169D01*
X23262906Y-44630175D01*
X23259761Y-44637444D01*
X23259758Y-44637448D01*
X23245346Y-44670753D01*
X23240129Y-44681403D01*
X23218825Y-44720156D01*
X23213837Y-44739585D01*
X23213787Y-44739778D01*
X23207383Y-44758482D01*
X23199339Y-44777071D01*
X23198100Y-44784894D01*
X23198097Y-44784904D01*
X23192421Y-44820740D01*
X23190015Y-44832360D01*
X23184554Y-44853630D01*
X23179020Y-44875186D01*
X23179020Y-44895440D01*
X23177469Y-44915150D01*
X23174300Y-44935159D01*
X23175046Y-44943051D01*
X23178461Y-44979177D01*
X23179020Y-44991035D01*
X23179020Y-46911020D01*
X23159018Y-46979141D01*
X23105362Y-47025634D01*
X23035088Y-47035738D01*
X22970508Y-47006244D01*
X22945301Y-46976385D01*
X22853872Y-46825714D01*
X22853871Y-46825713D01*
X22851103Y-46821151D01*
X22764178Y-46720978D01*
X22703403Y-46650941D01*
X22703401Y-46650939D01*
X22699903Y-46646908D01*
X22615802Y-46577949D01*
X22525635Y-46504016D01*
X22525629Y-46504012D01*
X22521507Y-46500632D01*
X22321015Y-46386506D01*
X22315999Y-46384685D01*
X22315994Y-46384683D01*
X22109175Y-46309611D01*
X22109171Y-46309610D01*
X22104160Y-46307791D01*
X22098911Y-46306842D01*
X22098908Y-46306841D01*
X21881227Y-46267478D01*
X21881220Y-46267477D01*
X21877143Y-46266740D01*
X21858420Y-46265857D01*
X21854458Y-46265670D01*
X21854451Y-46265670D01*
X21852970Y-46265600D01*
X21690825Y-46265600D01*
X21623869Y-46271281D01*
X21524188Y-46279739D01*
X21524184Y-46279740D01*
X21518877Y-46280190D01*
X21513722Y-46281528D01*
X21513716Y-46281529D01*
X21300747Y-46336805D01*
X21300743Y-46336806D01*
X21295578Y-46338147D01*
X21290712Y-46340339D01*
X21290709Y-46340340D01*
X21166771Y-46396170D01*
X21085235Y-46432899D01*
X21080815Y-46435875D01*
X21080811Y-46435877D01*
X21068299Y-46444301D01*
X20893865Y-46561738D01*
X20726938Y-46720978D01*
X20723750Y-46725263D01*
X20633535Y-46846517D01*
X20589229Y-46906066D01*
X20586814Y-46910816D01*
X20532127Y-47018378D01*
X20484673Y-47111712D01*
X20472371Y-47151331D01*
X20417845Y-47326930D01*
X20417844Y-47326936D01*
X20416261Y-47332033D01*
X20415560Y-47337325D01*
X20386984Y-47552934D01*
X20385950Y-47560732D01*
X20386150Y-47566062D01*
X20386150Y-47566063D01*
X20389190Y-47647054D01*
X20394604Y-47791268D01*
X20441978Y-48017050D01*
X20443936Y-48022009D01*
X20443937Y-48022011D01*
X20472695Y-48094830D01*
X20526717Y-48231622D01*
X20646397Y-48428849D01*
X20649894Y-48432879D01*
X20736518Y-48532704D01*
X20797597Y-48603092D01*
X20801728Y-48606479D01*
X20971865Y-48745984D01*
X20971871Y-48745988D01*
X20975993Y-48749368D01*
X21176485Y-48863494D01*
X21181501Y-48865315D01*
X21181506Y-48865317D01*
X21388325Y-48940389D01*
X21388329Y-48940390D01*
X21393340Y-48942209D01*
X21398589Y-48943158D01*
X21398592Y-48943159D01*
X21616273Y-48982522D01*
X21616280Y-48982523D01*
X21620357Y-48983260D01*
X21638094Y-48984096D01*
X21643042Y-48984330D01*
X21643049Y-48984330D01*
X21644530Y-48984400D01*
X21806675Y-48984400D01*
X21875643Y-48978548D01*
X21973312Y-48970261D01*
X21973316Y-48970260D01*
X21978623Y-48969810D01*
X21983778Y-48968472D01*
X21983784Y-48968471D01*
X22196753Y-48913195D01*
X22196757Y-48913194D01*
X22201922Y-48911853D01*
X22206788Y-48909661D01*
X22206791Y-48909660D01*
X22407399Y-48819293D01*
X22412265Y-48817101D01*
X22416685Y-48814125D01*
X22416689Y-48814123D01*
X22592083Y-48696039D01*
X22603635Y-48688262D01*
X22770562Y-48529022D01*
X22860344Y-48408350D01*
X22905087Y-48348214D01*
X22905089Y-48348211D01*
X22908271Y-48343934D01*
X22940703Y-48280145D01*
X22989406Y-48228487D01*
X23058306Y-48211361D01*
X23125528Y-48234203D01*
X23169729Y-48289762D01*
X23179020Y-48337250D01*
X23179020Y-55238109D01*
X23159018Y-55306230D01*
X23105362Y-55352723D01*
X23053020Y-55364109D01*
X8855750Y-55364109D01*
X8787629Y-55344107D01*
X8741136Y-55290451D01*
X8729750Y-55238109D01*
X8729750Y-52444525D01*
X8749752Y-52376404D01*
X8803408Y-52329911D01*
X8873682Y-52319807D01*
X8938262Y-52349301D01*
X8946381Y-52356993D01*
X9006390Y-52419133D01*
X9158167Y-52518453D01*
X9164771Y-52520909D01*
X9164773Y-52520910D01*
X9321566Y-52579221D01*
X9321568Y-52579221D01*
X9328176Y-52581679D01*
X9412003Y-52592864D01*
X9500988Y-52604738D01*
X9500992Y-52604738D01*
X9507969Y-52605669D01*
X9514980Y-52605031D01*
X9514984Y-52605031D01*
X9657467Y-52592063D01*
X9688608Y-52589229D01*
X9695310Y-52587051D01*
X9695312Y-52587051D01*
X9854417Y-52535355D01*
X9854420Y-52535354D01*
X9861116Y-52533178D01*
X10016920Y-52440300D01*
X10148274Y-52315213D01*
X10248651Y-52164133D01*
X10307066Y-52010356D01*
X10310563Y-52001151D01*
X10310564Y-52001149D01*
X10313063Y-51994569D01*
X10321539Y-51934258D01*
X10337756Y-51818870D01*
X10337756Y-51818867D01*
X10338307Y-51814948D01*
X10338624Y-51792231D01*
X10318405Y-51611976D01*
X10305421Y-51574691D01*
X10261072Y-51447337D01*
X10261070Y-51447334D01*
X10258753Y-51440679D01*
X10162634Y-51286855D01*
X10132401Y-51256410D01*
X10039786Y-51163146D01*
X10039782Y-51163143D01*
X10034823Y-51158149D01*
X9981385Y-51124236D01*
X9914465Y-51081768D01*
X9881674Y-51060958D01*
X9710798Y-51000112D01*
X9661015Y-50994176D01*
X9595742Y-50966249D01*
X9586838Y-50958157D01*
X9216664Y-50587982D01*
X9182639Y-50525670D01*
X9179760Y-50498887D01*
X9179760Y-48011294D01*
X9199762Y-47943173D01*
X9253418Y-47896680D01*
X9323692Y-47886576D01*
X9388272Y-47916070D01*
X9426656Y-47975796D01*
X9430766Y-47995502D01*
X9443314Y-48094830D01*
X9521620Y-48399813D01*
X9637534Y-48692577D01*
X9639436Y-48696036D01*
X9639437Y-48696039D01*
X9773770Y-48940389D01*
X9789226Y-48968504D01*
X9974305Y-49223244D01*
X10189852Y-49452778D01*
X10432468Y-49653487D01*
X10698326Y-49822206D01*
X10701905Y-49823890D01*
X10701912Y-49823894D01*
X10979644Y-49954584D01*
X10979648Y-49954586D01*
X10983234Y-49956273D01*
X11282698Y-50053575D01*
X11591996Y-50112577D01*
X11685550Y-50118463D01*
X11825608Y-50127275D01*
X11825624Y-50127276D01*
X11827603Y-50127400D01*
X11984897Y-50127400D01*
X11986876Y-50127276D01*
X11986892Y-50127275D01*
X12126950Y-50118463D01*
X12220504Y-50112577D01*
X12529802Y-50053575D01*
X12829266Y-49956273D01*
X12832852Y-49954586D01*
X12832856Y-49954584D01*
X13110588Y-49823894D01*
X13110595Y-49823890D01*
X13114174Y-49822206D01*
X13380032Y-49653487D01*
X13622648Y-49452778D01*
X13838195Y-49223244D01*
X14023274Y-48968504D01*
X14038731Y-48940389D01*
X14173060Y-48696044D01*
X14174966Y-48692577D01*
X14175495Y-48692868D01*
X14220596Y-48642005D01*
X14288941Y-48622783D01*
X14356828Y-48643563D01*
X14399536Y-48692851D01*
X14400034Y-48692577D01*
X14401940Y-48696044D01*
X14536270Y-48940389D01*
X14551726Y-48968504D01*
X14736805Y-49223244D01*
X14952352Y-49452778D01*
X15194968Y-49653487D01*
X15460826Y-49822206D01*
X15464405Y-49823890D01*
X15464412Y-49823894D01*
X15742144Y-49954584D01*
X15742148Y-49954586D01*
X15745734Y-49956273D01*
X16045198Y-50053575D01*
X16354496Y-50112577D01*
X16448050Y-50118463D01*
X16588108Y-50127275D01*
X16588124Y-50127276D01*
X16590103Y-50127400D01*
X16747397Y-50127400D01*
X16749376Y-50127276D01*
X16749392Y-50127275D01*
X16889450Y-50118463D01*
X16983004Y-50112577D01*
X17292302Y-50053575D01*
X17591766Y-49956273D01*
X17595352Y-49954586D01*
X17595356Y-49954584D01*
X17873088Y-49823894D01*
X17873095Y-49823890D01*
X17876674Y-49822206D01*
X18142532Y-49653487D01*
X18385148Y-49452778D01*
X18600695Y-49223244D01*
X18785774Y-48968504D01*
X18801231Y-48940389D01*
X18935563Y-48696039D01*
X18935564Y-48696036D01*
X18937466Y-48692577D01*
X19053380Y-48399813D01*
X19131686Y-48094830D01*
X19171150Y-47782438D01*
X19171150Y-47467562D01*
X19131686Y-47155170D01*
X19053380Y-46850187D01*
X18937466Y-46557423D01*
X18935560Y-46553956D01*
X18787683Y-46284968D01*
X18787681Y-46284965D01*
X18785774Y-46281496D01*
X18600695Y-46026756D01*
X18510542Y-45930753D01*
X18478491Y-45867403D01*
X18485778Y-45796781D01*
X18530089Y-45741310D01*
X18602392Y-45718500D01*
X18762625Y-45718500D01*
X18773808Y-45719027D01*
X18781301Y-45720702D01*
X18789227Y-45720453D01*
X18789228Y-45720453D01*
X18849378Y-45718562D01*
X18853337Y-45718500D01*
X18881248Y-45718500D01*
X18885183Y-45718003D01*
X18885248Y-45717995D01*
X18897085Y-45717062D01*
X18929343Y-45716048D01*
X18933362Y-45715922D01*
X18941281Y-45715673D01*
X18960735Y-45710021D01*
X18980092Y-45706013D01*
X18992322Y-45704468D01*
X18992323Y-45704468D01*
X19000189Y-45703474D01*
X19007560Y-45700555D01*
X19007562Y-45700555D01*
X19041304Y-45687196D01*
X19052534Y-45683351D01*
X19087375Y-45673229D01*
X19087376Y-45673229D01*
X19094985Y-45671018D01*
X19101804Y-45666985D01*
X19101809Y-45666983D01*
X19112420Y-45660707D01*
X19130168Y-45652012D01*
X19149009Y-45644552D01*
X19184779Y-45618564D01*
X19194699Y-45612048D01*
X19225927Y-45593580D01*
X19225930Y-45593578D01*
X19232754Y-45589542D01*
X19247075Y-45575221D01*
X19262109Y-45562380D01*
X19272086Y-45555131D01*
X19278499Y-45550472D01*
X19283549Y-45544368D01*
X19283554Y-45544363D01*
X19306685Y-45516402D01*
X19314675Y-45507621D01*
X20081475Y-44740822D01*
X20143787Y-44706797D01*
X20214603Y-44711862D01*
X20250882Y-44732830D01*
X20252924Y-44734519D01*
X20257816Y-44739585D01*
X20263712Y-44743443D01*
X20263713Y-44743444D01*
X20397183Y-44830784D01*
X20409593Y-44838905D01*
X20416197Y-44841361D01*
X20416199Y-44841362D01*
X20572992Y-44899673D01*
X20572994Y-44899673D01*
X20579602Y-44902131D01*
X20663429Y-44913316D01*
X20752414Y-44925190D01*
X20752418Y-44925190D01*
X20759395Y-44926121D01*
X20766406Y-44925483D01*
X20766410Y-44925483D01*
X20908893Y-44912515D01*
X20940034Y-44909681D01*
X20946736Y-44907503D01*
X20946738Y-44907503D01*
X21105843Y-44855807D01*
X21105846Y-44855806D01*
X21112542Y-44853630D01*
X21268346Y-44760752D01*
X21399700Y-44635665D01*
X21500077Y-44484585D01*
X21555954Y-44337490D01*
X21561989Y-44321603D01*
X21561990Y-44321601D01*
X21564489Y-44315021D01*
X21565537Y-44307568D01*
X21574073Y-44246828D01*
X21603361Y-44182154D01*
X21609752Y-44175269D01*
X23298421Y-42486600D01*
X23360733Y-42452574D01*
X23387516Y-42449695D01*
X24934044Y-42449695D01*
X25002165Y-42469697D01*
G37*
G04 #@! TD.AperFunction*
G04 #@! TA.AperFunction,Conductor*
G36*
X7975815Y-29190339D02*
G01*
X8015413Y-29230972D01*
X8102378Y-29374286D01*
X8105147Y-29378849D01*
X8108644Y-29382879D01*
X8195268Y-29482704D01*
X8256347Y-29553092D01*
X8260478Y-29556479D01*
X8430615Y-29695984D01*
X8430621Y-29695988D01*
X8434743Y-29699368D01*
X8591294Y-29788482D01*
X8605182Y-29796387D01*
X8654488Y-29847469D01*
X8668350Y-29917099D01*
X8642367Y-29983170D01*
X8631945Y-29994984D01*
X8037128Y-30589801D01*
X8028842Y-30597341D01*
X8022363Y-30601453D01*
X8016938Y-30607230D01*
X7975738Y-30651104D01*
X7972983Y-30653946D01*
X7953246Y-30673683D01*
X7950766Y-30676880D01*
X7943063Y-30685900D01*
X7912795Y-30718132D01*
X7908976Y-30725078D01*
X7908974Y-30725081D01*
X7903033Y-30735887D01*
X7892182Y-30752406D01*
X7879767Y-30768412D01*
X7876622Y-30775681D01*
X7876619Y-30775685D01*
X7862207Y-30808990D01*
X7856990Y-30819640D01*
X7835686Y-30858393D01*
X7833715Y-30866068D01*
X7833715Y-30866069D01*
X7830648Y-30878015D01*
X7824244Y-30896719D01*
X7816200Y-30915308D01*
X7814961Y-30923131D01*
X7814958Y-30923141D01*
X7809282Y-30958977D01*
X7806876Y-30970597D01*
X7795881Y-31013423D01*
X7795881Y-31033677D01*
X7794330Y-31053387D01*
X7791161Y-31073396D01*
X7791907Y-31081288D01*
X7795322Y-31117414D01*
X7795881Y-31129272D01*
X7795881Y-33009361D01*
X7775879Y-33077482D01*
X7722223Y-33123975D01*
X7651949Y-33134079D01*
X7623274Y-33125752D01*
X7623171Y-33126044D01*
X7417469Y-33053201D01*
X7417465Y-33053200D01*
X7412594Y-33051475D01*
X7407501Y-33050568D01*
X7407498Y-33050567D01*
X7197755Y-33013206D01*
X7197749Y-33013205D01*
X7192666Y-33012300D01*
X7118834Y-33011398D01*
X6974463Y-33009634D01*
X6974461Y-33009634D01*
X6969293Y-33009571D01*
X6748473Y-33043361D01*
X6536138Y-33112763D01*
X6337989Y-33215913D01*
X6333856Y-33219016D01*
X6333853Y-33219018D01*
X6163482Y-33346936D01*
X6159347Y-33350041D01*
X6005011Y-33511544D01*
X5879125Y-33696086D01*
X5785070Y-33898711D01*
X5725371Y-34113976D01*
X5701633Y-34336101D01*
X5701930Y-34341254D01*
X5701930Y-34341257D01*
X5707088Y-34430716D01*
X5714492Y-34559121D01*
X5715629Y-34564167D01*
X5715630Y-34564173D01*
X5737139Y-34659614D01*
X5763604Y-34777045D01*
X5815934Y-34905920D01*
X5830314Y-34941332D01*
X5847648Y-34984022D01*
X5964369Y-35174494D01*
X6110632Y-35343344D01*
X6282508Y-35486038D01*
X6334472Y-35516403D01*
X6355827Y-35528882D01*
X6404551Y-35580520D01*
X6417622Y-35650303D01*
X6390891Y-35716075D01*
X6350437Y-35749433D01*
X6337989Y-35755913D01*
X6333856Y-35759016D01*
X6333853Y-35759018D01*
X6209949Y-35852048D01*
X6159347Y-35890041D01*
X6005011Y-36051544D01*
X6002097Y-36055816D01*
X6002096Y-36055817D01*
X5989859Y-36073756D01*
X5934948Y-36118759D01*
X5864423Y-36126930D01*
X5800676Y-36095676D01*
X5778338Y-36068586D01*
X5751144Y-36024209D01*
X5751140Y-36024204D01*
X5748558Y-36019990D01*
X5594351Y-35839437D01*
X5413798Y-35685230D01*
X5409590Y-35682651D01*
X5409584Y-35682647D01*
X5215565Y-35563752D01*
X5211345Y-35561166D01*
X5206775Y-35559273D01*
X5206771Y-35559271D01*
X4996549Y-35472195D01*
X4996547Y-35472194D01*
X4991976Y-35470301D01*
X4911773Y-35451046D01*
X4765906Y-35416026D01*
X4765900Y-35416025D01*
X4761093Y-35414871D01*
X4524382Y-35396241D01*
X4287671Y-35414871D01*
X4282864Y-35416025D01*
X4282858Y-35416026D01*
X4136991Y-35451046D01*
X4056788Y-35470301D01*
X4052217Y-35472194D01*
X4052215Y-35472195D01*
X3841993Y-35559271D01*
X3841989Y-35559273D01*
X3837419Y-35561166D01*
X3833199Y-35563752D01*
X3639180Y-35682647D01*
X3639174Y-35682651D01*
X3634966Y-35685230D01*
X3454413Y-35839437D01*
X3300206Y-36019990D01*
X3297627Y-36024198D01*
X3297623Y-36024204D01*
X3180578Y-36215204D01*
X3176142Y-36222443D01*
X3174249Y-36227013D01*
X3174247Y-36227017D01*
X3087247Y-36437056D01*
X3085277Y-36441812D01*
X3075898Y-36480879D01*
X3033749Y-36656444D01*
X3029847Y-36672695D01*
X3011217Y-36909406D01*
X3029847Y-37146117D01*
X3031001Y-37150924D01*
X3031002Y-37150930D01*
X3048050Y-37221940D01*
X3085277Y-37377000D01*
X3087170Y-37381571D01*
X3087171Y-37381573D01*
X3168334Y-37577518D01*
X3176142Y-37596369D01*
X3178728Y-37600589D01*
X3297623Y-37794608D01*
X3297627Y-37794614D01*
X3300206Y-37798822D01*
X3454413Y-37979375D01*
X3634966Y-38133582D01*
X3639174Y-38136161D01*
X3639180Y-38136165D01*
X3833199Y-38255060D01*
X3837419Y-38257646D01*
X3841989Y-38259539D01*
X3841993Y-38259541D01*
X4052215Y-38346617D01*
X4056788Y-38348511D01*
X4136991Y-38367766D01*
X4282858Y-38402786D01*
X4282864Y-38402787D01*
X4287671Y-38403941D01*
X4524382Y-38422571D01*
X4761093Y-38403941D01*
X4765900Y-38402787D01*
X4765906Y-38402786D01*
X4911773Y-38367766D01*
X4991976Y-38348511D01*
X4996549Y-38346617D01*
X5206771Y-38259541D01*
X5206775Y-38259539D01*
X5211345Y-38257646D01*
X5215565Y-38255060D01*
X5409584Y-38136165D01*
X5409590Y-38136161D01*
X5413798Y-38133582D01*
X5594351Y-37979375D01*
X5748558Y-37798822D01*
X5771126Y-37761995D01*
X5778289Y-37750307D01*
X5830937Y-37702676D01*
X5900978Y-37691070D01*
X5966176Y-37719174D01*
X5980958Y-37733645D01*
X6107247Y-37879437D01*
X6107251Y-37879441D01*
X6110632Y-37883344D01*
X6282508Y-38026038D01*
X6334472Y-38056403D01*
X6356337Y-38069180D01*
X6405061Y-38120818D01*
X6418132Y-38190601D01*
X6391401Y-38256373D01*
X6350944Y-38289733D01*
X6342839Y-38293952D01*
X6334120Y-38299442D01*
X6163815Y-38427311D01*
X6156108Y-38434154D01*
X6008972Y-38588123D01*
X6002486Y-38596133D01*
X5882480Y-38772055D01*
X5877382Y-38781029D01*
X5787720Y-38974189D01*
X5784157Y-38983876D01*
X5728771Y-39183589D01*
X5730294Y-39192013D01*
X5742674Y-39195406D01*
X7192382Y-39195406D01*
X7260503Y-39215408D01*
X7306996Y-39269064D01*
X7318382Y-39321406D01*
X7318382Y-40767923D01*
X7322446Y-40781765D01*
X7335860Y-40783799D01*
X7342566Y-40782940D01*
X7352644Y-40780798D01*
X7556637Y-40719597D01*
X7566219Y-40715841D01*
X7614449Y-40692214D01*
X7684423Y-40680208D01*
X7749780Y-40707939D01*
X7789770Y-40766602D01*
X7795881Y-40805366D01*
X7795881Y-43359354D01*
X7775879Y-43427475D01*
X7722223Y-43473968D01*
X7699294Y-43481873D01*
X7610309Y-43503236D01*
X7584330Y-43509473D01*
X7579759Y-43511366D01*
X7579757Y-43511367D01*
X7348738Y-43607058D01*
X7348736Y-43607059D01*
X7344166Y-43608952D01*
X7122521Y-43744777D01*
X6924852Y-43913602D01*
X6756027Y-44111271D01*
X6620202Y-44332916D01*
X6618309Y-44337486D01*
X6618308Y-44337488D01*
X6533043Y-44543336D01*
X6520723Y-44573080D01*
X6512740Y-44606333D01*
X6461266Y-44820740D01*
X6460039Y-44825850D01*
X6439643Y-45085000D01*
X6460039Y-45344150D01*
X6461193Y-45348957D01*
X6461194Y-45348963D01*
X6480120Y-45427794D01*
X6520723Y-45596920D01*
X6522616Y-45601491D01*
X6522617Y-45601493D01*
X6603691Y-45797222D01*
X6620202Y-45837084D01*
X6756027Y-46058729D01*
X6762209Y-46065967D01*
X6791239Y-46130755D01*
X6780634Y-46200955D01*
X6733759Y-46254278D01*
X6677051Y-46273345D01*
X6649586Y-46275675D01*
X6601688Y-46279739D01*
X6601684Y-46279740D01*
X6596377Y-46280190D01*
X6591222Y-46281528D01*
X6591216Y-46281529D01*
X6378247Y-46336805D01*
X6378243Y-46336806D01*
X6373078Y-46338147D01*
X6368212Y-46340339D01*
X6368209Y-46340340D01*
X6244271Y-46396170D01*
X6162735Y-46432899D01*
X6158315Y-46435875D01*
X6158311Y-46435877D01*
X6145799Y-46444301D01*
X5971365Y-46561738D01*
X5804438Y-46720978D01*
X5801250Y-46725263D01*
X5711035Y-46846517D01*
X5666729Y-46906066D01*
X5664314Y-46910816D01*
X5609627Y-47018378D01*
X5562173Y-47111712D01*
X5549871Y-47151331D01*
X5495345Y-47326930D01*
X5495344Y-47326936D01*
X5493761Y-47332033D01*
X5493060Y-47337325D01*
X5464484Y-47552934D01*
X5463450Y-47560732D01*
X5463650Y-47566062D01*
X5463650Y-47566063D01*
X5466690Y-47647054D01*
X5472104Y-47791268D01*
X5519478Y-48017050D01*
X5521436Y-48022009D01*
X5521437Y-48022011D01*
X5550195Y-48094830D01*
X5604217Y-48231622D01*
X5723897Y-48428849D01*
X5727394Y-48432879D01*
X5814018Y-48532704D01*
X5875097Y-48603092D01*
X5879228Y-48606479D01*
X6049365Y-48745984D01*
X6049371Y-48745988D01*
X6053493Y-48749368D01*
X6253985Y-48863494D01*
X6259001Y-48865315D01*
X6259006Y-48865317D01*
X6465825Y-48940389D01*
X6465829Y-48940390D01*
X6470840Y-48942209D01*
X6476089Y-48943158D01*
X6476092Y-48943159D01*
X6693773Y-48982522D01*
X6693780Y-48982523D01*
X6697857Y-48983260D01*
X6715594Y-48984096D01*
X6720542Y-48984330D01*
X6720549Y-48984330D01*
X6722030Y-48984400D01*
X6884175Y-48984400D01*
X6953143Y-48978548D01*
X7050812Y-48970261D01*
X7050816Y-48970260D01*
X7056123Y-48969810D01*
X7061278Y-48968472D01*
X7061284Y-48968471D01*
X7274253Y-48913195D01*
X7274257Y-48913194D01*
X7279422Y-48911853D01*
X7284997Y-48909342D01*
X7285322Y-48909297D01*
X7289319Y-48907889D01*
X7289606Y-48908703D01*
X7355319Y-48899598D01*
X7419748Y-48929421D01*
X7457826Y-48989342D01*
X7462750Y-49024222D01*
X7462750Y-55238109D01*
X7442748Y-55306230D01*
X7389092Y-55352723D01*
X7336750Y-55364109D01*
X1159008Y-55364109D01*
X1090887Y-55344107D01*
X1044394Y-55290451D01*
X1033008Y-55238109D01*
X1033008Y-39717372D01*
X5732639Y-39717372D01*
X5762947Y-39851852D01*
X5766027Y-39861681D01*
X5846152Y-40059009D01*
X5850795Y-40068200D01*
X5962076Y-40249794D01*
X5968159Y-40258105D01*
X6107595Y-40419073D01*
X6114962Y-40426289D01*
X6278816Y-40562322D01*
X6287263Y-40568237D01*
X6471138Y-40675685D01*
X6480424Y-40680135D01*
X6679383Y-40756109D01*
X6689281Y-40758985D01*
X6792632Y-40780012D01*
X6806681Y-40778816D01*
X6810382Y-40768471D01*
X6810382Y-39721521D01*
X6805907Y-39706282D01*
X6804517Y-39705077D01*
X6796834Y-39703406D01*
X5747607Y-39703406D01*
X5734076Y-39707379D01*
X5732639Y-39717372D01*
X1033008Y-39717372D01*
X1033008Y-29296337D01*
X1053010Y-29228216D01*
X1106666Y-29181723D01*
X1159008Y-29170337D01*
X7907694Y-29170337D01*
X7975815Y-29190339D01*
G37*
G04 #@! TD.AperFunction*
G04 #@! TA.AperFunction,Conductor*
G36*
X31788315Y-29190339D02*
G01*
X31827913Y-29230972D01*
X31914878Y-29374286D01*
X31917647Y-29378849D01*
X31921144Y-29382879D01*
X32007768Y-29482704D01*
X32068847Y-29553092D01*
X32072978Y-29556479D01*
X32243115Y-29695984D01*
X32243121Y-29695988D01*
X32247243Y-29699368D01*
X32447735Y-29813494D01*
X32452751Y-29815315D01*
X32452756Y-29815317D01*
X32659575Y-29890389D01*
X32659579Y-29890390D01*
X32664590Y-29892209D01*
X32669839Y-29893158D01*
X32669842Y-29893159D01*
X32887523Y-29932522D01*
X32887530Y-29932523D01*
X32891607Y-29933260D01*
X32909344Y-29934096D01*
X32914292Y-29934330D01*
X32914299Y-29934330D01*
X32915780Y-29934400D01*
X33077925Y-29934400D01*
X33144881Y-29928719D01*
X33244562Y-29920261D01*
X33244566Y-29920260D01*
X33249873Y-29919810D01*
X33255028Y-29918472D01*
X33255034Y-29918471D01*
X33468003Y-29863195D01*
X33468007Y-29863194D01*
X33473172Y-29861853D01*
X33478038Y-29859661D01*
X33478041Y-29859660D01*
X33678649Y-29769293D01*
X33683515Y-29767101D01*
X33687935Y-29764125D01*
X33687939Y-29764123D01*
X33805779Y-29684787D01*
X33874885Y-29638262D01*
X34041812Y-29479022D01*
X34119738Y-29374286D01*
X34176337Y-29298214D01*
X34176339Y-29298211D01*
X34179521Y-29293934D01*
X34207333Y-29239232D01*
X34256036Y-29187574D01*
X34319650Y-29170337D01*
X35571553Y-29170337D01*
X35639674Y-29190339D01*
X35686167Y-29243995D01*
X35693593Y-29264999D01*
X35715370Y-29349813D01*
X35831284Y-29642577D01*
X35833186Y-29646036D01*
X35833187Y-29646039D01*
X35967520Y-29890389D01*
X35982976Y-29918504D01*
X36168055Y-30173244D01*
X36383602Y-30402778D01*
X36626218Y-30603487D01*
X36892076Y-30772206D01*
X36895655Y-30773890D01*
X36895662Y-30773894D01*
X37173394Y-30904584D01*
X37173398Y-30904586D01*
X37176984Y-30906273D01*
X37180756Y-30907499D01*
X37180757Y-30907499D01*
X37204791Y-30915308D01*
X37476448Y-31003575D01*
X37785746Y-31062577D01*
X37879300Y-31068463D01*
X38019358Y-31077275D01*
X38019374Y-31077276D01*
X38021353Y-31077400D01*
X38178647Y-31077400D01*
X38180626Y-31077276D01*
X38180642Y-31077275D01*
X38320700Y-31068463D01*
X38414254Y-31062577D01*
X38723552Y-31003575D01*
X38995209Y-30915308D01*
X39019243Y-30907499D01*
X39019244Y-30907499D01*
X39023016Y-30906273D01*
X39026602Y-30904586D01*
X39026606Y-30904584D01*
X39304338Y-30773894D01*
X39304345Y-30773890D01*
X39307924Y-30772206D01*
X39573782Y-30603487D01*
X39816398Y-30402778D01*
X40031945Y-30173244D01*
X40217024Y-29918504D01*
X40232481Y-29890389D01*
X40366813Y-29646039D01*
X40366814Y-29646036D01*
X40368716Y-29642577D01*
X40484630Y-29349813D01*
X40506406Y-29265002D01*
X40542719Y-29203997D01*
X40606251Y-29172307D01*
X40628447Y-29170337D01*
X40912410Y-29170337D01*
X40980531Y-29190339D01*
X41027024Y-29243995D01*
X41038410Y-29296337D01*
X41038410Y-36843905D01*
X41018408Y-36912026D01*
X40964752Y-36958519D01*
X40925583Y-36969215D01*
X40908884Y-36970970D01*
X40908881Y-36970971D01*
X40901885Y-36971706D01*
X40730176Y-37030160D01*
X40681376Y-37060182D01*
X40581692Y-37121508D01*
X40581689Y-37121510D01*
X40575685Y-37125204D01*
X40570650Y-37130135D01*
X40570647Y-37130137D01*
X40467849Y-37230805D01*
X40446090Y-37252113D01*
X40347832Y-37404580D01*
X40345423Y-37411200D01*
X40345421Y-37411203D01*
X40294129Y-37552127D01*
X40285794Y-37575027D01*
X40263060Y-37754982D01*
X40280760Y-37935502D01*
X40338015Y-38107615D01*
X40341662Y-38113637D01*
X40341663Y-38113639D01*
X40424873Y-38251036D01*
X40443097Y-38316307D01*
X40443097Y-42746308D01*
X40423095Y-42814429D01*
X40406192Y-42835403D01*
X39742535Y-43499060D01*
X39680223Y-43533086D01*
X39605223Y-43526374D01*
X39564420Y-43509473D01*
X39460349Y-43484488D01*
X39316463Y-43449944D01*
X39316457Y-43449943D01*
X39311650Y-43448789D01*
X39052500Y-43428393D01*
X39047570Y-43428781D01*
X39047560Y-43428781D01*
X39033104Y-43429919D01*
X38963624Y-43415325D01*
X38913063Y-43365483D01*
X38898001Y-43318354D01*
X38894214Y-43284592D01*
X38893429Y-43277594D01*
X38889648Y-43266736D01*
X38836096Y-43112955D01*
X38836094Y-43112952D01*
X38833777Y-43106297D01*
X38783035Y-43025092D01*
X38741391Y-42958447D01*
X38737658Y-42952473D01*
X38717969Y-42932646D01*
X38614810Y-42828764D01*
X38614806Y-42828761D01*
X38609847Y-42823767D01*
X38598729Y-42816711D01*
X38506162Y-42757967D01*
X38456698Y-42726576D01*
X38420726Y-42713767D01*
X38292457Y-42668092D01*
X38292452Y-42668091D01*
X38285822Y-42665730D01*
X38278834Y-42664897D01*
X38278831Y-42664896D01*
X38155730Y-42650217D01*
X38105712Y-42644253D01*
X38098709Y-42644989D01*
X38098708Y-42644989D01*
X37932320Y-42662477D01*
X37932318Y-42662478D01*
X37925320Y-42663213D01*
X37753611Y-42721667D01*
X37713558Y-42746308D01*
X37605127Y-42813015D01*
X37605124Y-42813017D01*
X37599120Y-42816711D01*
X37594085Y-42821642D01*
X37594082Y-42821644D01*
X37485491Y-42927985D01*
X37469525Y-42943620D01*
X37371267Y-43096087D01*
X37368858Y-43102707D01*
X37368856Y-43102710D01*
X37326903Y-43217974D01*
X37309229Y-43266534D01*
X37286495Y-43446489D01*
X37304195Y-43627009D01*
X37361450Y-43799122D01*
X37365097Y-43805144D01*
X37365098Y-43805146D01*
X37446096Y-43938890D01*
X37455412Y-43954273D01*
X37581414Y-44084751D01*
X37587311Y-44088610D01*
X37592735Y-44093097D01*
X37591241Y-44094904D01*
X37630118Y-44140525D01*
X37639642Y-44210880D01*
X37622510Y-44257756D01*
X37587418Y-44315021D01*
X37576452Y-44332916D01*
X37574559Y-44337486D01*
X37574557Y-44337490D01*
X37489293Y-44543336D01*
X37476973Y-44573080D01*
X37468990Y-44606333D01*
X37417516Y-44820740D01*
X37416289Y-44825850D01*
X37395893Y-45085000D01*
X37416289Y-45344150D01*
X37417443Y-45348957D01*
X37417444Y-45348963D01*
X37436370Y-45427794D01*
X37476973Y-45596920D01*
X37478866Y-45601491D01*
X37478867Y-45601493D01*
X37559941Y-45797222D01*
X37576452Y-45837084D01*
X37712277Y-46058729D01*
X37718459Y-46065967D01*
X37747489Y-46130755D01*
X37736884Y-46200955D01*
X37690009Y-46254278D01*
X37633301Y-46273345D01*
X37605836Y-46275675D01*
X37557938Y-46279739D01*
X37557934Y-46279740D01*
X37552627Y-46280190D01*
X37547472Y-46281528D01*
X37547466Y-46281529D01*
X37334497Y-46336805D01*
X37334493Y-46336806D01*
X37329328Y-46338147D01*
X37324462Y-46340339D01*
X37324459Y-46340340D01*
X37200521Y-46396170D01*
X37118985Y-46432899D01*
X37114565Y-46435875D01*
X37114561Y-46435877D01*
X37102049Y-46444301D01*
X36927615Y-46561738D01*
X36760688Y-46720978D01*
X36757500Y-46725263D01*
X36667285Y-46846517D01*
X36622979Y-46906066D01*
X36620564Y-46910816D01*
X36565877Y-47018378D01*
X36518423Y-47111712D01*
X36506121Y-47151331D01*
X36451595Y-47326930D01*
X36451594Y-47326936D01*
X36450011Y-47332033D01*
X36449310Y-47337325D01*
X36420734Y-47552934D01*
X36419700Y-47560732D01*
X36419900Y-47566062D01*
X36419900Y-47566063D01*
X36422940Y-47647054D01*
X36428354Y-47791268D01*
X36475728Y-48017050D01*
X36477686Y-48022009D01*
X36477687Y-48022011D01*
X36506445Y-48094830D01*
X36560467Y-48231622D01*
X36680147Y-48428849D01*
X36683644Y-48432879D01*
X36770268Y-48532704D01*
X36831347Y-48603092D01*
X36835478Y-48606479D01*
X37005615Y-48745984D01*
X37005621Y-48745988D01*
X37009743Y-48749368D01*
X37210235Y-48863494D01*
X37215251Y-48865315D01*
X37215256Y-48865317D01*
X37422075Y-48940389D01*
X37422079Y-48940390D01*
X37427090Y-48942209D01*
X37432339Y-48943158D01*
X37432342Y-48943159D01*
X37650023Y-48982522D01*
X37650030Y-48982523D01*
X37654107Y-48983260D01*
X37671844Y-48984096D01*
X37676792Y-48984330D01*
X37676799Y-48984330D01*
X37678280Y-48984400D01*
X37840425Y-48984400D01*
X37909393Y-48978548D01*
X38007062Y-48970261D01*
X38007066Y-48970260D01*
X38012373Y-48969810D01*
X38017528Y-48968472D01*
X38017534Y-48968471D01*
X38230503Y-48913195D01*
X38230507Y-48913194D01*
X38235672Y-48911853D01*
X38241247Y-48909342D01*
X38241572Y-48909297D01*
X38245569Y-48907889D01*
X38245856Y-48908703D01*
X38311569Y-48899598D01*
X38375998Y-48929421D01*
X38414076Y-48989342D01*
X38419000Y-49024222D01*
X38419000Y-50525168D01*
X38398998Y-50593289D01*
X38382095Y-50614263D01*
X33669154Y-55327204D01*
X33606842Y-55361230D01*
X33580059Y-55364109D01*
X25472040Y-55364109D01*
X25403919Y-55344107D01*
X25357426Y-55290451D01*
X25346040Y-55238109D01*
X25346040Y-46444301D01*
X25366042Y-46376180D01*
X25382945Y-46355206D01*
X27580209Y-44157942D01*
X27642521Y-44123916D01*
X27669304Y-44121037D01*
X32836799Y-44121037D01*
X32905792Y-44141605D01*
X32936637Y-44161789D01*
X32970687Y-44184071D01*
X32977291Y-44186527D01*
X32977293Y-44186528D01*
X33134086Y-44244839D01*
X33134088Y-44244839D01*
X33140696Y-44247297D01*
X33219081Y-44257756D01*
X33313508Y-44270356D01*
X33313512Y-44270356D01*
X33320489Y-44271287D01*
X33327500Y-44270649D01*
X33327504Y-44270649D01*
X33469987Y-44257681D01*
X33501128Y-44254847D01*
X33507830Y-44252669D01*
X33507832Y-44252669D01*
X33666937Y-44200973D01*
X33666940Y-44200972D01*
X33673636Y-44198796D01*
X33804078Y-44121037D01*
X33823388Y-44109526D01*
X33823390Y-44109525D01*
X33829440Y-44105918D01*
X33960794Y-43980831D01*
X34061171Y-43829751D01*
X34125583Y-43660187D01*
X34126563Y-43653215D01*
X34150276Y-43484488D01*
X34150276Y-43484485D01*
X34150827Y-43480566D01*
X34151144Y-43457849D01*
X34130925Y-43277594D01*
X34127144Y-43266736D01*
X34073592Y-43112955D01*
X34073590Y-43112952D01*
X34071273Y-43106297D01*
X34020531Y-43025092D01*
X33978887Y-42958447D01*
X33975154Y-42952473D01*
X33955465Y-42932646D01*
X33852306Y-42828764D01*
X33852302Y-42828761D01*
X33847343Y-42823767D01*
X33836225Y-42816711D01*
X33743658Y-42757967D01*
X33694194Y-42726576D01*
X33603816Y-42694394D01*
X33546352Y-42652700D01*
X33520552Y-42586557D01*
X33534607Y-42516966D01*
X33584055Y-42466020D01*
X33646083Y-42449695D01*
X34245639Y-42449695D01*
X34313760Y-42469697D01*
X34360253Y-42523353D01*
X34371038Y-42563399D01*
X34387715Y-42733489D01*
X34400218Y-42771074D01*
X34418610Y-42826362D01*
X34425052Y-42866134D01*
X34425052Y-43983897D01*
X34405050Y-44052018D01*
X34388147Y-44072992D01*
X31062678Y-47398461D01*
X31048266Y-47410847D01*
X31036671Y-47419380D01*
X31036666Y-47419385D01*
X31030771Y-47423723D01*
X31026032Y-47429301D01*
X31026029Y-47429304D01*
X30996554Y-47463999D01*
X30989624Y-47471515D01*
X30983929Y-47477210D01*
X30981649Y-47480092D01*
X30966308Y-47499482D01*
X30963517Y-47502886D01*
X30920998Y-47552934D01*
X30916256Y-47558516D01*
X30912928Y-47565032D01*
X30909561Y-47570081D01*
X30906394Y-47575210D01*
X30901855Y-47580947D01*
X30870934Y-47647106D01*
X30869031Y-47651000D01*
X30835820Y-47716039D01*
X30834081Y-47723147D01*
X30831982Y-47728790D01*
X30830065Y-47734553D01*
X30826967Y-47741181D01*
X30825477Y-47748343D01*
X30825477Y-47748344D01*
X30812103Y-47812643D01*
X30811133Y-47816927D01*
X30793781Y-47887841D01*
X30793089Y-47898995D01*
X30793053Y-47898993D01*
X30792814Y-47902986D01*
X30792440Y-47907178D01*
X30790949Y-47914346D01*
X30791147Y-47921663D01*
X30793043Y-47991752D01*
X30793089Y-47995159D01*
X30793089Y-50894635D01*
X30785490Y-50937730D01*
X30760786Y-51005603D01*
X30738052Y-51185558D01*
X30755752Y-51366078D01*
X30813007Y-51538191D01*
X30816654Y-51544213D01*
X30816655Y-51544215D01*
X30853663Y-51605322D01*
X30906969Y-51693342D01*
X31032971Y-51823820D01*
X31184748Y-51923140D01*
X31191352Y-51925596D01*
X31191354Y-51925597D01*
X31348147Y-51983908D01*
X31348149Y-51983908D01*
X31354757Y-51986366D01*
X31438584Y-51997551D01*
X31527569Y-52009425D01*
X31527573Y-52009425D01*
X31534550Y-52010356D01*
X31541561Y-52009718D01*
X31541565Y-52009718D01*
X31684048Y-51996750D01*
X31715189Y-51993916D01*
X31721891Y-51991738D01*
X31721893Y-51991738D01*
X31880998Y-51940042D01*
X31881001Y-51940041D01*
X31887697Y-51937865D01*
X32043501Y-51844987D01*
X32174855Y-51719900D01*
X32275232Y-51568820D01*
X32339644Y-51399256D01*
X32340624Y-51392284D01*
X32364337Y-51223557D01*
X32364337Y-51223554D01*
X32364888Y-51219635D01*
X32365205Y-51196918D01*
X32344986Y-51016663D01*
X32341135Y-51005603D01*
X32317098Y-50936580D01*
X32310089Y-50895143D01*
X32310089Y-48348602D01*
X32330091Y-48280481D01*
X32346994Y-48259507D01*
X35349503Y-45256998D01*
X35411815Y-45222972D01*
X35482630Y-45228037D01*
X35539466Y-45270584D01*
X35564277Y-45337104D01*
X35563604Y-45361881D01*
X35544344Y-45514338D01*
X35562044Y-45694858D01*
X35619299Y-45866971D01*
X35622946Y-45872993D01*
X35622947Y-45872995D01*
X35633859Y-45891012D01*
X35713261Y-46022122D01*
X35839263Y-46152600D01*
X35991040Y-46251920D01*
X35997644Y-46254376D01*
X35997646Y-46254377D01*
X36154439Y-46312688D01*
X36154441Y-46312688D01*
X36161049Y-46315146D01*
X36244876Y-46326331D01*
X36333861Y-46338205D01*
X36333865Y-46338205D01*
X36340842Y-46339136D01*
X36347853Y-46338498D01*
X36347857Y-46338498D01*
X36490340Y-46325530D01*
X36521481Y-46322696D01*
X36528183Y-46320518D01*
X36528185Y-46320518D01*
X36687290Y-46268822D01*
X36687293Y-46268821D01*
X36693989Y-46266645D01*
X36849793Y-46173767D01*
X36981147Y-46048680D01*
X37081524Y-45897600D01*
X37141011Y-45741001D01*
X37143436Y-45734618D01*
X37143437Y-45734616D01*
X37145936Y-45728036D01*
X37147198Y-45719059D01*
X37170629Y-45552337D01*
X37170629Y-45552334D01*
X37171180Y-45548415D01*
X37171497Y-45525698D01*
X37151278Y-45345443D01*
X37148374Y-45337104D01*
X37093945Y-45180804D01*
X37093943Y-45180801D01*
X37091626Y-45174146D01*
X37057882Y-45120144D01*
X37010527Y-45044359D01*
X36991381Y-44977590D01*
X36991381Y-42892423D01*
X36991908Y-42881240D01*
X36993583Y-42873747D01*
X36991443Y-42805656D01*
X36991381Y-42801699D01*
X36991381Y-42773800D01*
X36990877Y-42769809D01*
X36989944Y-42757967D01*
X36988958Y-42726576D01*
X36988555Y-42713767D01*
X36986343Y-42706153D01*
X36986342Y-42706148D01*
X36982904Y-42694315D01*
X36978893Y-42674951D01*
X36977348Y-42662720D01*
X36976355Y-42654859D01*
X36973438Y-42647492D01*
X36973437Y-42647487D01*
X36960079Y-42613748D01*
X36956235Y-42602521D01*
X36953651Y-42593627D01*
X36943899Y-42560063D01*
X36933588Y-42542628D01*
X36924893Y-42524880D01*
X36917433Y-42506039D01*
X36891445Y-42470269D01*
X36884929Y-42460349D01*
X36866461Y-42429121D01*
X36866459Y-42429118D01*
X36862423Y-42422294D01*
X36848102Y-42407973D01*
X36835261Y-42392939D01*
X36828012Y-42382962D01*
X36823353Y-42376549D01*
X36817249Y-42371499D01*
X36817244Y-42371494D01*
X36789283Y-42348363D01*
X36780502Y-42340373D01*
X35864067Y-41423937D01*
X35856533Y-41415658D01*
X35852420Y-41409177D01*
X35802768Y-41362551D01*
X35799927Y-41359797D01*
X35780190Y-41340060D01*
X35776993Y-41337580D01*
X35767971Y-41329875D01*
X35741520Y-41305036D01*
X35735741Y-41299609D01*
X35728795Y-41295790D01*
X35728792Y-41295788D01*
X35717986Y-41289847D01*
X35701467Y-41278996D01*
X35701003Y-41278636D01*
X35685461Y-41266581D01*
X35678192Y-41263436D01*
X35678188Y-41263433D01*
X35644883Y-41249021D01*
X35634233Y-41243804D01*
X35595480Y-41222500D01*
X35575857Y-41217462D01*
X35557154Y-41211058D01*
X35545840Y-41206162D01*
X35545839Y-41206162D01*
X35538565Y-41203014D01*
X35530742Y-41201775D01*
X35530732Y-41201772D01*
X35494896Y-41196096D01*
X35483276Y-41193690D01*
X35448131Y-41184667D01*
X35448130Y-41184667D01*
X35440450Y-41182695D01*
X35420196Y-41182695D01*
X35400485Y-41181144D01*
X35388306Y-41179215D01*
X35380477Y-41177975D01*
X35372585Y-41178721D01*
X35336459Y-41182136D01*
X35324601Y-41182695D01*
X34448578Y-41182695D01*
X34380457Y-41162693D01*
X34333964Y-41109037D01*
X34323860Y-41038763D01*
X34353354Y-40974183D01*
X34412551Y-40936139D01*
X34413652Y-40936039D01*
X34493965Y-40909944D01*
X34579461Y-40882165D01*
X34579464Y-40882164D01*
X34586160Y-40879988D01*
X34709214Y-40806633D01*
X34735912Y-40790718D01*
X34735914Y-40790717D01*
X34741964Y-40787110D01*
X34873318Y-40662023D01*
X34973695Y-40510943D01*
X35015475Y-40400958D01*
X35035607Y-40347961D01*
X35035608Y-40347959D01*
X35038107Y-40341379D01*
X35042804Y-40307957D01*
X35062800Y-40165680D01*
X35062800Y-40165677D01*
X35063351Y-40161758D01*
X35063668Y-40139041D01*
X35043449Y-39958786D01*
X35034310Y-39932543D01*
X34986116Y-39794147D01*
X34986114Y-39794144D01*
X34983797Y-39787489D01*
X34942576Y-39721521D01*
X34891411Y-39639639D01*
X34887678Y-39633665D01*
X34795734Y-39541077D01*
X34764830Y-39509956D01*
X34764826Y-39509953D01*
X34759867Y-39504959D01*
X34740995Y-39492982D01*
X34700590Y-39467341D01*
X34606718Y-39407768D01*
X34547184Y-39386569D01*
X34442477Y-39349284D01*
X34442472Y-39349283D01*
X34435842Y-39346922D01*
X34428854Y-39346089D01*
X34428851Y-39346088D01*
X34305750Y-39331409D01*
X34255732Y-39325445D01*
X34248729Y-39326181D01*
X34248728Y-39326181D01*
X34082340Y-39343669D01*
X34082338Y-39343670D01*
X34075340Y-39344405D01*
X34068676Y-39346674D01*
X34068674Y-39346674D01*
X34053861Y-39351717D01*
X33982928Y-39354736D01*
X33921624Y-39318927D01*
X33889412Y-39255659D01*
X33887254Y-39232440D01*
X33887254Y-35217960D01*
X33895466Y-35173216D01*
X33914309Y-35123613D01*
X33914310Y-35123611D01*
X33916809Y-35117031D01*
X33921472Y-35083853D01*
X33941502Y-34941332D01*
X33941502Y-34941329D01*
X33942053Y-34937410D01*
X33942370Y-34914693D01*
X33922151Y-34734438D01*
X33919834Y-34727784D01*
X33864818Y-34569799D01*
X33864816Y-34569796D01*
X33862499Y-34563141D01*
X33852416Y-34547005D01*
X33770113Y-34415291D01*
X33766380Y-34409317D01*
X33757589Y-34400464D01*
X33643532Y-34285608D01*
X33643528Y-34285605D01*
X33638569Y-34280611D01*
X33627451Y-34273555D01*
X33573536Y-34239340D01*
X33485420Y-34183420D01*
X33456217Y-34173021D01*
X33321179Y-34124936D01*
X33321174Y-34124935D01*
X33314544Y-34122574D01*
X33307556Y-34121741D01*
X33307553Y-34121740D01*
X33184452Y-34107061D01*
X33134434Y-34101097D01*
X33127431Y-34101833D01*
X33127430Y-34101833D01*
X32961042Y-34119321D01*
X32961040Y-34119322D01*
X32954042Y-34120057D01*
X32782333Y-34178511D01*
X32646664Y-34261976D01*
X32578164Y-34280634D01*
X32510450Y-34259295D01*
X32465022Y-34204736D01*
X32456302Y-34134277D01*
X32491548Y-34065563D01*
X33614804Y-32942307D01*
X33677116Y-32908281D01*
X33703899Y-32905402D01*
X38392627Y-32905402D01*
X38436547Y-32913305D01*
X38491903Y-32933892D01*
X38491905Y-32933893D01*
X38498513Y-32936350D01*
X38582340Y-32947535D01*
X38671325Y-32959409D01*
X38671329Y-32959409D01*
X38678306Y-32960340D01*
X38685317Y-32959702D01*
X38685321Y-32959702D01*
X38827804Y-32946734D01*
X38858945Y-32943900D01*
X38865647Y-32941722D01*
X38865649Y-32941722D01*
X39024754Y-32890026D01*
X39024757Y-32890025D01*
X39031453Y-32887849D01*
X39187257Y-32794971D01*
X39318611Y-32669884D01*
X39418988Y-32518804D01*
X39483400Y-32349240D01*
X39484380Y-32342268D01*
X39508093Y-32173541D01*
X39508093Y-32173538D01*
X39508644Y-32169619D01*
X39508961Y-32146902D01*
X39488742Y-31966647D01*
X39481996Y-31947276D01*
X39431409Y-31802008D01*
X39431407Y-31802005D01*
X39429090Y-31795350D01*
X39411553Y-31767284D01*
X39336704Y-31647500D01*
X39332971Y-31641526D01*
X39324109Y-31632602D01*
X39210123Y-31517817D01*
X39210119Y-31517814D01*
X39205160Y-31512820D01*
X39052011Y-31415629D01*
X39002621Y-31398042D01*
X38887770Y-31357145D01*
X38887765Y-31357144D01*
X38881135Y-31354783D01*
X38874147Y-31353950D01*
X38874144Y-31353949D01*
X38751043Y-31339270D01*
X38701025Y-31333306D01*
X38694022Y-31334042D01*
X38694021Y-31334042D01*
X38527633Y-31351530D01*
X38527631Y-31351531D01*
X38520633Y-31352266D01*
X38434229Y-31381680D01*
X38393624Y-31388402D01*
X33404598Y-31388402D01*
X33385648Y-31386969D01*
X33371413Y-31384803D01*
X33371409Y-31384803D01*
X33364179Y-31383703D01*
X33356887Y-31384296D01*
X33356884Y-31384296D01*
X33311510Y-31387987D01*
X33301295Y-31388402D01*
X33293235Y-31388402D01*
X33289601Y-31388826D01*
X33289595Y-31388826D01*
X33276570Y-31390345D01*
X33265008Y-31391693D01*
X33260660Y-31392123D01*
X33187892Y-31398042D01*
X33180931Y-31400297D01*
X33174991Y-31401484D01*
X33169116Y-31402873D01*
X33161847Y-31403720D01*
X33093198Y-31428638D01*
X33089070Y-31430055D01*
X33026592Y-31450295D01*
X33026590Y-31450296D01*
X33019629Y-31452551D01*
X33013374Y-31456347D01*
X33007900Y-31458853D01*
X33002470Y-31461572D01*
X32995591Y-31464069D01*
X32989471Y-31468082D01*
X32989470Y-31468082D01*
X32934552Y-31504088D01*
X32930848Y-31506425D01*
X32868421Y-31544307D01*
X32860044Y-31551705D01*
X32860020Y-31551678D01*
X32857028Y-31554331D01*
X32853795Y-31557034D01*
X32847676Y-31561046D01*
X32832967Y-31576573D01*
X32794400Y-31617285D01*
X32792022Y-31619727D01*
X29488374Y-34923375D01*
X29426062Y-34957401D01*
X29399279Y-34960280D01*
X25245857Y-34960280D01*
X25203590Y-34952979D01*
X25136315Y-34929023D01*
X25136313Y-34929022D01*
X25129681Y-34926661D01*
X25122693Y-34925828D01*
X25122690Y-34925827D01*
X24992860Y-34910346D01*
X24949571Y-34905184D01*
X24942568Y-34905920D01*
X24942567Y-34905920D01*
X24776179Y-34923408D01*
X24776177Y-34923409D01*
X24769179Y-34924144D01*
X24597470Y-34982598D01*
X24591466Y-34986292D01*
X24448986Y-35073946D01*
X24448983Y-35073948D01*
X24442979Y-35077642D01*
X24437944Y-35082573D01*
X24437941Y-35082575D01*
X24322023Y-35196091D01*
X24313384Y-35204551D01*
X24215126Y-35357018D01*
X24212717Y-35363638D01*
X24212715Y-35363641D01*
X24169369Y-35482733D01*
X24153088Y-35527465D01*
X24130354Y-35707420D01*
X24148054Y-35887940D01*
X24205309Y-36060053D01*
X24207753Y-36064089D01*
X24218035Y-36133406D01*
X24188830Y-36198117D01*
X24129276Y-36236767D01*
X24058280Y-36237083D01*
X24004144Y-36205125D01*
X23292299Y-35493280D01*
X23258273Y-35430968D01*
X23255394Y-35404185D01*
X23255394Y-30191676D01*
X23275396Y-30123555D01*
X23329052Y-30077062D01*
X23399326Y-30066958D01*
X23446756Y-30083955D01*
X23549419Y-30146253D01*
X23790455Y-30247327D01*
X24043783Y-30311665D01*
X24048434Y-30312133D01*
X24048438Y-30312134D01*
X24241308Y-30331555D01*
X24260867Y-30333524D01*
X26916354Y-30333524D01*
X26918679Y-30333351D01*
X26918685Y-30333351D01*
X27106000Y-30319431D01*
X27106004Y-30319430D01*
X27110652Y-30319085D01*
X27115200Y-30318056D01*
X27115206Y-30318055D01*
X27301601Y-30275877D01*
X27365577Y-30261401D01*
X27401769Y-30247327D01*
X27604824Y-30168364D01*
X27604827Y-30168363D01*
X27609177Y-30166671D01*
X27836098Y-30036975D01*
X28041357Y-29875162D01*
X28220443Y-29684787D01*
X28369424Y-29470033D01*
X28482563Y-29240608D01*
X28530631Y-29188360D01*
X28595569Y-29170337D01*
X31720194Y-29170337D01*
X31788315Y-29190339D01*
G37*
G04 #@! TD.AperFunction*
G04 #@! TA.AperFunction,Conductor*
G36*
X32416872Y-34244405D02*
G01*
X32473708Y-34286952D01*
X32498519Y-34353472D01*
X32483428Y-34422846D01*
X32478751Y-34430715D01*
X32399989Y-34552931D01*
X32397580Y-34559551D01*
X32397578Y-34559554D01*
X32361159Y-34659614D01*
X32337951Y-34723378D01*
X32315217Y-34903333D01*
X32332917Y-35083853D01*
X32335141Y-35090538D01*
X32363812Y-35176726D01*
X32370254Y-35216498D01*
X32370254Y-39374914D01*
X32362655Y-39418009D01*
X32350003Y-39452771D01*
X32337951Y-39485882D01*
X32315217Y-39665837D01*
X32332917Y-39846357D01*
X32390172Y-40018470D01*
X32393819Y-40024492D01*
X32393820Y-40024494D01*
X32479325Y-40165680D01*
X32484134Y-40173621D01*
X32610136Y-40304099D01*
X32616032Y-40307957D01*
X32730742Y-40383021D01*
X32761913Y-40403419D01*
X32816939Y-40423883D01*
X32873815Y-40466376D01*
X32898688Y-40532872D01*
X32883663Y-40602261D01*
X32862113Y-40631075D01*
X32797408Y-40695780D01*
X32735096Y-40729806D01*
X32708313Y-40732685D01*
X29748462Y-40732685D01*
X29680341Y-40712683D01*
X29633848Y-40659027D01*
X29623247Y-40620730D01*
X29621176Y-40602261D01*
X29615051Y-40547660D01*
X29599971Y-40504355D01*
X29557718Y-40383021D01*
X29557716Y-40383018D01*
X29555399Y-40376363D01*
X29459280Y-40222539D01*
X29415731Y-40178685D01*
X29336432Y-40098830D01*
X29336428Y-40098827D01*
X29331469Y-40093833D01*
X29320351Y-40086777D01*
X29272192Y-40056215D01*
X29178320Y-39996642D01*
X29149117Y-39986243D01*
X29014079Y-39938158D01*
X29014074Y-39938157D01*
X29007444Y-39935796D01*
X29000456Y-39934963D01*
X29000453Y-39934962D01*
X28877352Y-39920283D01*
X28827334Y-39914319D01*
X28820331Y-39915055D01*
X28820330Y-39915055D01*
X28653942Y-39932543D01*
X28653940Y-39932544D01*
X28646942Y-39933279D01*
X28475233Y-39991733D01*
X28338693Y-40075734D01*
X28272673Y-40094415D01*
X27721228Y-40094415D01*
X27653107Y-40074413D01*
X27606614Y-40020757D01*
X27596454Y-39950880D01*
X27602384Y-39908688D01*
X27602701Y-39885971D01*
X27582482Y-39705716D01*
X27522830Y-39534419D01*
X27471811Y-39452771D01*
X27430444Y-39386569D01*
X27426711Y-39380595D01*
X27395618Y-39349284D01*
X27303863Y-39256886D01*
X27303859Y-39256883D01*
X27298900Y-39251889D01*
X27267447Y-39231928D01*
X27212145Y-39196833D01*
X27145751Y-39154698D01*
X26974875Y-39093852D01*
X26925092Y-39087916D01*
X26859818Y-39059989D01*
X26850915Y-39051897D01*
X24455463Y-36656444D01*
X24421437Y-36594132D01*
X24426502Y-36523316D01*
X24469049Y-36466481D01*
X24535569Y-36441670D01*
X24588478Y-36449252D01*
X24740449Y-36505770D01*
X24740451Y-36505770D01*
X24747059Y-36508228D01*
X24830886Y-36519413D01*
X24919871Y-36531287D01*
X24919875Y-36531287D01*
X24926852Y-36532218D01*
X24933863Y-36531580D01*
X24933867Y-36531580D01*
X25076350Y-36518612D01*
X25107491Y-36515778D01*
X25114193Y-36513600D01*
X25114195Y-36513600D01*
X25206996Y-36483447D01*
X25245932Y-36477280D01*
X29698580Y-36477280D01*
X29717530Y-36478713D01*
X29731765Y-36480879D01*
X29731769Y-36480879D01*
X29738999Y-36481979D01*
X29746291Y-36481386D01*
X29746294Y-36481386D01*
X29791668Y-36477695D01*
X29801883Y-36477280D01*
X29809943Y-36477280D01*
X29823233Y-36475731D01*
X29838157Y-36473991D01*
X29842532Y-36473558D01*
X29907989Y-36468234D01*
X29907992Y-36468233D01*
X29915287Y-36467640D01*
X29922251Y-36465384D01*
X29928210Y-36464193D01*
X29934065Y-36462809D01*
X29941331Y-36461962D01*
X30009977Y-36437045D01*
X30014105Y-36435628D01*
X30076586Y-36415387D01*
X30076588Y-36415386D01*
X30083549Y-36413131D01*
X30089804Y-36409335D01*
X30095278Y-36406829D01*
X30100708Y-36404110D01*
X30107587Y-36401613D01*
X30113708Y-36397600D01*
X30168626Y-36361594D01*
X30172330Y-36359257D01*
X30234757Y-36321375D01*
X30243134Y-36313977D01*
X30243158Y-36314004D01*
X30246150Y-36311351D01*
X30249383Y-36308648D01*
X30255502Y-36304636D01*
X30308778Y-36248397D01*
X30311156Y-36245955D01*
X32283745Y-34273366D01*
X32346057Y-34239340D01*
X32416872Y-34244405D01*
G37*
G04 #@! TD.AperFunction*
G04 #@! TA.AperFunction,Conductor*
G36*
X11827174Y-29190339D02*
G01*
X11873667Y-29243995D01*
X11881093Y-29264999D01*
X11902870Y-29349813D01*
X12018784Y-29642577D01*
X12020686Y-29646036D01*
X12020687Y-29646039D01*
X12155020Y-29890389D01*
X12170476Y-29918504D01*
X12355555Y-30173244D01*
X12571102Y-30402778D01*
X12813718Y-30603487D01*
X13079576Y-30772206D01*
X13083155Y-30773890D01*
X13083162Y-30773894D01*
X13360894Y-30904584D01*
X13360898Y-30904586D01*
X13364484Y-30906273D01*
X13368256Y-30907499D01*
X13368257Y-30907499D01*
X13392291Y-30915308D01*
X13663948Y-31003575D01*
X13973246Y-31062577D01*
X14066800Y-31068463D01*
X14206858Y-31077275D01*
X14206874Y-31077276D01*
X14208853Y-31077400D01*
X14366147Y-31077400D01*
X14368126Y-31077276D01*
X14368142Y-31077275D01*
X14508200Y-31068463D01*
X14601754Y-31062577D01*
X14911052Y-31003575D01*
X15182709Y-30915308D01*
X15206743Y-30907499D01*
X15206744Y-30907499D01*
X15210516Y-30906273D01*
X15214102Y-30904586D01*
X15214106Y-30904584D01*
X15491838Y-30773894D01*
X15491845Y-30773890D01*
X15495424Y-30772206D01*
X15761282Y-30603487D01*
X16003898Y-30402778D01*
X16219445Y-30173244D01*
X16404524Y-29918504D01*
X16419981Y-29890389D01*
X16554313Y-29646039D01*
X16554314Y-29646036D01*
X16556216Y-29642577D01*
X16672130Y-29349813D01*
X16693906Y-29265002D01*
X16730219Y-29203997D01*
X16793751Y-29172307D01*
X16815947Y-29170337D01*
X18067694Y-29170337D01*
X18135815Y-29190339D01*
X18175413Y-29230972D01*
X18262378Y-29374286D01*
X18265147Y-29378849D01*
X18268644Y-29382879D01*
X18355268Y-29482704D01*
X18416347Y-29553092D01*
X18420478Y-29556479D01*
X18590615Y-29695984D01*
X18590621Y-29695988D01*
X18594743Y-29699368D01*
X18795235Y-29813494D01*
X18800251Y-29815315D01*
X18800256Y-29815317D01*
X19007075Y-29890389D01*
X19007079Y-29890390D01*
X19012090Y-29892209D01*
X19017339Y-29893158D01*
X19017342Y-29893159D01*
X19235023Y-29932522D01*
X19235030Y-29932523D01*
X19239107Y-29933260D01*
X19256844Y-29934096D01*
X19261792Y-29934330D01*
X19261799Y-29934330D01*
X19263280Y-29934400D01*
X19425425Y-29934400D01*
X19492381Y-29928719D01*
X19592062Y-29920261D01*
X19592066Y-29920260D01*
X19597373Y-29919810D01*
X19602528Y-29918472D01*
X19602534Y-29918471D01*
X19815503Y-29863195D01*
X19815507Y-29863194D01*
X19820672Y-29861853D01*
X19825538Y-29859661D01*
X19825541Y-29859660D01*
X20026149Y-29769293D01*
X20031015Y-29767101D01*
X20035435Y-29764125D01*
X20035439Y-29764123D01*
X20153279Y-29684787D01*
X20222385Y-29638262D01*
X20389312Y-29479022D01*
X20467238Y-29374286D01*
X20523837Y-29298214D01*
X20523839Y-29298211D01*
X20527021Y-29293934D01*
X20550067Y-29248606D01*
X20598770Y-29196948D01*
X20667670Y-29179822D01*
X20734892Y-29202664D01*
X20779093Y-29258223D01*
X20788384Y-29305711D01*
X20788384Y-31300843D01*
X20780785Y-31343938D01*
X20761093Y-31398042D01*
X20756081Y-31411811D01*
X20733347Y-31591766D01*
X20751047Y-31772286D01*
X20760934Y-31802008D01*
X20781942Y-31865159D01*
X20788384Y-31904931D01*
X20788384Y-34591359D01*
X20768295Y-34659614D01*
X20706322Y-34755777D01*
X20706318Y-34755786D01*
X20702503Y-34761705D01*
X20700094Y-34768325D01*
X20700093Y-34768326D01*
X20643380Y-34924144D01*
X20640465Y-34932152D01*
X20617731Y-35112107D01*
X20635431Y-35292627D01*
X20692686Y-35464740D01*
X20696333Y-35470762D01*
X20696334Y-35470764D01*
X20764105Y-35582667D01*
X20786648Y-35619891D01*
X20912650Y-35750369D01*
X21064427Y-35849689D01*
X21071031Y-35852145D01*
X21071033Y-35852146D01*
X21227826Y-35910457D01*
X21227828Y-35910457D01*
X21234436Y-35912915D01*
X21414229Y-35936905D01*
X21416730Y-35936677D01*
X21482707Y-35957558D01*
X21528067Y-36012174D01*
X21538384Y-36062108D01*
X21538384Y-36350942D01*
X21537857Y-36362125D01*
X21536182Y-36369618D01*
X21536431Y-36377544D01*
X21536431Y-36377545D01*
X21538322Y-36437695D01*
X21538384Y-36441654D01*
X21538384Y-36469565D01*
X21538881Y-36473499D01*
X21538881Y-36473500D01*
X21538889Y-36473565D01*
X21539822Y-36485402D01*
X21541211Y-36529598D01*
X21546862Y-36549048D01*
X21550871Y-36568409D01*
X21553410Y-36588506D01*
X21556329Y-36595877D01*
X21556329Y-36595879D01*
X21569688Y-36629621D01*
X21573533Y-36640851D01*
X21585866Y-36683302D01*
X21589899Y-36690121D01*
X21589901Y-36690126D01*
X21596177Y-36700737D01*
X21604872Y-36718485D01*
X21612332Y-36737326D01*
X21616994Y-36743742D01*
X21616994Y-36743743D01*
X21638320Y-36773096D01*
X21644836Y-36783016D01*
X21667342Y-36821071D01*
X21681663Y-36835392D01*
X21694503Y-36850425D01*
X21706412Y-36866816D01*
X21721981Y-36879696D01*
X21740489Y-36895007D01*
X21749268Y-36902997D01*
X21963323Y-37117052D01*
X21997349Y-37179364D01*
X21992284Y-37250179D01*
X21949737Y-37307015D01*
X21883217Y-37331826D01*
X21874228Y-37332147D01*
X19975336Y-37332147D01*
X19907215Y-37312145D01*
X19860722Y-37258489D01*
X19850121Y-37220193D01*
X19844198Y-37167391D01*
X19843413Y-37160392D01*
X19815525Y-37080309D01*
X19808516Y-37038872D01*
X19808516Y-32163982D01*
X19809949Y-32145032D01*
X19812115Y-32130797D01*
X19812115Y-32130793D01*
X19813215Y-32123563D01*
X19811622Y-32103969D01*
X19808931Y-32070894D01*
X19808516Y-32060679D01*
X19808516Y-32052619D01*
X19805225Y-32024392D01*
X19804794Y-32020033D01*
X19801021Y-31973646D01*
X19798876Y-31947276D01*
X19796621Y-31940315D01*
X19795434Y-31934375D01*
X19794045Y-31928500D01*
X19793198Y-31921231D01*
X19768280Y-31852582D01*
X19766863Y-31848454D01*
X19746623Y-31785976D01*
X19746622Y-31785974D01*
X19744367Y-31779013D01*
X19740571Y-31772758D01*
X19738065Y-31767284D01*
X19735346Y-31761854D01*
X19732849Y-31754975D01*
X19725522Y-31743800D01*
X19692830Y-31693936D01*
X19690483Y-31690217D01*
X19652611Y-31627805D01*
X19645213Y-31619428D01*
X19645240Y-31619404D01*
X19642586Y-31616412D01*
X19639888Y-31613185D01*
X19635872Y-31607060D01*
X19630653Y-31602116D01*
X19615861Y-31579119D01*
X19614974Y-31576573D01*
X19518855Y-31422749D01*
X19505170Y-31408968D01*
X19396007Y-31299040D01*
X19396003Y-31299037D01*
X19391044Y-31294043D01*
X19379926Y-31286987D01*
X19331767Y-31256425D01*
X19237895Y-31196852D01*
X19208692Y-31186453D01*
X19073654Y-31138368D01*
X19073649Y-31138367D01*
X19067019Y-31136006D01*
X19060031Y-31135173D01*
X19060028Y-31135172D01*
X18936927Y-31120493D01*
X18886909Y-31114529D01*
X18879906Y-31115265D01*
X18879905Y-31115265D01*
X18713517Y-31132753D01*
X18713515Y-31132754D01*
X18706517Y-31133489D01*
X18534808Y-31191943D01*
X18528804Y-31195637D01*
X18386324Y-31283291D01*
X18386321Y-31283293D01*
X18380317Y-31286987D01*
X18375282Y-31291918D01*
X18375279Y-31291920D01*
X18255754Y-31408968D01*
X18250722Y-31413896D01*
X18152464Y-31566363D01*
X18150055Y-31572983D01*
X18150053Y-31572986D01*
X18106699Y-31692100D01*
X18090426Y-31736810D01*
X18067692Y-31916765D01*
X18085392Y-32097285D01*
X18142647Y-32269398D01*
X18146294Y-32275420D01*
X18146295Y-32275422D01*
X18191001Y-32349240D01*
X18236609Y-32424549D01*
X18241503Y-32429617D01*
X18241504Y-32429618D01*
X18256152Y-32444786D01*
X18289085Y-32507682D01*
X18291516Y-32532314D01*
X18291516Y-37038364D01*
X18283917Y-37081459D01*
X18262190Y-37141154D01*
X18259213Y-37149332D01*
X18258330Y-37156320D01*
X18258330Y-37156321D01*
X18250040Y-37221940D01*
X18221658Y-37287016D01*
X18162598Y-37326417D01*
X18125034Y-37332147D01*
X15173128Y-37332147D01*
X15105007Y-37312145D01*
X15058514Y-37258489D01*
X15054137Y-37247585D01*
X15045206Y-37221940D01*
X15021257Y-37153167D01*
X15003784Y-37125204D01*
X14928871Y-37005317D01*
X14925138Y-36999343D01*
X14903617Y-36977671D01*
X14802290Y-36875634D01*
X14802286Y-36875631D01*
X14797327Y-36870637D01*
X14791307Y-36866816D01*
X14719223Y-36821071D01*
X14644178Y-36773446D01*
X14614975Y-36763047D01*
X14479937Y-36714962D01*
X14479932Y-36714961D01*
X14473302Y-36712600D01*
X14466314Y-36711767D01*
X14466311Y-36711766D01*
X14343210Y-36697087D01*
X14293192Y-36691123D01*
X14286189Y-36691859D01*
X14286188Y-36691859D01*
X14119800Y-36709347D01*
X14119798Y-36709348D01*
X14112800Y-36710083D01*
X13941091Y-36768537D01*
X13804551Y-36852538D01*
X13738531Y-36871219D01*
X11627837Y-36871219D01*
X11616654Y-36870692D01*
X11609161Y-36869017D01*
X11601235Y-36869266D01*
X11601234Y-36869266D01*
X11541071Y-36871157D01*
X11537113Y-36871219D01*
X11509213Y-36871219D01*
X11505223Y-36871723D01*
X11493389Y-36872655D01*
X11449180Y-36874045D01*
X11441566Y-36876257D01*
X11441561Y-36876258D01*
X11429728Y-36879696D01*
X11410365Y-36883707D01*
X11390272Y-36886245D01*
X11382905Y-36889162D01*
X11382900Y-36889163D01*
X11349161Y-36902521D01*
X11337934Y-36906365D01*
X11295476Y-36918701D01*
X11288650Y-36922738D01*
X11278041Y-36929012D01*
X11260293Y-36937707D01*
X11241452Y-36945167D01*
X11235036Y-36949829D01*
X11235035Y-36949829D01*
X11205682Y-36971155D01*
X11195761Y-36977671D01*
X11157707Y-37000177D01*
X11156092Y-36997447D01*
X11103650Y-37018007D01*
X11034034Y-37004072D01*
X10983004Y-36954711D01*
X10966996Y-36902819D01*
X10966665Y-36898786D01*
X10949234Y-36686767D01*
X10894813Y-36470108D01*
X10805736Y-36265246D01*
X10720445Y-36133406D01*
X10687204Y-36082023D01*
X10687202Y-36082020D01*
X10684396Y-36077683D01*
X10680823Y-36073756D01*
X10537180Y-35915894D01*
X10506128Y-35852048D01*
X10514523Y-35781549D01*
X10559699Y-35726781D01*
X10586143Y-35713112D01*
X10692679Y-35673173D01*
X10701087Y-35670021D01*
X10817643Y-35582667D01*
X10904997Y-35466111D01*
X10956127Y-35329722D01*
X10962882Y-35267540D01*
X10962882Y-33471272D01*
X10956127Y-33409090D01*
X10904997Y-33272701D01*
X10817643Y-33156145D01*
X10701087Y-33068791D01*
X10564698Y-33017661D01*
X10502516Y-33010906D01*
X9188881Y-33010906D01*
X9120760Y-32990904D01*
X9074267Y-32937248D01*
X9062881Y-32884906D01*
X9062881Y-31408047D01*
X9082883Y-31339926D01*
X9099786Y-31318952D01*
X11211496Y-29207242D01*
X11273808Y-29173216D01*
X11300591Y-29170337D01*
X11759053Y-29170337D01*
X11827174Y-29190339D01*
G37*
G04 #@! TD.AperFunction*
M02*
