G04 #@! TF.GenerationSoftware,KiCad,Pcbnew,(6.0.0)*
G04 #@! TF.CreationDate,2022-02-12T17:38:39+01:00*
G04 #@! TF.ProjectId,plain60-flex-edition,706c6169-6e36-4302-9d66-6c65782d6564,rev?*
G04 #@! TF.SameCoordinates,Original*
G04 #@! TF.FileFunction,Soldermask,Bot*
G04 #@! TF.FilePolarity,Negative*
%FSLAX46Y46*%
G04 Gerber Fmt 4.6, Leading zero omitted, Abs format (unit mm)*
G04 Created by KiCad (PCBNEW (6.0.0)) date 2022-02-12 17:38:39*
%MOMM*%
%LPD*%
G01*
G04 APERTURE LIST*
G04 Aperture macros list*
%AMRoundRect*
0 Rectangle with rounded corners*
0 $1 Rounding radius*
0 $2 $3 $4 $5 $6 $7 $8 $9 X,Y pos of 4 corners*
0 Add a 4 corners polygon primitive as box body*
4,1,4,$2,$3,$4,$5,$6,$7,$8,$9,$2,$3,0*
0 Add four circle primitives for the rounded corners*
1,1,$1+$1,$2,$3*
1,1,$1+$1,$4,$5*
1,1,$1+$1,$6,$7*
1,1,$1+$1,$8,$9*
0 Add four rect primitives between the rounded corners*
20,1,$1+$1,$2,$3,$4,$5,0*
20,1,$1+$1,$4,$5,$6,$7,0*
20,1,$1+$1,$6,$7,$8,$9,0*
20,1,$1+$1,$8,$9,$2,$3,0*%
G04 Aperture macros list end*
%ADD10C,2.388000*%
%ADD11C,4.089800*%
%ADD12C,1.803800*%
%ADD13RoundRect,0.051000X0.700000X-0.600000X0.700000X0.600000X-0.700000X0.600000X-0.700000X-0.600000X0*%
%ADD14C,3.150000*%
%ADD15O,7.102000X2.602000*%
%ADD16O,5.102000X2.602000*%
%ADD17RoundRect,0.051000X-0.724784X0.335876X0.335876X-0.724784X0.724784X-0.335876X-0.335876X0.724784X0*%
%ADD18RoundRect,0.051000X0.335876X0.724784X-0.724784X-0.335876X-0.335876X-0.724784X0.724784X0.335876X0*%
%ADD19RoundRect,0.051000X1.000000X-0.200000X1.000000X0.200000X-1.000000X0.200000X-1.000000X-0.200000X0*%
%ADD20RoundRect,0.051000X-0.850000X-0.500000X0.850000X-0.500000X0.850000X0.500000X-0.850000X0.500000X0*%
%ADD21RoundRect,0.051000X0.883883X0.035355X0.035355X0.883883X-0.883883X-0.035355X-0.035355X-0.883883X0*%
%ADD22C,2.102000*%
%ADD23RoundRect,0.051000X0.650000X-0.600000X0.650000X0.600000X-0.650000X0.600000X-0.650000X-0.600000X0*%
%ADD24C,0.752000*%
%ADD25RoundRect,0.051000X-0.300000X-0.725000X0.300000X-0.725000X0.300000X0.725000X-0.300000X0.725000X0*%
%ADD26RoundRect,0.051000X-0.150000X-0.725000X0.150000X-0.725000X0.150000X0.725000X-0.150000X0.725000X0*%
%ADD27O,1.102000X2.202000*%
%ADD28O,1.102000X1.702000*%
%ADD29RoundRect,0.051000X0.600000X0.625000X-0.600000X0.625000X-0.600000X-0.625000X0.600000X-0.625000X0*%
%ADD30RoundRect,0.051000X-0.600000X-0.625000X0.600000X-0.625000X0.600000X0.625000X-0.600000X0.625000X0*%
%ADD31RoundRect,0.051000X0.650000X-0.500000X0.650000X0.500000X-0.650000X0.500000X-0.650000X-0.500000X0*%
%ADD32RoundRect,0.051000X-0.650000X0.600000X-0.650000X-0.600000X0.650000X-0.600000X0.650000X0.600000X0*%
%ADD33RoundRect,0.051000X0.600000X0.650000X-0.600000X0.650000X-0.600000X-0.650000X0.600000X-0.650000X0*%
%ADD34RoundRect,0.051000X-0.300000X-0.600000X0.300000X-0.600000X0.300000X0.600000X-0.300000X0.600000X0*%
%ADD35RoundRect,0.051000X0.850000X0.850000X-0.850000X0.850000X-0.850000X-0.850000X0.850000X-0.850000X0*%
%ADD36O,1.802000X1.802000*%
%ADD37RoundRect,0.201000X-0.775000X0.150000X-0.775000X-0.150000X0.775000X-0.150000X0.775000X0.150000X0*%
%ADD38RoundRect,0.383800X-0.567200X0.467200X-0.567200X-0.467200X0.567200X-0.467200X0.567200X0.467200X0*%
%ADD39RoundRect,0.051000X0.866206X0.017678X0.017678X0.866206X-0.866206X-0.017678X-0.017678X-0.866206X0*%
G04 APERTURE END LIST*
D10*
X19208750Y-42545000D03*
X12858750Y-45085000D03*
D11*
X16668750Y-47625000D03*
D12*
X11588750Y-47625000D03*
X21748750Y-47625000D03*
D10*
X93027500Y-61595000D03*
X86677500Y-64135000D03*
D12*
X85407500Y-66675000D03*
X95567500Y-66675000D03*
D11*
X90487500Y-66675000D03*
D10*
X226377500Y-80645000D03*
X220027500Y-83185000D03*
D12*
X218757500Y-85725000D03*
X228917500Y-85725000D03*
D11*
X223837500Y-85725000D03*
D10*
X16827500Y-80645000D03*
X10477500Y-83185000D03*
D12*
X19367500Y-85725000D03*
X9207500Y-85725000D03*
D11*
X14287500Y-85725000D03*
D13*
X245864269Y-11915634D03*
X245864269Y-9515634D03*
D10*
X78740000Y-23495000D03*
X72390000Y-26035000D03*
D12*
X71120000Y-28575000D03*
X81280000Y-28575000D03*
D11*
X76200000Y-28575000D03*
D10*
X97790000Y-23495000D03*
X91440000Y-26035000D03*
D12*
X90170000Y-28575000D03*
X100330000Y-28575000D03*
D11*
X95250000Y-28575000D03*
D10*
X154940000Y-23495000D03*
X148590000Y-26035000D03*
D12*
X157480000Y-28575000D03*
X147320000Y-28575000D03*
D11*
X152400000Y-28575000D03*
D10*
X173990000Y-23495000D03*
X167640000Y-26035000D03*
D11*
X171450000Y-28575000D03*
D12*
X176530000Y-28575000D03*
X166370000Y-28575000D03*
D10*
X40640000Y-23495000D03*
X34290000Y-26035000D03*
D11*
X38100000Y-28575000D03*
D12*
X33020000Y-28575000D03*
X43180000Y-28575000D03*
D10*
X135890000Y-23495000D03*
X129540000Y-26035000D03*
D12*
X128270000Y-28575000D03*
X138430000Y-28575000D03*
D11*
X133350000Y-28575000D03*
D10*
X116840000Y-23495000D03*
X110490000Y-26035000D03*
D11*
X114300000Y-28575000D03*
D12*
X109220000Y-28575000D03*
X119380000Y-28575000D03*
D10*
X59690000Y-23495000D03*
X53340000Y-26035000D03*
D12*
X52070000Y-28575000D03*
X62230000Y-28575000D03*
D11*
X57150000Y-28575000D03*
D10*
X16827500Y-23495000D03*
X10477500Y-26035000D03*
D11*
X14287500Y-28575000D03*
D12*
X9207500Y-28575000D03*
X19367500Y-28575000D03*
D14*
X254762000Y-2540000D03*
D11*
X266700000Y-9525000D03*
D14*
X278638000Y-2540000D03*
D12*
X261620000Y-9525000D03*
D11*
X278638000Y-17780000D03*
X254762000Y-17780000D03*
D12*
X271780000Y-9525000D03*
D10*
X269240000Y-4445000D03*
X262890000Y-6985000D03*
X145415000Y-4445000D03*
X139065000Y-6985000D03*
D12*
X147955000Y-9525000D03*
X137795000Y-9525000D03*
D11*
X142875000Y-9525000D03*
D10*
X183515000Y-4445000D03*
X177165000Y-6985000D03*
D12*
X186055000Y-9525000D03*
X175895000Y-9525000D03*
D11*
X180975000Y-9525000D03*
D10*
X88265000Y-4445000D03*
X81915000Y-6985000D03*
D12*
X80645000Y-9525000D03*
D11*
X85725000Y-9525000D03*
D12*
X90805000Y-9525000D03*
D10*
X240665000Y-4445000D03*
X234315000Y-6985000D03*
D12*
X233045000Y-9525000D03*
D11*
X238125000Y-9525000D03*
D12*
X243205000Y-9525000D03*
D10*
X221615000Y-4445000D03*
X215265000Y-6985000D03*
D11*
X219075000Y-9525000D03*
D12*
X224155000Y-9525000D03*
X213995000Y-9525000D03*
D10*
X202565000Y-4445000D03*
X196215000Y-6985000D03*
D12*
X205105000Y-9525000D03*
D11*
X200025000Y-9525000D03*
D12*
X194945000Y-9525000D03*
D10*
X164465000Y-4445000D03*
X158115000Y-6985000D03*
D12*
X167005000Y-9525000D03*
X156845000Y-9525000D03*
D11*
X161925000Y-9525000D03*
D10*
X126365000Y-4445000D03*
X120015000Y-6985000D03*
D12*
X128905000Y-9525000D03*
D11*
X123825000Y-9525000D03*
D12*
X118745000Y-9525000D03*
D10*
X107315000Y-4445000D03*
X100965000Y-6985000D03*
D11*
X104775000Y-9525000D03*
D12*
X99695000Y-9525000D03*
X109855000Y-9525000D03*
D10*
X69215000Y-4445000D03*
X62865000Y-6985000D03*
D12*
X71755000Y-9525000D03*
D11*
X66675000Y-9525000D03*
D12*
X61595000Y-9525000D03*
D10*
X31115000Y-4445000D03*
X24765000Y-6985000D03*
D12*
X33655000Y-9525000D03*
X23495000Y-9525000D03*
D11*
X28575000Y-9525000D03*
D10*
X12065000Y-4445000D03*
X5715000Y-6985000D03*
D11*
X9525000Y-9525000D03*
D12*
X4445000Y-9525000D03*
X14605000Y-9525000D03*
D10*
X50165000Y-4445000D03*
X43815000Y-6985000D03*
D11*
X47625000Y-9525000D03*
D12*
X42545000Y-9525000D03*
X52705000Y-9525000D03*
D10*
X40640000Y-80645000D03*
X34290000Y-83185000D03*
D12*
X43180000Y-85725000D03*
D11*
X38100000Y-85725000D03*
D12*
X33020000Y-85725000D03*
D10*
X150177500Y-61595000D03*
X143827500Y-64135000D03*
D12*
X152717500Y-66675000D03*
X142557500Y-66675000D03*
D11*
X147637500Y-66675000D03*
D10*
X252571460Y-61595056D03*
X246221460Y-64135056D03*
D12*
X244951460Y-66675056D03*
X255111460Y-66675056D03*
D11*
X250031460Y-66675056D03*
D10*
X14446250Y-42545000D03*
X8096250Y-45085000D03*
D12*
X16986250Y-47625000D03*
X6826250Y-47625000D03*
D11*
X11906250Y-47625000D03*
D10*
X226377500Y-61595000D03*
X220027500Y-64135000D03*
D11*
X223837500Y-66675000D03*
D12*
X228917500Y-66675000D03*
X218757500Y-66675000D03*
D10*
X169227500Y-61595000D03*
X162877500Y-64135000D03*
D12*
X171767500Y-66675000D03*
D11*
X166687500Y-66675000D03*
D12*
X161607500Y-66675000D03*
D10*
X207327500Y-61595000D03*
X200977500Y-64135000D03*
D12*
X209867500Y-66675000D03*
D11*
X204787500Y-66675000D03*
D12*
X199707500Y-66675000D03*
D10*
X131127500Y-61595000D03*
X124777500Y-64135000D03*
D12*
X123507500Y-66675000D03*
D11*
X128587500Y-66675000D03*
D12*
X133667500Y-66675000D03*
D10*
X188277500Y-61595000D03*
X181927500Y-64135000D03*
D12*
X190817500Y-66675000D03*
D11*
X185737500Y-66675000D03*
D12*
X180657500Y-66675000D03*
D10*
X14446250Y-61595000D03*
X8096250Y-64135000D03*
D12*
X6826250Y-66675000D03*
X16986250Y-66675000D03*
D11*
X11906250Y-66675000D03*
D10*
X250190000Y-23495000D03*
X243840000Y-26035000D03*
D12*
X252730000Y-28575000D03*
X242570000Y-28575000D03*
D11*
X247650000Y-28575000D03*
D10*
X54927500Y-61595000D03*
X48577500Y-64135000D03*
D12*
X47307500Y-66675000D03*
D11*
X52387500Y-66675000D03*
D12*
X57467500Y-66675000D03*
D10*
X193040000Y-23495000D03*
X186690000Y-26035000D03*
D12*
X195580000Y-28575000D03*
D11*
X190500000Y-28575000D03*
D12*
X185420000Y-28575000D03*
D10*
X121602500Y-42545000D03*
X115252500Y-45085000D03*
D12*
X124142500Y-47625000D03*
D11*
X119062500Y-47625000D03*
D12*
X113982500Y-47625000D03*
D10*
X64452500Y-42545000D03*
X58102500Y-45085000D03*
D12*
X66992500Y-47625000D03*
X56832500Y-47625000D03*
D11*
X61912500Y-47625000D03*
D10*
X278765000Y-61595000D03*
X272415000Y-64135000D03*
D12*
X271145000Y-66675000D03*
D11*
X276225000Y-66675000D03*
D12*
X281305000Y-66675000D03*
D10*
X178752500Y-42545000D03*
X172402500Y-45085000D03*
D12*
X171132500Y-47625000D03*
X181292500Y-47625000D03*
D11*
X176212500Y-47625000D03*
D10*
X231140000Y-23495000D03*
X224790000Y-26035000D03*
D12*
X223520000Y-28575000D03*
X233680000Y-28575000D03*
D11*
X228600000Y-28575000D03*
D10*
X64452500Y-80645000D03*
X58102500Y-83185000D03*
D12*
X56832500Y-85725000D03*
D11*
X61912500Y-85725000D03*
D12*
X66992500Y-85725000D03*
D10*
X83502500Y-42545000D03*
X77152500Y-45085000D03*
D12*
X86042500Y-47625000D03*
X75882500Y-47625000D03*
D11*
X80962500Y-47625000D03*
D10*
X35877500Y-61595000D03*
X29527500Y-64135000D03*
D11*
X33337500Y-66675000D03*
D12*
X38417500Y-66675000D03*
X28257500Y-66675000D03*
D10*
X254952500Y-42545000D03*
X248602500Y-45085000D03*
D11*
X252412500Y-47625000D03*
D12*
X257492500Y-47625000D03*
X247332500Y-47625000D03*
D10*
X159702500Y-42545000D03*
X153352500Y-45085000D03*
D11*
X157162500Y-47625000D03*
D12*
X162242500Y-47625000D03*
X152082500Y-47625000D03*
D10*
X102552500Y-42545000D03*
X96202500Y-45085000D03*
D12*
X94932500Y-47625000D03*
D11*
X100012500Y-47625000D03*
D12*
X105092500Y-47625000D03*
D10*
X45402500Y-42545000D03*
X39052500Y-45085000D03*
D12*
X47942500Y-47625000D03*
D11*
X42862500Y-47625000D03*
D12*
X37782500Y-47625000D03*
D10*
X197802500Y-42545000D03*
X191452500Y-45085000D03*
D12*
X190182500Y-47625000D03*
D11*
X195262500Y-47625000D03*
D12*
X200342500Y-47625000D03*
D10*
X235902500Y-42545000D03*
X229552500Y-45085000D03*
D12*
X228282500Y-47625000D03*
X238442500Y-47625000D03*
D11*
X233362500Y-47625000D03*
D10*
X216852500Y-42545000D03*
X210502500Y-45085000D03*
D11*
X214312500Y-47625000D03*
D12*
X209232500Y-47625000D03*
X219392500Y-47625000D03*
D10*
X212090000Y-23495000D03*
X205740000Y-26035000D03*
D12*
X204470000Y-28575000D03*
D11*
X209550000Y-28575000D03*
D12*
X214630000Y-28575000D03*
D10*
X140652500Y-42545000D03*
X134302500Y-45085000D03*
D12*
X143192500Y-47625000D03*
X133032500Y-47625000D03*
D11*
X138112500Y-47625000D03*
D10*
X112077500Y-61595000D03*
X105727500Y-64135000D03*
D11*
X109537500Y-66675000D03*
D12*
X114617500Y-66675000D03*
X104457500Y-66675000D03*
D10*
X250190000Y-80645000D03*
X243840000Y-83185000D03*
D12*
X242570000Y-85725000D03*
X252730000Y-85725000D03*
D11*
X247650000Y-85725000D03*
D10*
X73977500Y-61595000D03*
X67627500Y-64135000D03*
D12*
X66357500Y-66675000D03*
D11*
X71437500Y-66675000D03*
D12*
X76517500Y-66675000D03*
D10*
X274002728Y-80645072D03*
X267652728Y-83185072D03*
D12*
X276542728Y-85725072D03*
D11*
X271462728Y-85725072D03*
D12*
X266382728Y-85725072D03*
D15*
X2381252Y-57125000D03*
X283368988Y-57125000D03*
D10*
X262096468Y-61595000D03*
X255746468Y-64135000D03*
D11*
X247618468Y-74930000D03*
X271494468Y-74930000D03*
D14*
X271494468Y-59690000D03*
D12*
X264636468Y-66675000D03*
X254476468Y-66675000D03*
D11*
X259556468Y-66675000D03*
D14*
X247618468Y-59690000D03*
D16*
X26625000Y-85725072D03*
X142875000Y-37750000D03*
X260430000Y-85725072D03*
X260425000Y-28227050D03*
X25600000Y-28575024D03*
X128587608Y-47425040D03*
X190500160Y-85525000D03*
D11*
X85693250Y-77470000D03*
D14*
X85693250Y-92710000D03*
X200056750Y-92710000D03*
D11*
X200056750Y-77470000D03*
D10*
X145415000Y-80645000D03*
X139065000Y-83185000D03*
D12*
X147955000Y-85725000D03*
D11*
X142875000Y-85725000D03*
D12*
X137795000Y-85725000D03*
D14*
X280828980Y-50038000D03*
D11*
X265588980Y-50038000D03*
X265588980Y-26162000D03*
D12*
X278923980Y-38100000D03*
D14*
X280828980Y-26162000D03*
D11*
X273843980Y-38100000D03*
D12*
X268763980Y-38100000D03*
D10*
X270033980Y-35560000D03*
X276383980Y-33020000D03*
D13*
X239911139Y-88115698D03*
X239911139Y-85715698D03*
X216098619Y-88115698D03*
X216098619Y-85715698D03*
X150614189Y-88115698D03*
X150614189Y-85715698D03*
X69651621Y-88115698D03*
X69651621Y-85715698D03*
X268486163Y-69065682D03*
X268486163Y-66665682D03*
X242292391Y-69065682D03*
X242292391Y-66665682D03*
X216098619Y-69065682D03*
X216098619Y-66665682D03*
X197048603Y-69065682D03*
X197048603Y-66665682D03*
X139898555Y-69065682D03*
X139898555Y-66665682D03*
X101798523Y-69065682D03*
X101798523Y-66665682D03*
X82748507Y-69065682D03*
X82748507Y-66665682D03*
X220861123Y-30965650D03*
X220861123Y-28565650D03*
X225623627Y-50015666D03*
X225623627Y-47615666D03*
X49410979Y-30965650D03*
X49410979Y-28565650D03*
X182761091Y-30965650D03*
X182761091Y-28565650D03*
X206573611Y-50015666D03*
X206573611Y-47615666D03*
X111323531Y-50015666D03*
X111323531Y-47615666D03*
X53578170Y-50015666D03*
X53578170Y-47615666D03*
X187523595Y-50015666D03*
X187523595Y-47615666D03*
X145851685Y-50015666D03*
X145851685Y-47615666D03*
X50601605Y-50015666D03*
X50601605Y-47615666D03*
X73223499Y-50015666D03*
X73223499Y-47615666D03*
X106561027Y-30965650D03*
X106561027Y-28565650D03*
X201811107Y-30965650D03*
X201811107Y-28565650D03*
X125611043Y-30965650D03*
X125611043Y-28565650D03*
X163711075Y-30965650D03*
X163711075Y-28565650D03*
X244673643Y-50015666D03*
X244673643Y-47615666D03*
X149423563Y-50015666D03*
X149423563Y-47615666D03*
X92273515Y-50015666D03*
X92273515Y-47615666D03*
X60126613Y-69065682D03*
X60126613Y-66665682D03*
X158948571Y-69065682D03*
X158948571Y-66665682D03*
X262899287Y-42380061D03*
X262899287Y-39980061D03*
X51792231Y-88115698D03*
X51792231Y-85715698D03*
X168473579Y-50015666D03*
X168473579Y-47615666D03*
X87511011Y-30965650D03*
X87511011Y-28565650D03*
X239911139Y-30965650D03*
X239911139Y-28565650D03*
X69651621Y-50015666D03*
X69651621Y-47615666D03*
X144661059Y-30965650D03*
X144661059Y-28565650D03*
X177998587Y-69065682D03*
X177998587Y-66665682D03*
X120848539Y-69065682D03*
X120848539Y-66665682D03*
X68460995Y-30965650D03*
X68460995Y-28565650D03*
D17*
X22906714Y-40469828D03*
X23472400Y-39904143D03*
X24038085Y-39338458D03*
X24603770Y-38772772D03*
X25169456Y-38207087D03*
X25735141Y-37641401D03*
X26300827Y-37075716D03*
X26866512Y-36510030D03*
X27432198Y-35944345D03*
X27997883Y-35378660D03*
X28563568Y-34812974D03*
D18*
X30967732Y-34812974D03*
X31533417Y-35378660D03*
X32099102Y-35944345D03*
X32664788Y-36510030D03*
X33230473Y-37075716D03*
X33796159Y-37641401D03*
X34361844Y-38207087D03*
X34927530Y-38772772D03*
X35493215Y-39338458D03*
X36058900Y-39904143D03*
X36624586Y-40469828D03*
D17*
X36624586Y-42873992D03*
X36058900Y-43439677D03*
X35493215Y-44005362D03*
X34927530Y-44571048D03*
X34361844Y-45136733D03*
X33796159Y-45702419D03*
X33230473Y-46268104D03*
X32664788Y-46833790D03*
X32099102Y-47399475D03*
X31533417Y-47965160D03*
X30967732Y-48530846D03*
D18*
X28563568Y-48530846D03*
X27997883Y-47965160D03*
X27432198Y-47399475D03*
X26866512Y-46833790D03*
X26300827Y-46268104D03*
X25735141Y-45702419D03*
X25169456Y-45136733D03*
X24603770Y-44571048D03*
X24038085Y-44005362D03*
X23472400Y-43439677D03*
X22906714Y-42873992D03*
D19*
X38695345Y-36323467D03*
X38695345Y-33923467D03*
X38695345Y-35123467D03*
D20*
X22200016Y-56073483D03*
X15900016Y-56073483D03*
X15900016Y-52273483D03*
X22200016Y-52273483D03*
D21*
X35267505Y-53126895D03*
X33711871Y-51571261D03*
D13*
X173236083Y-11915634D03*
X173236083Y-9515634D03*
X154186067Y-11915634D03*
X154186067Y-9515634D03*
X230386131Y-11915634D03*
X230386131Y-9515634D03*
X192286099Y-11915634D03*
X192286099Y-9515634D03*
X45839101Y-30965650D03*
X45839101Y-28565650D03*
X6548443Y-30965650D03*
X6548443Y-28565650D03*
X211336115Y-11915634D03*
X211336115Y-9515634D03*
X116086035Y-11915634D03*
X116086035Y-9515634D03*
X55364109Y-11915634D03*
X55364109Y-9515634D03*
X77986003Y-11915634D03*
X77986003Y-9515634D03*
X135136051Y-11915634D03*
X135136051Y-9515634D03*
X97036019Y-11915634D03*
X97036019Y-9515634D03*
X58935987Y-11915634D03*
X58935987Y-9515634D03*
D22*
X4524382Y-36909406D03*
D13*
X233958009Y-88115698D03*
X233958009Y-85715698D03*
D23*
X17859390Y-18364077D03*
X17859390Y-16164077D03*
D24*
X15678000Y-5630000D03*
X21458000Y-5630000D03*
D25*
X15343000Y-7075000D03*
X16118000Y-7075000D03*
D26*
X16818000Y-7075000D03*
X17318000Y-7075000D03*
X17818000Y-7075000D03*
X18318000Y-7075000D03*
X18818000Y-7075000D03*
X19318000Y-7075000D03*
X19818000Y-7075000D03*
X20318000Y-7075000D03*
D25*
X21018000Y-7075000D03*
X21793000Y-7075000D03*
D27*
X22888000Y-6160000D03*
X14248000Y-6160000D03*
D28*
X22888000Y-1980000D03*
X14248000Y-1980000D03*
D13*
X63698491Y-69065682D03*
X63698491Y-66665682D03*
D29*
X39795345Y-32146902D03*
X37595345Y-32146902D03*
D30*
X17950016Y-37504719D03*
X20150016Y-37504719D03*
D13*
X41076597Y-69065682D03*
X41076597Y-66665682D03*
D31*
X15478138Y-18959390D03*
X15478138Y-16759390D03*
D13*
X36314093Y-11915634D03*
X36314093Y-9515634D03*
X44648475Y-69065682D03*
X44648475Y-66665682D03*
D32*
X20240642Y-16164077D03*
X20240642Y-18364077D03*
D29*
X15387512Y-36314093D03*
X13187512Y-36314093D03*
X42771910Y-39885971D03*
X40571910Y-39885971D03*
D33*
X15387512Y-38695345D03*
X13187512Y-38695345D03*
D32*
X22621894Y-11996886D03*
X22621894Y-14196886D03*
D13*
X39885971Y-11915634D03*
X39885971Y-9515634D03*
X45839101Y-88115698D03*
X45839101Y-85715698D03*
D34*
X18100016Y-11351573D03*
X19050016Y-11351573D03*
X20000016Y-11351573D03*
X20000016Y-13651573D03*
X19050016Y-13651573D03*
X18100016Y-13651573D03*
D35*
X9604382Y-34369406D03*
D36*
X7064382Y-34369406D03*
X9604382Y-36909406D03*
X7064382Y-36909406D03*
X9604382Y-39449406D03*
X7064382Y-39449406D03*
D23*
X15478138Y-14196886D03*
X15478138Y-11996886D03*
D37*
X29401589Y-16954703D03*
X29401589Y-17954703D03*
X29401589Y-18954703D03*
X29401589Y-19954703D03*
D38*
X33426589Y-15454703D03*
X33426589Y-21454703D03*
D30*
X17950016Y-35123467D03*
X20150016Y-35123467D03*
D39*
X32329406Y-53760674D03*
X30773772Y-52205040D03*
G36*
X28773762Y-47633936D02*
G01*
X28774405Y-47635050D01*
X28777641Y-47651318D01*
X28779696Y-47650909D01*
X28781590Y-47651552D01*
X28782078Y-47652692D01*
X28784109Y-47675299D01*
X28826614Y-47729978D01*
X28876372Y-47747512D01*
X28877673Y-47749031D01*
X28877669Y-47749788D01*
X28877410Y-47751088D01*
X28893678Y-47754324D01*
X28895182Y-47755643D01*
X28894792Y-47757605D01*
X28893678Y-47758248D01*
X28880706Y-47760828D01*
X28864655Y-47771553D01*
X27804275Y-48831933D01*
X27793550Y-48847984D01*
X27790970Y-48860956D01*
X27789651Y-48862460D01*
X27787689Y-48862070D01*
X27787046Y-48860956D01*
X27783810Y-48844688D01*
X27781755Y-48845097D01*
X27779861Y-48844454D01*
X27779373Y-48843314D01*
X27777342Y-48820707D01*
X27734837Y-48766028D01*
X27685079Y-48748494D01*
X27683778Y-48746975D01*
X27683782Y-48746218D01*
X27684041Y-48744918D01*
X27667773Y-48741682D01*
X27666269Y-48740363D01*
X27666659Y-48738401D01*
X27667773Y-48737758D01*
X27680745Y-48735178D01*
X27696796Y-48724453D01*
X28757176Y-47664073D01*
X28767901Y-47648022D01*
X28770481Y-47635050D01*
X28771800Y-47633546D01*
X28773762Y-47633936D01*
G37*
G36*
X30760176Y-47633936D02*
G01*
X30760819Y-47635050D01*
X30763399Y-47648022D01*
X30774124Y-47664073D01*
X31834504Y-48724453D01*
X31850555Y-48735178D01*
X31863527Y-48737758D01*
X31865031Y-48739077D01*
X31864641Y-48741039D01*
X31863527Y-48741682D01*
X31847259Y-48744918D01*
X31847668Y-48746970D01*
X31847025Y-48748864D01*
X31845885Y-48749352D01*
X31823302Y-48751377D01*
X31768615Y-48793872D01*
X31751062Y-48843649D01*
X31749543Y-48844950D01*
X31748786Y-48844946D01*
X31747490Y-48844688D01*
X31744254Y-48860956D01*
X31742935Y-48862460D01*
X31740973Y-48862070D01*
X31740330Y-48860956D01*
X31737750Y-48847984D01*
X31727025Y-48831933D01*
X30666645Y-47771553D01*
X30650594Y-47760828D01*
X30637622Y-47758248D01*
X30636118Y-47756929D01*
X30636508Y-47754967D01*
X30637622Y-47754324D01*
X30653890Y-47751088D01*
X30653481Y-47749036D01*
X30654124Y-47747142D01*
X30655264Y-47746654D01*
X30677847Y-47744629D01*
X30732534Y-47702134D01*
X30750087Y-47652357D01*
X30751606Y-47651056D01*
X30752363Y-47651060D01*
X30753659Y-47651318D01*
X30756895Y-47635050D01*
X30758214Y-47633546D01*
X30760176Y-47633936D01*
G37*
G36*
X28208077Y-47068251D02*
G01*
X28208720Y-47069365D01*
X28211956Y-47085633D01*
X28214008Y-47085224D01*
X28215902Y-47085867D01*
X28216390Y-47087007D01*
X28218415Y-47109590D01*
X28260910Y-47164277D01*
X28310686Y-47181830D01*
X28311987Y-47183349D01*
X28311983Y-47184106D01*
X28311725Y-47185402D01*
X28327993Y-47188638D01*
X28329497Y-47189957D01*
X28329107Y-47191919D01*
X28327993Y-47192562D01*
X28315021Y-47195142D01*
X28298970Y-47205867D01*
X27238590Y-48266247D01*
X27227865Y-48282298D01*
X27225285Y-48295270D01*
X27223966Y-48296774D01*
X27222004Y-48296384D01*
X27221361Y-48295270D01*
X27218125Y-48279002D01*
X27216073Y-48279411D01*
X27214179Y-48278768D01*
X27213691Y-48277628D01*
X27211666Y-48255045D01*
X27169171Y-48200358D01*
X27119395Y-48182805D01*
X27118094Y-48181286D01*
X27118098Y-48180529D01*
X27118356Y-48179233D01*
X27102088Y-48175997D01*
X27100584Y-48174678D01*
X27100974Y-48172716D01*
X27102088Y-48172073D01*
X27115060Y-48169493D01*
X27131111Y-48158768D01*
X28191491Y-47098388D01*
X28202216Y-47082337D01*
X28204796Y-47069365D01*
X28206115Y-47067861D01*
X28208077Y-47068251D01*
G37*
G36*
X31325861Y-47068251D02*
G01*
X31326504Y-47069365D01*
X31329084Y-47082337D01*
X31339809Y-47098388D01*
X32400189Y-48158768D01*
X32416240Y-48169493D01*
X32429212Y-48172073D01*
X32430716Y-48173392D01*
X32430326Y-48175354D01*
X32429212Y-48175997D01*
X32412944Y-48179233D01*
X32413353Y-48181285D01*
X32412710Y-48183179D01*
X32411570Y-48183667D01*
X32388987Y-48185692D01*
X32334300Y-48228187D01*
X32316747Y-48277963D01*
X32315228Y-48279264D01*
X32314471Y-48279260D01*
X32313175Y-48279002D01*
X32309939Y-48295270D01*
X32308620Y-48296774D01*
X32306658Y-48296384D01*
X32306015Y-48295270D01*
X32303435Y-48282298D01*
X32292710Y-48266247D01*
X31232330Y-47205867D01*
X31216279Y-47195142D01*
X31203307Y-47192562D01*
X31201803Y-47191243D01*
X31202193Y-47189281D01*
X31203307Y-47188638D01*
X31219575Y-47185402D01*
X31219166Y-47183350D01*
X31219809Y-47181456D01*
X31220949Y-47180968D01*
X31243532Y-47178943D01*
X31298219Y-47136448D01*
X31315772Y-47086672D01*
X31317291Y-47085371D01*
X31318048Y-47085375D01*
X31319344Y-47085633D01*
X31322580Y-47069365D01*
X31323899Y-47067861D01*
X31325861Y-47068251D01*
G37*
G36*
X27642391Y-46502566D02*
G01*
X27643034Y-46503680D01*
X27646270Y-46519948D01*
X27648322Y-46519539D01*
X27650216Y-46520182D01*
X27650704Y-46521322D01*
X27652729Y-46543905D01*
X27695224Y-46598592D01*
X27745001Y-46616145D01*
X27746302Y-46617664D01*
X27746298Y-46618421D01*
X27746040Y-46619717D01*
X27762308Y-46622953D01*
X27763812Y-46624272D01*
X27763422Y-46626234D01*
X27762308Y-46626877D01*
X27749336Y-46629457D01*
X27733285Y-46640182D01*
X26672905Y-47700562D01*
X26662180Y-47716613D01*
X26659600Y-47729585D01*
X26658281Y-47731089D01*
X26656319Y-47730699D01*
X26655676Y-47729585D01*
X26652440Y-47713317D01*
X26650388Y-47713726D01*
X26648494Y-47713083D01*
X26648006Y-47711943D01*
X26645981Y-47689360D01*
X26603486Y-47634673D01*
X26553709Y-47617120D01*
X26552408Y-47615601D01*
X26552412Y-47614844D01*
X26552670Y-47613548D01*
X26536402Y-47610312D01*
X26534898Y-47608993D01*
X26535288Y-47607031D01*
X26536402Y-47606388D01*
X26549374Y-47603808D01*
X26565425Y-47593083D01*
X27625805Y-46532703D01*
X27636530Y-46516652D01*
X27639110Y-46503680D01*
X27640429Y-46502176D01*
X27642391Y-46502566D01*
G37*
G36*
X31891547Y-46502566D02*
G01*
X31892190Y-46503680D01*
X31894770Y-46516652D01*
X31905495Y-46532703D01*
X32965875Y-47593083D01*
X32981926Y-47603808D01*
X32994898Y-47606388D01*
X32996402Y-47607707D01*
X32996012Y-47609669D01*
X32994898Y-47610312D01*
X32978630Y-47613548D01*
X32979039Y-47615603D01*
X32978396Y-47617497D01*
X32977256Y-47617985D01*
X32954649Y-47620016D01*
X32899970Y-47662521D01*
X32882436Y-47712279D01*
X32880917Y-47713580D01*
X32880160Y-47713576D01*
X32878860Y-47713317D01*
X32875624Y-47729585D01*
X32874305Y-47731089D01*
X32872343Y-47730699D01*
X32871700Y-47729585D01*
X32869120Y-47716613D01*
X32858395Y-47700562D01*
X31798015Y-46640182D01*
X31781964Y-46629457D01*
X31768992Y-46626877D01*
X31767488Y-46625558D01*
X31767878Y-46623596D01*
X31768992Y-46622953D01*
X31785260Y-46619717D01*
X31784851Y-46617662D01*
X31785494Y-46615768D01*
X31786634Y-46615280D01*
X31809241Y-46613249D01*
X31863920Y-46570744D01*
X31881454Y-46520986D01*
X31882973Y-46519685D01*
X31883730Y-46519689D01*
X31885030Y-46519948D01*
X31888266Y-46503680D01*
X31889585Y-46502176D01*
X31891547Y-46502566D01*
G37*
G36*
X27076706Y-45936880D02*
G01*
X27077349Y-45937994D01*
X27080585Y-45954262D01*
X27082640Y-45953853D01*
X27084534Y-45954496D01*
X27085022Y-45955636D01*
X27087053Y-45978243D01*
X27129558Y-46032922D01*
X27179316Y-46050456D01*
X27180617Y-46051975D01*
X27180613Y-46052732D01*
X27180354Y-46054032D01*
X27196622Y-46057268D01*
X27198126Y-46058587D01*
X27197736Y-46060549D01*
X27196622Y-46061192D01*
X27183650Y-46063772D01*
X27167599Y-46074497D01*
X26107219Y-47134877D01*
X26096494Y-47150928D01*
X26093914Y-47163900D01*
X26092595Y-47165404D01*
X26090633Y-47165014D01*
X26089990Y-47163900D01*
X26086754Y-47147632D01*
X26084699Y-47148041D01*
X26082805Y-47147398D01*
X26082317Y-47146258D01*
X26080286Y-47123651D01*
X26037781Y-47068972D01*
X25988023Y-47051438D01*
X25986722Y-47049919D01*
X25986726Y-47049162D01*
X25986985Y-47047862D01*
X25970717Y-47044626D01*
X25969213Y-47043307D01*
X25969603Y-47041345D01*
X25970717Y-47040702D01*
X25983689Y-47038122D01*
X25999740Y-47027397D01*
X27060120Y-45967017D01*
X27070845Y-45950966D01*
X27073425Y-45937994D01*
X27074744Y-45936490D01*
X27076706Y-45936880D01*
G37*
G36*
X32457232Y-45936880D02*
G01*
X32457875Y-45937994D01*
X32460455Y-45950966D01*
X32471180Y-45967017D01*
X33531560Y-47027397D01*
X33547611Y-47038122D01*
X33560583Y-47040702D01*
X33562087Y-47042021D01*
X33561697Y-47043983D01*
X33560583Y-47044626D01*
X33544315Y-47047862D01*
X33544724Y-47049914D01*
X33544081Y-47051808D01*
X33542941Y-47052296D01*
X33520358Y-47054321D01*
X33465671Y-47096816D01*
X33448118Y-47146593D01*
X33446599Y-47147894D01*
X33445842Y-47147890D01*
X33444546Y-47147632D01*
X33441310Y-47163900D01*
X33439991Y-47165404D01*
X33438029Y-47165014D01*
X33437386Y-47163900D01*
X33434806Y-47150928D01*
X33424081Y-47134877D01*
X32363701Y-46074497D01*
X32347650Y-46063772D01*
X32334678Y-46061192D01*
X32333174Y-46059873D01*
X32333564Y-46057911D01*
X32334678Y-46057268D01*
X32350946Y-46054032D01*
X32350537Y-46051980D01*
X32351180Y-46050086D01*
X32352320Y-46049598D01*
X32374903Y-46047573D01*
X32429590Y-46005078D01*
X32447143Y-45955301D01*
X32448662Y-45954000D01*
X32449419Y-45954004D01*
X32450715Y-45954262D01*
X32453951Y-45937994D01*
X32455270Y-45936490D01*
X32457232Y-45936880D01*
G37*
G36*
X26511020Y-45371195D02*
G01*
X26511663Y-45372309D01*
X26514899Y-45388577D01*
X26516951Y-45388168D01*
X26518845Y-45388811D01*
X26519333Y-45389951D01*
X26521358Y-45412534D01*
X26563853Y-45467221D01*
X26613630Y-45484774D01*
X26614931Y-45486293D01*
X26614927Y-45487050D01*
X26614669Y-45488346D01*
X26630937Y-45491582D01*
X26632441Y-45492901D01*
X26632051Y-45494863D01*
X26630937Y-45495506D01*
X26617965Y-45498086D01*
X26601914Y-45508811D01*
X25541534Y-46569191D01*
X25530809Y-46585242D01*
X25528229Y-46598214D01*
X25526910Y-46599718D01*
X25524948Y-46599328D01*
X25524305Y-46598214D01*
X25521069Y-46581946D01*
X25519017Y-46582355D01*
X25517123Y-46581712D01*
X25516635Y-46580572D01*
X25514610Y-46557989D01*
X25472115Y-46503302D01*
X25422338Y-46485749D01*
X25421037Y-46484230D01*
X25421041Y-46483473D01*
X25421299Y-46482177D01*
X25405031Y-46478941D01*
X25403527Y-46477622D01*
X25403917Y-46475660D01*
X25405031Y-46475017D01*
X25418003Y-46472437D01*
X25434054Y-46461712D01*
X26494434Y-45401332D01*
X26505159Y-45385281D01*
X26507739Y-45372309D01*
X26509058Y-45370805D01*
X26511020Y-45371195D01*
G37*
G36*
X33022918Y-45371195D02*
G01*
X33023561Y-45372309D01*
X33026141Y-45385281D01*
X33036866Y-45401332D01*
X34097246Y-46461712D01*
X34113297Y-46472437D01*
X34126269Y-46475017D01*
X34127773Y-46476336D01*
X34127383Y-46478298D01*
X34126269Y-46478941D01*
X34110001Y-46482177D01*
X34110410Y-46484232D01*
X34109767Y-46486126D01*
X34108627Y-46486614D01*
X34086020Y-46488645D01*
X34031341Y-46531150D01*
X34013807Y-46580908D01*
X34012288Y-46582209D01*
X34011531Y-46582205D01*
X34010231Y-46581946D01*
X34006995Y-46598214D01*
X34005676Y-46599718D01*
X34003714Y-46599328D01*
X34003071Y-46598214D01*
X34000491Y-46585242D01*
X33989766Y-46569191D01*
X32929386Y-45508811D01*
X32913335Y-45498086D01*
X32900363Y-45495506D01*
X32898859Y-45494187D01*
X32899249Y-45492225D01*
X32900363Y-45491582D01*
X32916631Y-45488346D01*
X32916222Y-45486291D01*
X32916865Y-45484397D01*
X32918005Y-45483909D01*
X32940612Y-45481878D01*
X32995291Y-45439373D01*
X33012825Y-45389615D01*
X33014344Y-45388314D01*
X33015101Y-45388318D01*
X33016401Y-45388577D01*
X33019637Y-45372309D01*
X33020956Y-45370805D01*
X33022918Y-45371195D01*
G37*
G36*
X33588603Y-44805509D02*
G01*
X33589246Y-44806623D01*
X33591826Y-44819595D01*
X33602551Y-44835646D01*
X34662931Y-45896026D01*
X34678982Y-45906751D01*
X34691954Y-45909331D01*
X34693458Y-45910650D01*
X34693068Y-45912612D01*
X34691954Y-45913255D01*
X34675686Y-45916491D01*
X34676095Y-45918543D01*
X34675452Y-45920437D01*
X34674312Y-45920925D01*
X34651729Y-45922950D01*
X34597042Y-45965445D01*
X34579489Y-46015222D01*
X34577970Y-46016523D01*
X34577213Y-46016519D01*
X34575917Y-46016261D01*
X34572681Y-46032529D01*
X34571362Y-46034033D01*
X34569400Y-46033643D01*
X34568757Y-46032529D01*
X34566177Y-46019557D01*
X34555452Y-46003506D01*
X33495072Y-44943126D01*
X33479021Y-44932401D01*
X33466049Y-44929821D01*
X33464545Y-44928502D01*
X33464935Y-44926540D01*
X33466049Y-44925897D01*
X33482317Y-44922661D01*
X33481908Y-44920609D01*
X33482551Y-44918715D01*
X33483691Y-44918227D01*
X33506274Y-44916202D01*
X33560961Y-44873707D01*
X33578514Y-44823930D01*
X33580033Y-44822629D01*
X33580790Y-44822633D01*
X33582086Y-44822891D01*
X33585322Y-44806623D01*
X33586641Y-44805119D01*
X33588603Y-44805509D01*
G37*
G36*
X25945335Y-44805509D02*
G01*
X25945978Y-44806623D01*
X25949214Y-44822891D01*
X25951269Y-44822482D01*
X25953163Y-44823125D01*
X25953651Y-44824265D01*
X25955682Y-44846872D01*
X25998187Y-44901551D01*
X26047945Y-44919085D01*
X26049246Y-44920604D01*
X26049242Y-44921361D01*
X26048983Y-44922661D01*
X26065251Y-44925897D01*
X26066755Y-44927216D01*
X26066365Y-44929178D01*
X26065251Y-44929821D01*
X26052279Y-44932401D01*
X26036228Y-44943126D01*
X24975848Y-46003506D01*
X24965123Y-46019557D01*
X24962543Y-46032529D01*
X24961224Y-46034033D01*
X24959262Y-46033643D01*
X24958619Y-46032529D01*
X24955383Y-46016261D01*
X24953328Y-46016670D01*
X24951434Y-46016027D01*
X24950946Y-46014887D01*
X24948915Y-45992280D01*
X24906410Y-45937601D01*
X24856652Y-45920067D01*
X24855351Y-45918548D01*
X24855355Y-45917791D01*
X24855614Y-45916491D01*
X24839346Y-45913255D01*
X24837842Y-45911936D01*
X24838232Y-45909974D01*
X24839346Y-45909331D01*
X24852318Y-45906751D01*
X24868369Y-45896026D01*
X25928749Y-44835646D01*
X25939474Y-44819595D01*
X25942054Y-44806623D01*
X25943373Y-44805119D01*
X25945335Y-44805509D01*
G37*
G36*
X25379649Y-44239824D02*
G01*
X25380292Y-44240938D01*
X25383528Y-44257206D01*
X25385580Y-44256797D01*
X25387474Y-44257440D01*
X25387962Y-44258580D01*
X25389987Y-44281163D01*
X25432482Y-44335850D01*
X25482259Y-44353403D01*
X25483560Y-44354922D01*
X25483556Y-44355679D01*
X25483298Y-44356975D01*
X25499566Y-44360211D01*
X25501070Y-44361530D01*
X25500680Y-44363492D01*
X25499566Y-44364135D01*
X25486594Y-44366715D01*
X25470543Y-44377440D01*
X24410163Y-45437820D01*
X24399438Y-45453871D01*
X24396858Y-45466843D01*
X24395539Y-45468347D01*
X24393577Y-45467957D01*
X24392934Y-45466843D01*
X24389698Y-45450575D01*
X24387646Y-45450984D01*
X24385752Y-45450341D01*
X24385264Y-45449201D01*
X24383239Y-45426618D01*
X24340744Y-45371931D01*
X24290967Y-45354378D01*
X24289666Y-45352859D01*
X24289670Y-45352102D01*
X24289928Y-45350806D01*
X24273660Y-45347570D01*
X24272156Y-45346251D01*
X24272546Y-45344289D01*
X24273660Y-45343646D01*
X24286632Y-45341066D01*
X24302683Y-45330341D01*
X25363063Y-44269961D01*
X25373788Y-44253910D01*
X25376368Y-44240938D01*
X25377687Y-44239434D01*
X25379649Y-44239824D01*
G37*
G36*
X34154289Y-44239824D02*
G01*
X34154932Y-44240938D01*
X34157512Y-44253910D01*
X34168237Y-44269961D01*
X35228617Y-45330341D01*
X35244668Y-45341066D01*
X35257640Y-45343646D01*
X35259144Y-45344965D01*
X35258754Y-45346927D01*
X35257640Y-45347570D01*
X35241372Y-45350806D01*
X35241781Y-45352861D01*
X35241138Y-45354755D01*
X35239998Y-45355243D01*
X35217391Y-45357274D01*
X35162712Y-45399779D01*
X35145178Y-45449537D01*
X35143659Y-45450838D01*
X35142902Y-45450834D01*
X35141602Y-45450575D01*
X35138366Y-45466843D01*
X35137047Y-45468347D01*
X35135085Y-45467957D01*
X35134442Y-45466843D01*
X35131862Y-45453871D01*
X35121137Y-45437820D01*
X34060757Y-44377440D01*
X34044706Y-44366715D01*
X34031734Y-44364135D01*
X34030230Y-44362816D01*
X34030620Y-44360854D01*
X34031734Y-44360211D01*
X34048002Y-44356975D01*
X34047593Y-44354920D01*
X34048236Y-44353026D01*
X34049376Y-44352538D01*
X34071983Y-44350507D01*
X34126662Y-44308002D01*
X34144196Y-44258244D01*
X34145715Y-44256943D01*
X34146472Y-44256947D01*
X34147772Y-44257206D01*
X34151008Y-44240938D01*
X34152327Y-44239434D01*
X34154289Y-44239824D01*
G37*
G36*
X24813964Y-43674138D02*
G01*
X24814607Y-43675252D01*
X24817843Y-43691520D01*
X24819898Y-43691111D01*
X24821792Y-43691754D01*
X24822280Y-43692894D01*
X24824311Y-43715501D01*
X24866816Y-43770180D01*
X24916574Y-43787714D01*
X24917875Y-43789233D01*
X24917871Y-43789990D01*
X24917612Y-43791290D01*
X24933880Y-43794526D01*
X24935384Y-43795845D01*
X24934994Y-43797807D01*
X24933880Y-43798450D01*
X24920908Y-43801030D01*
X24904857Y-43811755D01*
X23844477Y-44872135D01*
X23833752Y-44888186D01*
X23831172Y-44901158D01*
X23829853Y-44902662D01*
X23827891Y-44902272D01*
X23827248Y-44901158D01*
X23824012Y-44884890D01*
X23821957Y-44885299D01*
X23820063Y-44884656D01*
X23819575Y-44883516D01*
X23817544Y-44860909D01*
X23775039Y-44806230D01*
X23725281Y-44788696D01*
X23723980Y-44787177D01*
X23723984Y-44786420D01*
X23724243Y-44785120D01*
X23707975Y-44781884D01*
X23706471Y-44780565D01*
X23706861Y-44778603D01*
X23707975Y-44777960D01*
X23720947Y-44775380D01*
X23736998Y-44764655D01*
X24797378Y-43704275D01*
X24808103Y-43688224D01*
X24810683Y-43675252D01*
X24812002Y-43673748D01*
X24813964Y-43674138D01*
G37*
G36*
X34719974Y-43674138D02*
G01*
X34720617Y-43675252D01*
X34723197Y-43688224D01*
X34733922Y-43704275D01*
X35794302Y-44764655D01*
X35810353Y-44775380D01*
X35823325Y-44777960D01*
X35824829Y-44779279D01*
X35824439Y-44781241D01*
X35823325Y-44781884D01*
X35807057Y-44785120D01*
X35807466Y-44787172D01*
X35806823Y-44789066D01*
X35805683Y-44789554D01*
X35783100Y-44791579D01*
X35728413Y-44834074D01*
X35710860Y-44883851D01*
X35709341Y-44885152D01*
X35708584Y-44885148D01*
X35707288Y-44884890D01*
X35704052Y-44901158D01*
X35702733Y-44902662D01*
X35700771Y-44902272D01*
X35700128Y-44901158D01*
X35697548Y-44888186D01*
X35686823Y-44872135D01*
X34626443Y-43811755D01*
X34610392Y-43801030D01*
X34597420Y-43798450D01*
X34595916Y-43797131D01*
X34596306Y-43795169D01*
X34597420Y-43794526D01*
X34613688Y-43791290D01*
X34613279Y-43789238D01*
X34613922Y-43787344D01*
X34615062Y-43786856D01*
X34637645Y-43784831D01*
X34692332Y-43742336D01*
X34709885Y-43692559D01*
X34711404Y-43691258D01*
X34712161Y-43691262D01*
X34713457Y-43691520D01*
X34716693Y-43675252D01*
X34718012Y-43673748D01*
X34719974Y-43674138D01*
G37*
G36*
X24248279Y-43108453D02*
G01*
X24248922Y-43109567D01*
X24252158Y-43125835D01*
X24254210Y-43125426D01*
X24256104Y-43126069D01*
X24256592Y-43127209D01*
X24258617Y-43149792D01*
X24301112Y-43204479D01*
X24350888Y-43222032D01*
X24352189Y-43223551D01*
X24352185Y-43224308D01*
X24351927Y-43225604D01*
X24368195Y-43228840D01*
X24369699Y-43230159D01*
X24369309Y-43232121D01*
X24368195Y-43232764D01*
X24355223Y-43235344D01*
X24339172Y-43246069D01*
X23278792Y-44306449D01*
X23268067Y-44322500D01*
X23265487Y-44335472D01*
X23264168Y-44336976D01*
X23262206Y-44336586D01*
X23261563Y-44335472D01*
X23258327Y-44319204D01*
X23256275Y-44319613D01*
X23254381Y-44318970D01*
X23253893Y-44317830D01*
X23251868Y-44295247D01*
X23209373Y-44240560D01*
X23159597Y-44223007D01*
X23158296Y-44221488D01*
X23158300Y-44220731D01*
X23158558Y-44219435D01*
X23142290Y-44216199D01*
X23140786Y-44214880D01*
X23141176Y-44212918D01*
X23142290Y-44212275D01*
X23155262Y-44209695D01*
X23171313Y-44198970D01*
X24231693Y-43138590D01*
X24242418Y-43122539D01*
X24244998Y-43109567D01*
X24246317Y-43108063D01*
X24248279Y-43108453D01*
G37*
G36*
X35285659Y-43108453D02*
G01*
X35286302Y-43109567D01*
X35288882Y-43122539D01*
X35299607Y-43138590D01*
X36359987Y-44198970D01*
X36376038Y-44209695D01*
X36389010Y-44212275D01*
X36390514Y-44213594D01*
X36390124Y-44215556D01*
X36389010Y-44216199D01*
X36372742Y-44219435D01*
X36373151Y-44221487D01*
X36372508Y-44223381D01*
X36371368Y-44223869D01*
X36348785Y-44225894D01*
X36294098Y-44268389D01*
X36276545Y-44318165D01*
X36275026Y-44319466D01*
X36274269Y-44319462D01*
X36272973Y-44319204D01*
X36269737Y-44335472D01*
X36268418Y-44336976D01*
X36266456Y-44336586D01*
X36265813Y-44335472D01*
X36263233Y-44322500D01*
X36252508Y-44306449D01*
X35192128Y-43246069D01*
X35176077Y-43235344D01*
X35163105Y-43232764D01*
X35161601Y-43231445D01*
X35161991Y-43229483D01*
X35163105Y-43228840D01*
X35179373Y-43225604D01*
X35178964Y-43223552D01*
X35179607Y-43221658D01*
X35180747Y-43221170D01*
X35203330Y-43219145D01*
X35258017Y-43176650D01*
X35275570Y-43126874D01*
X35277089Y-43125573D01*
X35277846Y-43125577D01*
X35279142Y-43125835D01*
X35282378Y-43109567D01*
X35283697Y-43108063D01*
X35285659Y-43108453D01*
G37*
G36*
X35851345Y-42542768D02*
G01*
X35851988Y-42543882D01*
X35854568Y-42556854D01*
X35865293Y-42572905D01*
X36925673Y-43633285D01*
X36941724Y-43644010D01*
X36954696Y-43646590D01*
X36956200Y-43647909D01*
X36955810Y-43649871D01*
X36954696Y-43650514D01*
X36938428Y-43653750D01*
X36938837Y-43655805D01*
X36938194Y-43657699D01*
X36937054Y-43658187D01*
X36914447Y-43660218D01*
X36859768Y-43702723D01*
X36842234Y-43752481D01*
X36840715Y-43753782D01*
X36839958Y-43753778D01*
X36838658Y-43753519D01*
X36835422Y-43769787D01*
X36834103Y-43771291D01*
X36832141Y-43770901D01*
X36831498Y-43769787D01*
X36828918Y-43756815D01*
X36818193Y-43740764D01*
X35757813Y-42680384D01*
X35741762Y-42669659D01*
X35728790Y-42667079D01*
X35727286Y-42665760D01*
X35727676Y-42663798D01*
X35728790Y-42663155D01*
X35745058Y-42659919D01*
X35744649Y-42657864D01*
X35745292Y-42655970D01*
X35746432Y-42655482D01*
X35769039Y-42653451D01*
X35823718Y-42610946D01*
X35841252Y-42561188D01*
X35842771Y-42559887D01*
X35843528Y-42559891D01*
X35844828Y-42560150D01*
X35848064Y-42543882D01*
X35849383Y-42542378D01*
X35851345Y-42542768D01*
G37*
G36*
X23682593Y-42542768D02*
G01*
X23683236Y-42543882D01*
X23686472Y-42560150D01*
X23688524Y-42559741D01*
X23690418Y-42560384D01*
X23690906Y-42561524D01*
X23692931Y-42584107D01*
X23735426Y-42638794D01*
X23785203Y-42656347D01*
X23786504Y-42657866D01*
X23786500Y-42658623D01*
X23786242Y-42659919D01*
X23802510Y-42663155D01*
X23804014Y-42664474D01*
X23803624Y-42666436D01*
X23802510Y-42667079D01*
X23789538Y-42669659D01*
X23773487Y-42680384D01*
X22713107Y-43740764D01*
X22702382Y-43756815D01*
X22699802Y-43769787D01*
X22698483Y-43771291D01*
X22696521Y-43770901D01*
X22695878Y-43769787D01*
X22692642Y-43753519D01*
X22690590Y-43753928D01*
X22688696Y-43753285D01*
X22688208Y-43752145D01*
X22686183Y-43729562D01*
X22643688Y-43674875D01*
X22593911Y-43657322D01*
X22592610Y-43655803D01*
X22592614Y-43655046D01*
X22592872Y-43653750D01*
X22576604Y-43650514D01*
X22575100Y-43649195D01*
X22575490Y-43647233D01*
X22576604Y-43646590D01*
X22589576Y-43644010D01*
X22605627Y-43633285D01*
X23666007Y-42572905D01*
X23676732Y-42556854D01*
X23679312Y-42543882D01*
X23680631Y-42542378D01*
X23682593Y-42542768D01*
G37*
G36*
X22699159Y-39572919D02*
G01*
X22699802Y-39574033D01*
X22702382Y-39587005D01*
X22713107Y-39603056D01*
X23773487Y-40663436D01*
X23789538Y-40674161D01*
X23802510Y-40676741D01*
X23804014Y-40678060D01*
X23803624Y-40680022D01*
X23802510Y-40680665D01*
X23786242Y-40683901D01*
X23786651Y-40685956D01*
X23786008Y-40687850D01*
X23784868Y-40688338D01*
X23762261Y-40690369D01*
X23707582Y-40732874D01*
X23690048Y-40782632D01*
X23688529Y-40783933D01*
X23687772Y-40783929D01*
X23686472Y-40783670D01*
X23683236Y-40799938D01*
X23681917Y-40801442D01*
X23679955Y-40801052D01*
X23679312Y-40799938D01*
X23676732Y-40786966D01*
X23666007Y-40770915D01*
X22605627Y-39710535D01*
X22589576Y-39699810D01*
X22576604Y-39697230D01*
X22575100Y-39695911D01*
X22575490Y-39693949D01*
X22576604Y-39693306D01*
X22592872Y-39690070D01*
X22592463Y-39688015D01*
X22593106Y-39686121D01*
X22594246Y-39685633D01*
X22616853Y-39683602D01*
X22671532Y-39641097D01*
X22689066Y-39591339D01*
X22690585Y-39590038D01*
X22691342Y-39590042D01*
X22692642Y-39590301D01*
X22695878Y-39574033D01*
X22697197Y-39572529D01*
X22699159Y-39572919D01*
G37*
G36*
X36834779Y-39572919D02*
G01*
X36835422Y-39574033D01*
X36838658Y-39590301D01*
X36840710Y-39589892D01*
X36842604Y-39590535D01*
X36843092Y-39591675D01*
X36845117Y-39614258D01*
X36887612Y-39668945D01*
X36937389Y-39686498D01*
X36938690Y-39688017D01*
X36938686Y-39688774D01*
X36938428Y-39690070D01*
X36954696Y-39693306D01*
X36956200Y-39694625D01*
X36955810Y-39696587D01*
X36954696Y-39697230D01*
X36941724Y-39699810D01*
X36925673Y-39710535D01*
X35865293Y-40770915D01*
X35854568Y-40786966D01*
X35851988Y-40799938D01*
X35850669Y-40801442D01*
X35848707Y-40801052D01*
X35848064Y-40799938D01*
X35844828Y-40783670D01*
X35842776Y-40784079D01*
X35840882Y-40783436D01*
X35840394Y-40782296D01*
X35838369Y-40759713D01*
X35795874Y-40705026D01*
X35746097Y-40687473D01*
X35744796Y-40685954D01*
X35744800Y-40685197D01*
X35745058Y-40683901D01*
X35728790Y-40680665D01*
X35727286Y-40679346D01*
X35727676Y-40677384D01*
X35728790Y-40676741D01*
X35741762Y-40674161D01*
X35757813Y-40663436D01*
X36818193Y-39603056D01*
X36828918Y-39587005D01*
X36831498Y-39574033D01*
X36832817Y-39572529D01*
X36834779Y-39572919D01*
G37*
G36*
X36269094Y-39007234D02*
G01*
X36269737Y-39008348D01*
X36272973Y-39024616D01*
X36275025Y-39024207D01*
X36276919Y-39024850D01*
X36277407Y-39025990D01*
X36279432Y-39048573D01*
X36321927Y-39103260D01*
X36371703Y-39120813D01*
X36373004Y-39122332D01*
X36373000Y-39123089D01*
X36372742Y-39124385D01*
X36389010Y-39127621D01*
X36390514Y-39128940D01*
X36390124Y-39130902D01*
X36389010Y-39131545D01*
X36376038Y-39134125D01*
X36359987Y-39144850D01*
X35299607Y-40205230D01*
X35288882Y-40221281D01*
X35286302Y-40234253D01*
X35284983Y-40235757D01*
X35283021Y-40235367D01*
X35282378Y-40234253D01*
X35279142Y-40217985D01*
X35277090Y-40218394D01*
X35275196Y-40217751D01*
X35274708Y-40216611D01*
X35272683Y-40194028D01*
X35230188Y-40139341D01*
X35180412Y-40121788D01*
X35179111Y-40120269D01*
X35179115Y-40119512D01*
X35179373Y-40118216D01*
X35163105Y-40114980D01*
X35161601Y-40113661D01*
X35161991Y-40111699D01*
X35163105Y-40111056D01*
X35176077Y-40108476D01*
X35192128Y-40097751D01*
X36252508Y-39037371D01*
X36263233Y-39021320D01*
X36265813Y-39008348D01*
X36267132Y-39006844D01*
X36269094Y-39007234D01*
G37*
G36*
X23264844Y-39007234D02*
G01*
X23265487Y-39008348D01*
X23268067Y-39021320D01*
X23278792Y-39037371D01*
X24339172Y-40097751D01*
X24355223Y-40108476D01*
X24368195Y-40111056D01*
X24369699Y-40112375D01*
X24369309Y-40114337D01*
X24368195Y-40114980D01*
X24351927Y-40118216D01*
X24352336Y-40120268D01*
X24351693Y-40122162D01*
X24350553Y-40122650D01*
X24327970Y-40124675D01*
X24273283Y-40167170D01*
X24255730Y-40216946D01*
X24254211Y-40218247D01*
X24253454Y-40218243D01*
X24252158Y-40217985D01*
X24248922Y-40234253D01*
X24247603Y-40235757D01*
X24245641Y-40235367D01*
X24244998Y-40234253D01*
X24242418Y-40221281D01*
X24231693Y-40205230D01*
X23171313Y-39144850D01*
X23155262Y-39134125D01*
X23142290Y-39131545D01*
X23140786Y-39130226D01*
X23141176Y-39128264D01*
X23142290Y-39127621D01*
X23158558Y-39124385D01*
X23158149Y-39122333D01*
X23158792Y-39120439D01*
X23159932Y-39119951D01*
X23182515Y-39117926D01*
X23237202Y-39075431D01*
X23254755Y-39025655D01*
X23256274Y-39024354D01*
X23257031Y-39024358D01*
X23258327Y-39024616D01*
X23261563Y-39008348D01*
X23262882Y-39006844D01*
X23264844Y-39007234D01*
G37*
G36*
X23830529Y-38441548D02*
G01*
X23831172Y-38442662D01*
X23833752Y-38455634D01*
X23844477Y-38471685D01*
X24904857Y-39532065D01*
X24920908Y-39542790D01*
X24933880Y-39545370D01*
X24935384Y-39546689D01*
X24934994Y-39548651D01*
X24933880Y-39549294D01*
X24917612Y-39552530D01*
X24918021Y-39554582D01*
X24917378Y-39556476D01*
X24916238Y-39556964D01*
X24893655Y-39558989D01*
X24838968Y-39601484D01*
X24821415Y-39651261D01*
X24819896Y-39652562D01*
X24819139Y-39652558D01*
X24817843Y-39652300D01*
X24814607Y-39668568D01*
X24813288Y-39670072D01*
X24811326Y-39669682D01*
X24810683Y-39668568D01*
X24808103Y-39655596D01*
X24797378Y-39639545D01*
X23736998Y-38579165D01*
X23720947Y-38568440D01*
X23707975Y-38565860D01*
X23706471Y-38564541D01*
X23706861Y-38562579D01*
X23707975Y-38561936D01*
X23724243Y-38558700D01*
X23723834Y-38556648D01*
X23724477Y-38554754D01*
X23725617Y-38554266D01*
X23748200Y-38552241D01*
X23802887Y-38509746D01*
X23820440Y-38459969D01*
X23821959Y-38458668D01*
X23822716Y-38458672D01*
X23824012Y-38458930D01*
X23827248Y-38442662D01*
X23828567Y-38441158D01*
X23830529Y-38441548D01*
G37*
G36*
X35703409Y-38441548D02*
G01*
X35704052Y-38442662D01*
X35707288Y-38458930D01*
X35709343Y-38458521D01*
X35711237Y-38459164D01*
X35711725Y-38460304D01*
X35713756Y-38482911D01*
X35756261Y-38537590D01*
X35806019Y-38555124D01*
X35807320Y-38556643D01*
X35807316Y-38557400D01*
X35807057Y-38558700D01*
X35823325Y-38561936D01*
X35824829Y-38563255D01*
X35824439Y-38565217D01*
X35823325Y-38565860D01*
X35810353Y-38568440D01*
X35794302Y-38579165D01*
X34733922Y-39639545D01*
X34723197Y-39655596D01*
X34720617Y-39668568D01*
X34719298Y-39670072D01*
X34717336Y-39669682D01*
X34716693Y-39668568D01*
X34713457Y-39652300D01*
X34711402Y-39652709D01*
X34709508Y-39652066D01*
X34709020Y-39650926D01*
X34706989Y-39628319D01*
X34664484Y-39573640D01*
X34614726Y-39556106D01*
X34613425Y-39554587D01*
X34613429Y-39553830D01*
X34613688Y-39552530D01*
X34597420Y-39549294D01*
X34595916Y-39547975D01*
X34596306Y-39546013D01*
X34597420Y-39545370D01*
X34610392Y-39542790D01*
X34626443Y-39532065D01*
X35686823Y-38471685D01*
X35697548Y-38455634D01*
X35700128Y-38442662D01*
X35701447Y-38441158D01*
X35703409Y-38441548D01*
G37*
G36*
X35137723Y-37875863D02*
G01*
X35138366Y-37876977D01*
X35141602Y-37893245D01*
X35143654Y-37892836D01*
X35145548Y-37893479D01*
X35146036Y-37894619D01*
X35148061Y-37917202D01*
X35190556Y-37971889D01*
X35240333Y-37989442D01*
X35241634Y-37990961D01*
X35241630Y-37991718D01*
X35241372Y-37993014D01*
X35257640Y-37996250D01*
X35259144Y-37997569D01*
X35258754Y-37999531D01*
X35257640Y-38000174D01*
X35244668Y-38002754D01*
X35228617Y-38013479D01*
X34168237Y-39073859D01*
X34157512Y-39089910D01*
X34154932Y-39102882D01*
X34153613Y-39104386D01*
X34151651Y-39103996D01*
X34151008Y-39102882D01*
X34147772Y-39086614D01*
X34145720Y-39087023D01*
X34143826Y-39086380D01*
X34143338Y-39085240D01*
X34141313Y-39062657D01*
X34098818Y-39007970D01*
X34049041Y-38990417D01*
X34047740Y-38988898D01*
X34047744Y-38988141D01*
X34048002Y-38986845D01*
X34031734Y-38983609D01*
X34030230Y-38982290D01*
X34030620Y-38980328D01*
X34031734Y-38979685D01*
X34044706Y-38977105D01*
X34060757Y-38966380D01*
X35121137Y-37906000D01*
X35131862Y-37889949D01*
X35134442Y-37876977D01*
X35135761Y-37875473D01*
X35137723Y-37875863D01*
G37*
G36*
X24396215Y-37875863D02*
G01*
X24396858Y-37876977D01*
X24399438Y-37889949D01*
X24410163Y-37906000D01*
X25470543Y-38966380D01*
X25486594Y-38977105D01*
X25499566Y-38979685D01*
X25501070Y-38981004D01*
X25500680Y-38982966D01*
X25499566Y-38983609D01*
X25483298Y-38986845D01*
X25483707Y-38988900D01*
X25483064Y-38990794D01*
X25481924Y-38991282D01*
X25459317Y-38993313D01*
X25404638Y-39035818D01*
X25387104Y-39085576D01*
X25385585Y-39086877D01*
X25384828Y-39086873D01*
X25383528Y-39086614D01*
X25380292Y-39102882D01*
X25378973Y-39104386D01*
X25377011Y-39103996D01*
X25376368Y-39102882D01*
X25373788Y-39089910D01*
X25363063Y-39073859D01*
X24302683Y-38013479D01*
X24286632Y-38002754D01*
X24273660Y-38000174D01*
X24272156Y-37998855D01*
X24272546Y-37996893D01*
X24273660Y-37996250D01*
X24289928Y-37993014D01*
X24289519Y-37990959D01*
X24290162Y-37989065D01*
X24291302Y-37988577D01*
X24313909Y-37986546D01*
X24368588Y-37944041D01*
X24386122Y-37894283D01*
X24387641Y-37892982D01*
X24388398Y-37892986D01*
X24389698Y-37893245D01*
X24392934Y-37876977D01*
X24394253Y-37875473D01*
X24396215Y-37875863D01*
G37*
G36*
X34572038Y-37310177D02*
G01*
X34572681Y-37311291D01*
X34575917Y-37327559D01*
X34577972Y-37327150D01*
X34579866Y-37327793D01*
X34580354Y-37328933D01*
X34582385Y-37351540D01*
X34624890Y-37406219D01*
X34674648Y-37423753D01*
X34675949Y-37425272D01*
X34675945Y-37426029D01*
X34675686Y-37427329D01*
X34691954Y-37430565D01*
X34693458Y-37431884D01*
X34693068Y-37433846D01*
X34691954Y-37434489D01*
X34678982Y-37437069D01*
X34662931Y-37447794D01*
X33602551Y-38508174D01*
X33591826Y-38524225D01*
X33589246Y-38537197D01*
X33587927Y-38538701D01*
X33585965Y-38538311D01*
X33585322Y-38537197D01*
X33582086Y-38520929D01*
X33580031Y-38521338D01*
X33578137Y-38520695D01*
X33577649Y-38519555D01*
X33575618Y-38496948D01*
X33533113Y-38442269D01*
X33483355Y-38424735D01*
X33482054Y-38423216D01*
X33482058Y-38422459D01*
X33482317Y-38421159D01*
X33466049Y-38417923D01*
X33464545Y-38416604D01*
X33464935Y-38414642D01*
X33466049Y-38413999D01*
X33479021Y-38411419D01*
X33495072Y-38400694D01*
X34555452Y-37340314D01*
X34566177Y-37324263D01*
X34568757Y-37311291D01*
X34570076Y-37309787D01*
X34572038Y-37310177D01*
G37*
G36*
X24961900Y-37310177D02*
G01*
X24962543Y-37311291D01*
X24965123Y-37324263D01*
X24975848Y-37340314D01*
X26036228Y-38400694D01*
X26052279Y-38411419D01*
X26065251Y-38413999D01*
X26066755Y-38415318D01*
X26066365Y-38417280D01*
X26065251Y-38417923D01*
X26048983Y-38421159D01*
X26049392Y-38423211D01*
X26048749Y-38425105D01*
X26047609Y-38425593D01*
X26025026Y-38427618D01*
X25970339Y-38470113D01*
X25952786Y-38519890D01*
X25951267Y-38521191D01*
X25950510Y-38521187D01*
X25949214Y-38520929D01*
X25945978Y-38537197D01*
X25944659Y-38538701D01*
X25942697Y-38538311D01*
X25942054Y-38537197D01*
X25939474Y-38524225D01*
X25928749Y-38508174D01*
X24868369Y-37447794D01*
X24852318Y-37437069D01*
X24839346Y-37434489D01*
X24837842Y-37433170D01*
X24838232Y-37431208D01*
X24839346Y-37430565D01*
X24855614Y-37427329D01*
X24855205Y-37425277D01*
X24855848Y-37423383D01*
X24856988Y-37422895D01*
X24879571Y-37420870D01*
X24934258Y-37378375D01*
X24951811Y-37328598D01*
X24953330Y-37327297D01*
X24954087Y-37327301D01*
X24955383Y-37327559D01*
X24958619Y-37311291D01*
X24959938Y-37309787D01*
X24961900Y-37310177D01*
G37*
G36*
X34006352Y-36744492D02*
G01*
X34006995Y-36745606D01*
X34010231Y-36761874D01*
X34012283Y-36761465D01*
X34014177Y-36762108D01*
X34014665Y-36763248D01*
X34016690Y-36785831D01*
X34059185Y-36840518D01*
X34108962Y-36858071D01*
X34110263Y-36859590D01*
X34110259Y-36860347D01*
X34110001Y-36861643D01*
X34126269Y-36864879D01*
X34127773Y-36866198D01*
X34127383Y-36868160D01*
X34126269Y-36868803D01*
X34113297Y-36871383D01*
X34097246Y-36882108D01*
X33036866Y-37942488D01*
X33026141Y-37958539D01*
X33023561Y-37971511D01*
X33022242Y-37973015D01*
X33020280Y-37972625D01*
X33019637Y-37971511D01*
X33016401Y-37955243D01*
X33014349Y-37955652D01*
X33012455Y-37955009D01*
X33011967Y-37953869D01*
X33009942Y-37931286D01*
X32967447Y-37876599D01*
X32917670Y-37859046D01*
X32916369Y-37857527D01*
X32916373Y-37856770D01*
X32916631Y-37855474D01*
X32900363Y-37852238D01*
X32898859Y-37850919D01*
X32899249Y-37848957D01*
X32900363Y-37848314D01*
X32913335Y-37845734D01*
X32929386Y-37835009D01*
X33989766Y-36774629D01*
X34000491Y-36758578D01*
X34003071Y-36745606D01*
X34004390Y-36744102D01*
X34006352Y-36744492D01*
G37*
G36*
X25527586Y-36744492D02*
G01*
X25528229Y-36745606D01*
X25530809Y-36758578D01*
X25541534Y-36774629D01*
X26601914Y-37835009D01*
X26617965Y-37845734D01*
X26630937Y-37848314D01*
X26632441Y-37849633D01*
X26632051Y-37851595D01*
X26630937Y-37852238D01*
X26614669Y-37855474D01*
X26615078Y-37857529D01*
X26614435Y-37859423D01*
X26613295Y-37859911D01*
X26590688Y-37861942D01*
X26536009Y-37904447D01*
X26518475Y-37954205D01*
X26516956Y-37955506D01*
X26516199Y-37955502D01*
X26514899Y-37955243D01*
X26511663Y-37971511D01*
X26510344Y-37973015D01*
X26508382Y-37972625D01*
X26507739Y-37971511D01*
X26505159Y-37958539D01*
X26494434Y-37942488D01*
X25434054Y-36882108D01*
X25418003Y-36871383D01*
X25405031Y-36868803D01*
X25403527Y-36867484D01*
X25403917Y-36865522D01*
X25405031Y-36864879D01*
X25421299Y-36861643D01*
X25420890Y-36859588D01*
X25421533Y-36857694D01*
X25422673Y-36857206D01*
X25445280Y-36855175D01*
X25499959Y-36812670D01*
X25517493Y-36762912D01*
X25519012Y-36761611D01*
X25519769Y-36761615D01*
X25521069Y-36761874D01*
X25524305Y-36745606D01*
X25525624Y-36744102D01*
X25527586Y-36744492D01*
G37*
G36*
X33440667Y-36178806D02*
G01*
X33441310Y-36179920D01*
X33444546Y-36196188D01*
X33446601Y-36195779D01*
X33448495Y-36196422D01*
X33448983Y-36197562D01*
X33451014Y-36220169D01*
X33493519Y-36274848D01*
X33543277Y-36292382D01*
X33544578Y-36293901D01*
X33544574Y-36294658D01*
X33544315Y-36295958D01*
X33560583Y-36299194D01*
X33562087Y-36300513D01*
X33561697Y-36302475D01*
X33560583Y-36303118D01*
X33547611Y-36305698D01*
X33531560Y-36316423D01*
X32471180Y-37376803D01*
X32460455Y-37392854D01*
X32457875Y-37405826D01*
X32456556Y-37407330D01*
X32454594Y-37406940D01*
X32453951Y-37405826D01*
X32450715Y-37389558D01*
X32448660Y-37389967D01*
X32446766Y-37389324D01*
X32446278Y-37388184D01*
X32444247Y-37365577D01*
X32401742Y-37310898D01*
X32351984Y-37293364D01*
X32350683Y-37291845D01*
X32350687Y-37291088D01*
X32350946Y-37289788D01*
X32334678Y-37286552D01*
X32333174Y-37285233D01*
X32333564Y-37283271D01*
X32334678Y-37282628D01*
X32347650Y-37280048D01*
X32363701Y-37269323D01*
X33424081Y-36208943D01*
X33434806Y-36192892D01*
X33437386Y-36179920D01*
X33438705Y-36178416D01*
X33440667Y-36178806D01*
G37*
G36*
X26093271Y-36178806D02*
G01*
X26093914Y-36179920D01*
X26096494Y-36192892D01*
X26107219Y-36208943D01*
X27167599Y-37269323D01*
X27183650Y-37280048D01*
X27196622Y-37282628D01*
X27198126Y-37283947D01*
X27197736Y-37285909D01*
X27196622Y-37286552D01*
X27180354Y-37289788D01*
X27180763Y-37291840D01*
X27180120Y-37293734D01*
X27178980Y-37294222D01*
X27156397Y-37296247D01*
X27101710Y-37338742D01*
X27084157Y-37388519D01*
X27082638Y-37389820D01*
X27081881Y-37389816D01*
X27080585Y-37389558D01*
X27077349Y-37405826D01*
X27076030Y-37407330D01*
X27074068Y-37406940D01*
X27073425Y-37405826D01*
X27070845Y-37392854D01*
X27060120Y-37376803D01*
X25999740Y-36316423D01*
X25983689Y-36305698D01*
X25970717Y-36303118D01*
X25969213Y-36301799D01*
X25969603Y-36299837D01*
X25970717Y-36299194D01*
X25986985Y-36295958D01*
X25986576Y-36293906D01*
X25987219Y-36292012D01*
X25988359Y-36291524D01*
X26010942Y-36289499D01*
X26065629Y-36247004D01*
X26083182Y-36197227D01*
X26084701Y-36195926D01*
X26085458Y-36195930D01*
X26086754Y-36196188D01*
X26089990Y-36179920D01*
X26091309Y-36178416D01*
X26093271Y-36178806D01*
G37*
G36*
X26658957Y-35613121D02*
G01*
X26659600Y-35614235D01*
X26662180Y-35627207D01*
X26672905Y-35643258D01*
X27733285Y-36703638D01*
X27749336Y-36714363D01*
X27762308Y-36716943D01*
X27763812Y-36718262D01*
X27763422Y-36720224D01*
X27762308Y-36720867D01*
X27746040Y-36724103D01*
X27746449Y-36726158D01*
X27745806Y-36728052D01*
X27744666Y-36728540D01*
X27722059Y-36730571D01*
X27667380Y-36773076D01*
X27649846Y-36822834D01*
X27648327Y-36824135D01*
X27647570Y-36824131D01*
X27646270Y-36823872D01*
X27643034Y-36840140D01*
X27641715Y-36841644D01*
X27639753Y-36841254D01*
X27639110Y-36840140D01*
X27636530Y-36827168D01*
X27625805Y-36811117D01*
X26565425Y-35750737D01*
X26549374Y-35740012D01*
X26536402Y-35737432D01*
X26534898Y-35736113D01*
X26535288Y-35734151D01*
X26536402Y-35733508D01*
X26552670Y-35730272D01*
X26552261Y-35728217D01*
X26552904Y-35726323D01*
X26554044Y-35725835D01*
X26576651Y-35723804D01*
X26631330Y-35681299D01*
X26648864Y-35631541D01*
X26650383Y-35630240D01*
X26651140Y-35630244D01*
X26652440Y-35630503D01*
X26655676Y-35614235D01*
X26656995Y-35612731D01*
X26658957Y-35613121D01*
G37*
G36*
X32874981Y-35613121D02*
G01*
X32875624Y-35614235D01*
X32878860Y-35630503D01*
X32880912Y-35630094D01*
X32882806Y-35630737D01*
X32883294Y-35631877D01*
X32885319Y-35654460D01*
X32927814Y-35709147D01*
X32977591Y-35726700D01*
X32978892Y-35728219D01*
X32978888Y-35728976D01*
X32978630Y-35730272D01*
X32994898Y-35733508D01*
X32996402Y-35734827D01*
X32996012Y-35736789D01*
X32994898Y-35737432D01*
X32981926Y-35740012D01*
X32965875Y-35750737D01*
X31905495Y-36811117D01*
X31894770Y-36827168D01*
X31892190Y-36840140D01*
X31890871Y-36841644D01*
X31888909Y-36841254D01*
X31888266Y-36840140D01*
X31885030Y-36823872D01*
X31882978Y-36824281D01*
X31881084Y-36823638D01*
X31880596Y-36822498D01*
X31878571Y-36799915D01*
X31836076Y-36745228D01*
X31786299Y-36727675D01*
X31784998Y-36726156D01*
X31785002Y-36725399D01*
X31785260Y-36724103D01*
X31768992Y-36720867D01*
X31767488Y-36719548D01*
X31767878Y-36717586D01*
X31768992Y-36716943D01*
X31781964Y-36714363D01*
X31798015Y-36703638D01*
X32858395Y-35643258D01*
X32869120Y-35627207D01*
X32871700Y-35614235D01*
X32873019Y-35612731D01*
X32874981Y-35613121D01*
G37*
G36*
X27224642Y-35047436D02*
G01*
X27225285Y-35048550D01*
X27227865Y-35061522D01*
X27238590Y-35077573D01*
X28298970Y-36137953D01*
X28315021Y-36148678D01*
X28327993Y-36151258D01*
X28329497Y-36152577D01*
X28329107Y-36154539D01*
X28327993Y-36155182D01*
X28311725Y-36158418D01*
X28312134Y-36160470D01*
X28311491Y-36162364D01*
X28310351Y-36162852D01*
X28287768Y-36164877D01*
X28233081Y-36207372D01*
X28215528Y-36257148D01*
X28214009Y-36258449D01*
X28213252Y-36258445D01*
X28211956Y-36258187D01*
X28208720Y-36274455D01*
X28207401Y-36275959D01*
X28205439Y-36275569D01*
X28204796Y-36274455D01*
X28202216Y-36261483D01*
X28191491Y-36245432D01*
X27131111Y-35185052D01*
X27115060Y-35174327D01*
X27102088Y-35171747D01*
X27100584Y-35170428D01*
X27100974Y-35168466D01*
X27102088Y-35167823D01*
X27118356Y-35164587D01*
X27117947Y-35162535D01*
X27118590Y-35160641D01*
X27119730Y-35160153D01*
X27142313Y-35158128D01*
X27197000Y-35115633D01*
X27214553Y-35065857D01*
X27216072Y-35064556D01*
X27216829Y-35064560D01*
X27218125Y-35064818D01*
X27221361Y-35048550D01*
X27222680Y-35047046D01*
X27224642Y-35047436D01*
G37*
G36*
X32309296Y-35047436D02*
G01*
X32309939Y-35048550D01*
X32313175Y-35064818D01*
X32315227Y-35064409D01*
X32317121Y-35065052D01*
X32317609Y-35066192D01*
X32319634Y-35088775D01*
X32362129Y-35143462D01*
X32411905Y-35161015D01*
X32413206Y-35162534D01*
X32413202Y-35163291D01*
X32412944Y-35164587D01*
X32429212Y-35167823D01*
X32430716Y-35169142D01*
X32430326Y-35171104D01*
X32429212Y-35171747D01*
X32416240Y-35174327D01*
X32400189Y-35185052D01*
X31339809Y-36245432D01*
X31329084Y-36261483D01*
X31326504Y-36274455D01*
X31325185Y-36275959D01*
X31323223Y-36275569D01*
X31322580Y-36274455D01*
X31319344Y-36258187D01*
X31317292Y-36258596D01*
X31315398Y-36257953D01*
X31314910Y-36256813D01*
X31312885Y-36234230D01*
X31270390Y-36179543D01*
X31220614Y-36161990D01*
X31219313Y-36160471D01*
X31219317Y-36159714D01*
X31219575Y-36158418D01*
X31203307Y-36155182D01*
X31201803Y-36153863D01*
X31202193Y-36151901D01*
X31203307Y-36151258D01*
X31216279Y-36148678D01*
X31232330Y-36137953D01*
X32292710Y-35077573D01*
X32303435Y-35061522D01*
X32306015Y-35048550D01*
X32307334Y-35047046D01*
X32309296Y-35047436D01*
G37*
G36*
X27790327Y-34481750D02*
G01*
X27790970Y-34482864D01*
X27793550Y-34495836D01*
X27804275Y-34511887D01*
X28864655Y-35572267D01*
X28880706Y-35582992D01*
X28893678Y-35585572D01*
X28895182Y-35586891D01*
X28894792Y-35588853D01*
X28893678Y-35589496D01*
X28877410Y-35592732D01*
X28877819Y-35594784D01*
X28877176Y-35596678D01*
X28876036Y-35597166D01*
X28853453Y-35599191D01*
X28798766Y-35641686D01*
X28781213Y-35691463D01*
X28779694Y-35692764D01*
X28778937Y-35692760D01*
X28777641Y-35692502D01*
X28774405Y-35708770D01*
X28773086Y-35710274D01*
X28771124Y-35709884D01*
X28770481Y-35708770D01*
X28767901Y-35695798D01*
X28757176Y-35679747D01*
X27696796Y-34619367D01*
X27680745Y-34608642D01*
X27667773Y-34606062D01*
X27666269Y-34604743D01*
X27666659Y-34602781D01*
X27667773Y-34602138D01*
X27684041Y-34598902D01*
X27683632Y-34596850D01*
X27684275Y-34594956D01*
X27685415Y-34594468D01*
X27707998Y-34592443D01*
X27762685Y-34549948D01*
X27780238Y-34500171D01*
X27781757Y-34498870D01*
X27782514Y-34498874D01*
X27783810Y-34499132D01*
X27787046Y-34482864D01*
X27788365Y-34481360D01*
X27790327Y-34481750D01*
G37*
G36*
X31743611Y-34481750D02*
G01*
X31744254Y-34482864D01*
X31747490Y-34499132D01*
X31749545Y-34498723D01*
X31751439Y-34499366D01*
X31751927Y-34500506D01*
X31753958Y-34523113D01*
X31796463Y-34577792D01*
X31846221Y-34595326D01*
X31847522Y-34596845D01*
X31847518Y-34597602D01*
X31847259Y-34598902D01*
X31863527Y-34602138D01*
X31865031Y-34603457D01*
X31864641Y-34605419D01*
X31863527Y-34606062D01*
X31850555Y-34608642D01*
X31834504Y-34619367D01*
X30774124Y-35679747D01*
X30763399Y-35695798D01*
X30760819Y-35708770D01*
X30759500Y-35710274D01*
X30757538Y-35709884D01*
X30756895Y-35708770D01*
X30753659Y-35692502D01*
X30751604Y-35692911D01*
X30749710Y-35692268D01*
X30749222Y-35691128D01*
X30747191Y-35668521D01*
X30704686Y-35613842D01*
X30654928Y-35596308D01*
X30653627Y-35594789D01*
X30653631Y-35594032D01*
X30653890Y-35592732D01*
X30637622Y-35589496D01*
X30636118Y-35588177D01*
X30636508Y-35586215D01*
X30637622Y-35585572D01*
X30650594Y-35582992D01*
X30666645Y-35572267D01*
X31727025Y-34511887D01*
X31737750Y-34495836D01*
X31740330Y-34482864D01*
X31741649Y-34481360D01*
X31743611Y-34481750D01*
G37*
G36*
X18700335Y-13062379D02*
G01*
X18701016Y-13063883D01*
X18701016Y-14239255D01*
X18700016Y-14240987D01*
X18698016Y-14240987D01*
X18697054Y-14239645D01*
X18695709Y-14232880D01*
X18663470Y-14171247D01*
X18603286Y-14136973D01*
X18534129Y-14140679D01*
X18477904Y-14181220D01*
X18454337Y-14232823D01*
X18452978Y-14239653D01*
X18451659Y-14241157D01*
X18449697Y-14240767D01*
X18449016Y-14239263D01*
X18449016Y-13063891D01*
X18450016Y-13062159D01*
X18452016Y-13062159D01*
X18452978Y-13063501D01*
X18454323Y-13070266D01*
X18486562Y-13131899D01*
X18546746Y-13166173D01*
X18615903Y-13162467D01*
X18672128Y-13121926D01*
X18695695Y-13070323D01*
X18697054Y-13063493D01*
X18698373Y-13061989D01*
X18700335Y-13062379D01*
G37*
G36*
X19650335Y-13062379D02*
G01*
X19651016Y-13063883D01*
X19651016Y-14239255D01*
X19650016Y-14240987D01*
X19648016Y-14240987D01*
X19647054Y-14239645D01*
X19645709Y-14232880D01*
X19613470Y-14171247D01*
X19553286Y-14136973D01*
X19484129Y-14140679D01*
X19427904Y-14181220D01*
X19404337Y-14232823D01*
X19402978Y-14239653D01*
X19401659Y-14241157D01*
X19399697Y-14240767D01*
X19399016Y-14239263D01*
X19399016Y-13063891D01*
X19400016Y-13062159D01*
X19402016Y-13062159D01*
X19402978Y-13063501D01*
X19404323Y-13070266D01*
X19436562Y-13131899D01*
X19496746Y-13166173D01*
X19565903Y-13162467D01*
X19622128Y-13121926D01*
X19645695Y-13070323D01*
X19647054Y-13063493D01*
X19648373Y-13061989D01*
X19650335Y-13062379D01*
G37*
G36*
X18700335Y-10762379D02*
G01*
X18701016Y-10763883D01*
X18701016Y-11939255D01*
X18700016Y-11940987D01*
X18698016Y-11940987D01*
X18697054Y-11939645D01*
X18695709Y-11932880D01*
X18663470Y-11871247D01*
X18603286Y-11836973D01*
X18534129Y-11840679D01*
X18477904Y-11881220D01*
X18454337Y-11932823D01*
X18452978Y-11939653D01*
X18451659Y-11941157D01*
X18449697Y-11940767D01*
X18449016Y-11939263D01*
X18449016Y-10763891D01*
X18450016Y-10762159D01*
X18452016Y-10762159D01*
X18452978Y-10763501D01*
X18454323Y-10770266D01*
X18486562Y-10831899D01*
X18546746Y-10866173D01*
X18615903Y-10862467D01*
X18672128Y-10821926D01*
X18695695Y-10770323D01*
X18697054Y-10763493D01*
X18698373Y-10761989D01*
X18700335Y-10762379D01*
G37*
G36*
X19650335Y-10762379D02*
G01*
X19651016Y-10763883D01*
X19651016Y-11939255D01*
X19650016Y-11940987D01*
X19648016Y-11940987D01*
X19647054Y-11939645D01*
X19645709Y-11932880D01*
X19613470Y-11871247D01*
X19553286Y-11836973D01*
X19484129Y-11840679D01*
X19427904Y-11881220D01*
X19404337Y-11932823D01*
X19402978Y-11939653D01*
X19401659Y-11941157D01*
X19399697Y-11940767D01*
X19399016Y-11939263D01*
X19399016Y-10763891D01*
X19400016Y-10762159D01*
X19402016Y-10762159D01*
X19402978Y-10763501D01*
X19404323Y-10770266D01*
X19436562Y-10831899D01*
X19496746Y-10866173D01*
X19565903Y-10862467D01*
X19622128Y-10821926D01*
X19645695Y-10770323D01*
X19647054Y-10763493D01*
X19648373Y-10761989D01*
X19650335Y-10762379D01*
G37*
G36*
X21468613Y-6305611D02*
G01*
X21469177Y-6307530D01*
X21468344Y-6308721D01*
X21458380Y-6315380D01*
X21447767Y-6331262D01*
X21444000Y-6350199D01*
X21444000Y-7799801D01*
X21447767Y-7818738D01*
X21458380Y-7834620D01*
X21467922Y-7840996D01*
X21468807Y-7842790D01*
X21467696Y-7844453D01*
X21466213Y-7844568D01*
X21407713Y-7826250D01*
X21344330Y-7844861D01*
X21342387Y-7844389D01*
X21341823Y-7842470D01*
X21342656Y-7841279D01*
X21352620Y-7834620D01*
X21363233Y-7818738D01*
X21367000Y-7799801D01*
X21367000Y-6350199D01*
X21363233Y-6331262D01*
X21352620Y-6315380D01*
X21343078Y-6309004D01*
X21342193Y-6307210D01*
X21343304Y-6305547D01*
X21344787Y-6305432D01*
X21403287Y-6323750D01*
X21466670Y-6305139D01*
X21468613Y-6305611D01*
G37*
G36*
X15793613Y-6305611D02*
G01*
X15794177Y-6307530D01*
X15793344Y-6308721D01*
X15783380Y-6315380D01*
X15772767Y-6331262D01*
X15769000Y-6350199D01*
X15769000Y-7799801D01*
X15772767Y-7818738D01*
X15783380Y-7834620D01*
X15792922Y-7840996D01*
X15793807Y-7842790D01*
X15792696Y-7844453D01*
X15791213Y-7844568D01*
X15732713Y-7826250D01*
X15669330Y-7844861D01*
X15667387Y-7844389D01*
X15666823Y-7842470D01*
X15667656Y-7841279D01*
X15677620Y-7834620D01*
X15688233Y-7818738D01*
X15692000Y-7799801D01*
X15692000Y-6350199D01*
X15688233Y-6331262D01*
X15677620Y-6315380D01*
X15668078Y-6309004D01*
X15667193Y-6307210D01*
X15668304Y-6305547D01*
X15669787Y-6305432D01*
X15728287Y-6323750D01*
X15791670Y-6305139D01*
X15793613Y-6305611D01*
G37*
G36*
X17132633Y-6313517D02*
G01*
X17133197Y-6315436D01*
X17132916Y-6316075D01*
X17122767Y-6331263D01*
X17119000Y-6350199D01*
X17119000Y-7799801D01*
X17122767Y-7818738D01*
X17132814Y-7833773D01*
X17132945Y-7835768D01*
X17131282Y-7836880D01*
X17130553Y-7836793D01*
X17070212Y-7817898D01*
X17005310Y-7836955D01*
X17003367Y-7836483D01*
X17002803Y-7834564D01*
X17003084Y-7833925D01*
X17013233Y-7818737D01*
X17017000Y-7799801D01*
X17017000Y-6350199D01*
X17013233Y-6331262D01*
X17003186Y-6316227D01*
X17003055Y-6314232D01*
X17004718Y-6313120D01*
X17005447Y-6313207D01*
X17065788Y-6332102D01*
X17130690Y-6313045D01*
X17132633Y-6313517D01*
G37*
G36*
X20132633Y-6313517D02*
G01*
X20133197Y-6315436D01*
X20132916Y-6316075D01*
X20122767Y-6331263D01*
X20119000Y-6350199D01*
X20119000Y-7799801D01*
X20122767Y-7818738D01*
X20132814Y-7833773D01*
X20132945Y-7835768D01*
X20131282Y-7836880D01*
X20130553Y-7836793D01*
X20070212Y-7817898D01*
X20005310Y-7836955D01*
X20003367Y-7836483D01*
X20002803Y-7834564D01*
X20003084Y-7833925D01*
X20013233Y-7818737D01*
X20017000Y-7799801D01*
X20017000Y-6350199D01*
X20013233Y-6331262D01*
X20003186Y-6316227D01*
X20003055Y-6314232D01*
X20004718Y-6313120D01*
X20005447Y-6313207D01*
X20065788Y-6332102D01*
X20130690Y-6313045D01*
X20132633Y-6313517D01*
G37*
G36*
X17632633Y-6313517D02*
G01*
X17633197Y-6315436D01*
X17632916Y-6316075D01*
X17622767Y-6331263D01*
X17619000Y-6350199D01*
X17619000Y-7799801D01*
X17622767Y-7818738D01*
X17632814Y-7833773D01*
X17632945Y-7835768D01*
X17631282Y-7836880D01*
X17630553Y-7836793D01*
X17570212Y-7817898D01*
X17505310Y-7836955D01*
X17503367Y-7836483D01*
X17502803Y-7834564D01*
X17503084Y-7833925D01*
X17513233Y-7818737D01*
X17517000Y-7799801D01*
X17517000Y-6350199D01*
X17513233Y-6331262D01*
X17503186Y-6316227D01*
X17503055Y-6314232D01*
X17504718Y-6313120D01*
X17505447Y-6313207D01*
X17565788Y-6332102D01*
X17630690Y-6313045D01*
X17632633Y-6313517D01*
G37*
G36*
X19132633Y-6313517D02*
G01*
X19133197Y-6315436D01*
X19132916Y-6316075D01*
X19122767Y-6331263D01*
X19119000Y-6350199D01*
X19119000Y-7799801D01*
X19122767Y-7818738D01*
X19132814Y-7833773D01*
X19132945Y-7835768D01*
X19131282Y-7836880D01*
X19130553Y-7836793D01*
X19070212Y-7817898D01*
X19005310Y-7836955D01*
X19003367Y-7836483D01*
X19002803Y-7834564D01*
X19003084Y-7833925D01*
X19013233Y-7818737D01*
X19017000Y-7799801D01*
X19017000Y-6350199D01*
X19013233Y-6331262D01*
X19003186Y-6316227D01*
X19003055Y-6314232D01*
X19004718Y-6313120D01*
X19005447Y-6313207D01*
X19065788Y-6332102D01*
X19130690Y-6313045D01*
X19132633Y-6313517D01*
G37*
G36*
X18632633Y-6313517D02*
G01*
X18633197Y-6315436D01*
X18632916Y-6316075D01*
X18622767Y-6331263D01*
X18619000Y-6350199D01*
X18619000Y-7799801D01*
X18622767Y-7818738D01*
X18632814Y-7833773D01*
X18632945Y-7835768D01*
X18631282Y-7836880D01*
X18630553Y-7836793D01*
X18570212Y-7817898D01*
X18505310Y-7836955D01*
X18503367Y-7836483D01*
X18502803Y-7834564D01*
X18503084Y-7833925D01*
X18513233Y-7818737D01*
X18517000Y-7799801D01*
X18517000Y-6350199D01*
X18513233Y-6331262D01*
X18503186Y-6316227D01*
X18503055Y-6314232D01*
X18504718Y-6313120D01*
X18505447Y-6313207D01*
X18565788Y-6332102D01*
X18630690Y-6313045D01*
X18632633Y-6313517D01*
G37*
G36*
X19632633Y-6313517D02*
G01*
X19633197Y-6315436D01*
X19632916Y-6316075D01*
X19622767Y-6331263D01*
X19619000Y-6350199D01*
X19619000Y-7799801D01*
X19622767Y-7818738D01*
X19632814Y-7833773D01*
X19632945Y-7835768D01*
X19631282Y-7836880D01*
X19630553Y-7836793D01*
X19570212Y-7817898D01*
X19505310Y-7836955D01*
X19503367Y-7836483D01*
X19502803Y-7834564D01*
X19503084Y-7833925D01*
X19513233Y-7818737D01*
X19517000Y-7799801D01*
X19517000Y-6350199D01*
X19513233Y-6331262D01*
X19503186Y-6316227D01*
X19503055Y-6314232D01*
X19504718Y-6313120D01*
X19505447Y-6313207D01*
X19565788Y-6332102D01*
X19630690Y-6313045D01*
X19632633Y-6313517D01*
G37*
G36*
X18132633Y-6313517D02*
G01*
X18133197Y-6315436D01*
X18132916Y-6316075D01*
X18122767Y-6331263D01*
X18119000Y-6350199D01*
X18119000Y-7799801D01*
X18122767Y-7818738D01*
X18132814Y-7833773D01*
X18132945Y-7835768D01*
X18131282Y-7836880D01*
X18130553Y-7836793D01*
X18070212Y-7817898D01*
X18005310Y-7836955D01*
X18003367Y-7836483D01*
X18002803Y-7834564D01*
X18003084Y-7833925D01*
X18013233Y-7818737D01*
X18017000Y-7799801D01*
X18017000Y-6350199D01*
X18013233Y-6331262D01*
X18003186Y-6316227D01*
X18003055Y-6314232D01*
X18004718Y-6313120D01*
X18005447Y-6313207D01*
X18065788Y-6332102D01*
X18130690Y-6313045D01*
X18132633Y-6313517D01*
G37*
G36*
X16458660Y-6317493D02*
G01*
X16472452Y-6326709D01*
X16473615Y-6324969D01*
X16475409Y-6324084D01*
X16476560Y-6324545D01*
X16493952Y-6339078D01*
X16562670Y-6347704D01*
X16610288Y-6324918D01*
X16612282Y-6325072D01*
X16612814Y-6325611D01*
X16613548Y-6326709D01*
X16627340Y-6317493D01*
X16629336Y-6317362D01*
X16630447Y-6319025D01*
X16630114Y-6320267D01*
X16622767Y-6331262D01*
X16619000Y-6350199D01*
X16619000Y-7799801D01*
X16622767Y-7818738D01*
X16630114Y-7829733D01*
X16630245Y-7831729D01*
X16628582Y-7832840D01*
X16627340Y-7832507D01*
X16613548Y-7823291D01*
X16612385Y-7825031D01*
X16610591Y-7825916D01*
X16609440Y-7825455D01*
X16592048Y-7810922D01*
X16523330Y-7802296D01*
X16475712Y-7825082D01*
X16473718Y-7824928D01*
X16473186Y-7824389D01*
X16472452Y-7823291D01*
X16458660Y-7832507D01*
X16456664Y-7832638D01*
X16455553Y-7830975D01*
X16455886Y-7829733D01*
X16463233Y-7818738D01*
X16467000Y-7799801D01*
X16467000Y-6350199D01*
X16463233Y-6331262D01*
X16455886Y-6320267D01*
X16455755Y-6318271D01*
X16457418Y-6317160D01*
X16458660Y-6317493D01*
G37*
G36*
X20508660Y-6317493D02*
G01*
X20522452Y-6326709D01*
X20523615Y-6324969D01*
X20525409Y-6324084D01*
X20526560Y-6324545D01*
X20543952Y-6339078D01*
X20612670Y-6347704D01*
X20660288Y-6324918D01*
X20662282Y-6325072D01*
X20662814Y-6325611D01*
X20663548Y-6326709D01*
X20677340Y-6317493D01*
X20679336Y-6317362D01*
X20680447Y-6319025D01*
X20680114Y-6320267D01*
X20672767Y-6331262D01*
X20669000Y-6350199D01*
X20669000Y-7799801D01*
X20672767Y-7818738D01*
X20680114Y-7829733D01*
X20680245Y-7831729D01*
X20678582Y-7832840D01*
X20677340Y-7832507D01*
X20663548Y-7823291D01*
X20662385Y-7825031D01*
X20660591Y-7825916D01*
X20659440Y-7825455D01*
X20642048Y-7810922D01*
X20573330Y-7802296D01*
X20525712Y-7825082D01*
X20523718Y-7824928D01*
X20523186Y-7824389D01*
X20522452Y-7823291D01*
X20508660Y-7832507D01*
X20506664Y-7832638D01*
X20505553Y-7830975D01*
X20505886Y-7829733D01*
X20513233Y-7818738D01*
X20517000Y-7799801D01*
X20517000Y-6350199D01*
X20513233Y-6331262D01*
X20505886Y-6320267D01*
X20505755Y-6318271D01*
X20507418Y-6317160D01*
X20508660Y-6317493D01*
G37*
G36*
X23440919Y-6450850D02*
G01*
X23460596Y-6517865D01*
X23512939Y-6563220D01*
X23581492Y-6573077D01*
X23644565Y-6544272D01*
X23666258Y-6515531D01*
X23668099Y-6514751D01*
X23669696Y-6515956D01*
X23669624Y-6517667D01*
X23663744Y-6528844D01*
X23599056Y-6737171D01*
X23573417Y-6953795D01*
X23581368Y-7075106D01*
X23580483Y-7076900D01*
X23578487Y-7077031D01*
X23577380Y-7075411D01*
X23576195Y-7061871D01*
X23550856Y-6997089D01*
X23494761Y-6956470D01*
X23425609Y-6952627D01*
X23365167Y-6986886D01*
X23352960Y-7001644D01*
X23343464Y-7015156D01*
X23341650Y-7015998D01*
X23340014Y-7014848D01*
X23340128Y-7012952D01*
X23389519Y-6933291D01*
X23431109Y-6790136D01*
X23437000Y-6709922D01*
X23437000Y-6451413D01*
X23438000Y-6449681D01*
X23440000Y-6449681D01*
X23440919Y-6450850D01*
G37*
G36*
X22338358Y-6220441D02*
G01*
X22339000Y-6221909D01*
X22339000Y-6709868D01*
X22359240Y-6857629D01*
X22410315Y-6975655D01*
X22410085Y-6977641D01*
X22408249Y-6978436D01*
X22406831Y-6977582D01*
X22398859Y-6965983D01*
X22398636Y-6965557D01*
X22384157Y-6927239D01*
X22342236Y-6871735D01*
X22277240Y-6847810D01*
X22209630Y-6862822D01*
X22160838Y-6912033D01*
X22145939Y-6970934D01*
X22144545Y-6972368D01*
X22142606Y-6971878D01*
X22142000Y-6970444D01*
X22142000Y-6350199D01*
X22138233Y-6331262D01*
X22130886Y-6320267D01*
X22130755Y-6318271D01*
X22132418Y-6317160D01*
X22133660Y-6317493D01*
X22143426Y-6324018D01*
X22209807Y-6344804D01*
X22276598Y-6326481D01*
X22322924Y-6274907D01*
X22335050Y-6221466D01*
X22336408Y-6219999D01*
X22338358Y-6220441D01*
G37*
G36*
X14800919Y-6221346D02*
G01*
X14820596Y-6288361D01*
X14872939Y-6333716D01*
X14941558Y-6343582D01*
X14992522Y-6324053D01*
X15002340Y-6317493D01*
X15004336Y-6317362D01*
X15005447Y-6319025D01*
X15005114Y-6320267D01*
X14997767Y-6331262D01*
X14994000Y-6350199D01*
X14994000Y-6969833D01*
X14993000Y-6971565D01*
X14991000Y-6971565D01*
X14990081Y-6970396D01*
X14970404Y-6903381D01*
X14918061Y-6858026D01*
X14849508Y-6848169D01*
X14786467Y-6876959D01*
X14758359Y-6916811D01*
X14756544Y-6917650D01*
X14754910Y-6916497D01*
X14754804Y-6915100D01*
X14791109Y-6790136D01*
X14797000Y-6709922D01*
X14797000Y-6221909D01*
X14798000Y-6220177D01*
X14800000Y-6220177D01*
X14800919Y-6221346D01*
G37*
M02*
