G04 #@! TF.GenerationSoftware,KiCad,Pcbnew,(6.0.0)*
G04 #@! TF.CreationDate,2022-02-12T17:38:39+01:00*
G04 #@! TF.ProjectId,plain60-flex-edition,706c6169-6e36-4302-9d66-6c65782d6564,rev?*
G04 #@! TF.SameCoordinates,Original*
G04 #@! TF.FileFunction,Soldermask,Top*
G04 #@! TF.FilePolarity,Negative*
%FSLAX46Y46*%
G04 Gerber Fmt 4.6, Leading zero omitted, Abs format (unit mm)*
G04 Created by KiCad (PCBNEW (6.0.0)) date 2022-02-12 17:38:39*
%MOMM*%
%LPD*%
G01*
G04 APERTURE LIST*
G04 Aperture macros list*
%AMRoundRect*
0 Rectangle with rounded corners*
0 $1 Rounding radius*
0 $2 $3 $4 $5 $6 $7 $8 $9 X,Y pos of 4 corners*
0 Add a 4 corners polygon primitive as box body*
4,1,4,$2,$3,$4,$5,$6,$7,$8,$9,$2,$3,0*
0 Add four circle primitives for the rounded corners*
1,1,$1+$1,$2,$3*
1,1,$1+$1,$4,$5*
1,1,$1+$1,$6,$7*
1,1,$1+$1,$8,$9*
0 Add four rect primitives between the rounded corners*
20,1,$1+$1,$2,$3,$4,$5,0*
20,1,$1+$1,$4,$5,$6,$7,0*
20,1,$1+$1,$6,$7,$8,$9,0*
20,1,$1+$1,$8,$9,$2,$3,0*%
G04 Aperture macros list end*
%ADD10C,2.388000*%
%ADD11C,4.089800*%
%ADD12C,1.803800*%
%ADD13C,3.150000*%
%ADD14O,7.102000X2.602000*%
%ADD15O,5.102000X2.602000*%
%ADD16C,2.102000*%
%ADD17C,0.752000*%
%ADD18O,1.102000X2.202000*%
%ADD19O,1.102000X1.702000*%
%ADD20RoundRect,0.051000X0.850000X0.850000X-0.850000X0.850000X-0.850000X-0.850000X0.850000X-0.850000X0*%
%ADD21O,1.802000X1.802000*%
G04 APERTURE END LIST*
D10*
X19208750Y-42545000D03*
X12858750Y-45085000D03*
D11*
X16668750Y-47625000D03*
D12*
X11588750Y-47625000D03*
X21748750Y-47625000D03*
D10*
X93027500Y-61595000D03*
X86677500Y-64135000D03*
D12*
X85407500Y-66675000D03*
X95567500Y-66675000D03*
D11*
X90487500Y-66675000D03*
D10*
X226377500Y-80645000D03*
X220027500Y-83185000D03*
D12*
X218757500Y-85725000D03*
X228917500Y-85725000D03*
D11*
X223837500Y-85725000D03*
D10*
X16827500Y-80645000D03*
X10477500Y-83185000D03*
D12*
X19367500Y-85725000D03*
X9207500Y-85725000D03*
D11*
X14287500Y-85725000D03*
D10*
X78740000Y-23495000D03*
X72390000Y-26035000D03*
D12*
X71120000Y-28575000D03*
X81280000Y-28575000D03*
D11*
X76200000Y-28575000D03*
D10*
X97790000Y-23495000D03*
X91440000Y-26035000D03*
D12*
X90170000Y-28575000D03*
X100330000Y-28575000D03*
D11*
X95250000Y-28575000D03*
D10*
X154940000Y-23495000D03*
X148590000Y-26035000D03*
D12*
X157480000Y-28575000D03*
X147320000Y-28575000D03*
D11*
X152400000Y-28575000D03*
D10*
X173990000Y-23495000D03*
X167640000Y-26035000D03*
D11*
X171450000Y-28575000D03*
D12*
X176530000Y-28575000D03*
X166370000Y-28575000D03*
D10*
X40640000Y-23495000D03*
X34290000Y-26035000D03*
D11*
X38100000Y-28575000D03*
D12*
X33020000Y-28575000D03*
X43180000Y-28575000D03*
D10*
X135890000Y-23495000D03*
X129540000Y-26035000D03*
D12*
X128270000Y-28575000D03*
X138430000Y-28575000D03*
D11*
X133350000Y-28575000D03*
D10*
X116840000Y-23495000D03*
X110490000Y-26035000D03*
D11*
X114300000Y-28575000D03*
D12*
X109220000Y-28575000D03*
X119380000Y-28575000D03*
D10*
X59690000Y-23495000D03*
X53340000Y-26035000D03*
D12*
X52070000Y-28575000D03*
X62230000Y-28575000D03*
D11*
X57150000Y-28575000D03*
D10*
X16827500Y-23495000D03*
X10477500Y-26035000D03*
D11*
X14287500Y-28575000D03*
D12*
X9207500Y-28575000D03*
X19367500Y-28575000D03*
D13*
X254762000Y-2540000D03*
D11*
X266700000Y-9525000D03*
D13*
X278638000Y-2540000D03*
D12*
X261620000Y-9525000D03*
D11*
X278638000Y-17780000D03*
X254762000Y-17780000D03*
D12*
X271780000Y-9525000D03*
D10*
X269240000Y-4445000D03*
X262890000Y-6985000D03*
X145415000Y-4445000D03*
X139065000Y-6985000D03*
D12*
X147955000Y-9525000D03*
X137795000Y-9525000D03*
D11*
X142875000Y-9525000D03*
D10*
X183515000Y-4445000D03*
X177165000Y-6985000D03*
D12*
X186055000Y-9525000D03*
X175895000Y-9525000D03*
D11*
X180975000Y-9525000D03*
D10*
X88265000Y-4445000D03*
X81915000Y-6985000D03*
D12*
X80645000Y-9525000D03*
D11*
X85725000Y-9525000D03*
D12*
X90805000Y-9525000D03*
D10*
X240665000Y-4445000D03*
X234315000Y-6985000D03*
D12*
X233045000Y-9525000D03*
D11*
X238125000Y-9525000D03*
D12*
X243205000Y-9525000D03*
D10*
X221615000Y-4445000D03*
X215265000Y-6985000D03*
D11*
X219075000Y-9525000D03*
D12*
X224155000Y-9525000D03*
X213995000Y-9525000D03*
D10*
X202565000Y-4445000D03*
X196215000Y-6985000D03*
D12*
X205105000Y-9525000D03*
D11*
X200025000Y-9525000D03*
D12*
X194945000Y-9525000D03*
D10*
X164465000Y-4445000D03*
X158115000Y-6985000D03*
D12*
X167005000Y-9525000D03*
X156845000Y-9525000D03*
D11*
X161925000Y-9525000D03*
D10*
X126365000Y-4445000D03*
X120015000Y-6985000D03*
D12*
X128905000Y-9525000D03*
D11*
X123825000Y-9525000D03*
D12*
X118745000Y-9525000D03*
D10*
X107315000Y-4445000D03*
X100965000Y-6985000D03*
D11*
X104775000Y-9525000D03*
D12*
X99695000Y-9525000D03*
X109855000Y-9525000D03*
D10*
X69215000Y-4445000D03*
X62865000Y-6985000D03*
D12*
X71755000Y-9525000D03*
D11*
X66675000Y-9525000D03*
D12*
X61595000Y-9525000D03*
D10*
X31115000Y-4445000D03*
X24765000Y-6985000D03*
D12*
X33655000Y-9525000D03*
X23495000Y-9525000D03*
D11*
X28575000Y-9525000D03*
D10*
X12065000Y-4445000D03*
X5715000Y-6985000D03*
D11*
X9525000Y-9525000D03*
D12*
X4445000Y-9525000D03*
X14605000Y-9525000D03*
D10*
X50165000Y-4445000D03*
X43815000Y-6985000D03*
D11*
X47625000Y-9525000D03*
D12*
X42545000Y-9525000D03*
X52705000Y-9525000D03*
D10*
X40640000Y-80645000D03*
X34290000Y-83185000D03*
D12*
X43180000Y-85725000D03*
D11*
X38100000Y-85725000D03*
D12*
X33020000Y-85725000D03*
D10*
X150177500Y-61595000D03*
X143827500Y-64135000D03*
D12*
X152717500Y-66675000D03*
X142557500Y-66675000D03*
D11*
X147637500Y-66675000D03*
D10*
X252571460Y-61595056D03*
X246221460Y-64135056D03*
D12*
X244951460Y-66675056D03*
X255111460Y-66675056D03*
D11*
X250031460Y-66675056D03*
D10*
X14446250Y-42545000D03*
X8096250Y-45085000D03*
D12*
X16986250Y-47625000D03*
X6826250Y-47625000D03*
D11*
X11906250Y-47625000D03*
D10*
X226377500Y-61595000D03*
X220027500Y-64135000D03*
D11*
X223837500Y-66675000D03*
D12*
X228917500Y-66675000D03*
X218757500Y-66675000D03*
D10*
X169227500Y-61595000D03*
X162877500Y-64135000D03*
D12*
X171767500Y-66675000D03*
D11*
X166687500Y-66675000D03*
D12*
X161607500Y-66675000D03*
D10*
X207327500Y-61595000D03*
X200977500Y-64135000D03*
D12*
X209867500Y-66675000D03*
D11*
X204787500Y-66675000D03*
D12*
X199707500Y-66675000D03*
D10*
X131127500Y-61595000D03*
X124777500Y-64135000D03*
D12*
X123507500Y-66675000D03*
D11*
X128587500Y-66675000D03*
D12*
X133667500Y-66675000D03*
D10*
X188277500Y-61595000D03*
X181927500Y-64135000D03*
D12*
X190817500Y-66675000D03*
D11*
X185737500Y-66675000D03*
D12*
X180657500Y-66675000D03*
D10*
X14446250Y-61595000D03*
X8096250Y-64135000D03*
D12*
X6826250Y-66675000D03*
X16986250Y-66675000D03*
D11*
X11906250Y-66675000D03*
D10*
X250190000Y-23495000D03*
X243840000Y-26035000D03*
D12*
X252730000Y-28575000D03*
X242570000Y-28575000D03*
D11*
X247650000Y-28575000D03*
D10*
X54927500Y-61595000D03*
X48577500Y-64135000D03*
D12*
X47307500Y-66675000D03*
D11*
X52387500Y-66675000D03*
D12*
X57467500Y-66675000D03*
D10*
X193040000Y-23495000D03*
X186690000Y-26035000D03*
D12*
X195580000Y-28575000D03*
D11*
X190500000Y-28575000D03*
D12*
X185420000Y-28575000D03*
D10*
X121602500Y-42545000D03*
X115252500Y-45085000D03*
D12*
X124142500Y-47625000D03*
D11*
X119062500Y-47625000D03*
D12*
X113982500Y-47625000D03*
D10*
X64452500Y-42545000D03*
X58102500Y-45085000D03*
D12*
X66992500Y-47625000D03*
X56832500Y-47625000D03*
D11*
X61912500Y-47625000D03*
D10*
X278765000Y-61595000D03*
X272415000Y-64135000D03*
D12*
X271145000Y-66675000D03*
D11*
X276225000Y-66675000D03*
D12*
X281305000Y-66675000D03*
D10*
X178752500Y-42545000D03*
X172402500Y-45085000D03*
D12*
X171132500Y-47625000D03*
X181292500Y-47625000D03*
D11*
X176212500Y-47625000D03*
D10*
X231140000Y-23495000D03*
X224790000Y-26035000D03*
D12*
X223520000Y-28575000D03*
X233680000Y-28575000D03*
D11*
X228600000Y-28575000D03*
D10*
X64452500Y-80645000D03*
X58102500Y-83185000D03*
D12*
X56832500Y-85725000D03*
D11*
X61912500Y-85725000D03*
D12*
X66992500Y-85725000D03*
D10*
X83502500Y-42545000D03*
X77152500Y-45085000D03*
D12*
X86042500Y-47625000D03*
X75882500Y-47625000D03*
D11*
X80962500Y-47625000D03*
D10*
X35877500Y-61595000D03*
X29527500Y-64135000D03*
D11*
X33337500Y-66675000D03*
D12*
X38417500Y-66675000D03*
X28257500Y-66675000D03*
D10*
X254952500Y-42545000D03*
X248602500Y-45085000D03*
D11*
X252412500Y-47625000D03*
D12*
X257492500Y-47625000D03*
X247332500Y-47625000D03*
D10*
X159702500Y-42545000D03*
X153352500Y-45085000D03*
D11*
X157162500Y-47625000D03*
D12*
X162242500Y-47625000D03*
X152082500Y-47625000D03*
D10*
X102552500Y-42545000D03*
X96202500Y-45085000D03*
D12*
X94932500Y-47625000D03*
D11*
X100012500Y-47625000D03*
D12*
X105092500Y-47625000D03*
D10*
X45402500Y-42545000D03*
X39052500Y-45085000D03*
D12*
X47942500Y-47625000D03*
D11*
X42862500Y-47625000D03*
D12*
X37782500Y-47625000D03*
D10*
X197802500Y-42545000D03*
X191452500Y-45085000D03*
D12*
X190182500Y-47625000D03*
D11*
X195262500Y-47625000D03*
D12*
X200342500Y-47625000D03*
D10*
X235902500Y-42545000D03*
X229552500Y-45085000D03*
D12*
X228282500Y-47625000D03*
X238442500Y-47625000D03*
D11*
X233362500Y-47625000D03*
D10*
X216852500Y-42545000D03*
X210502500Y-45085000D03*
D11*
X214312500Y-47625000D03*
D12*
X209232500Y-47625000D03*
X219392500Y-47625000D03*
D10*
X212090000Y-23495000D03*
X205740000Y-26035000D03*
D12*
X204470000Y-28575000D03*
D11*
X209550000Y-28575000D03*
D12*
X214630000Y-28575000D03*
D10*
X140652500Y-42545000D03*
X134302500Y-45085000D03*
D12*
X143192500Y-47625000D03*
X133032500Y-47625000D03*
D11*
X138112500Y-47625000D03*
D10*
X112077500Y-61595000D03*
X105727500Y-64135000D03*
D11*
X109537500Y-66675000D03*
D12*
X114617500Y-66675000D03*
X104457500Y-66675000D03*
D10*
X250190000Y-80645000D03*
X243840000Y-83185000D03*
D12*
X242570000Y-85725000D03*
X252730000Y-85725000D03*
D11*
X247650000Y-85725000D03*
D10*
X73977500Y-61595000D03*
X67627500Y-64135000D03*
D12*
X66357500Y-66675000D03*
D11*
X71437500Y-66675000D03*
D12*
X76517500Y-66675000D03*
D10*
X274002728Y-80645072D03*
X267652728Y-83185072D03*
D12*
X276542728Y-85725072D03*
D11*
X271462728Y-85725072D03*
D12*
X266382728Y-85725072D03*
D14*
X2381252Y-57125000D03*
X283368988Y-57125000D03*
D10*
X262096468Y-61595000D03*
X255746468Y-64135000D03*
D11*
X247618468Y-74930000D03*
X271494468Y-74930000D03*
D13*
X271494468Y-59690000D03*
D12*
X264636468Y-66675000D03*
X254476468Y-66675000D03*
D11*
X259556468Y-66675000D03*
D13*
X247618468Y-59690000D03*
D15*
X26625000Y-85725072D03*
X142875000Y-37750000D03*
X260430000Y-85725072D03*
X260425000Y-28227050D03*
X25600000Y-28575024D03*
X128587608Y-47425040D03*
X190500160Y-85525000D03*
D11*
X85693250Y-77470000D03*
D13*
X85693250Y-92710000D03*
X200056750Y-92710000D03*
D11*
X200056750Y-77470000D03*
D10*
X145415000Y-80645000D03*
X139065000Y-83185000D03*
D12*
X147955000Y-85725000D03*
D11*
X142875000Y-85725000D03*
D12*
X137795000Y-85725000D03*
D13*
X280828980Y-50038000D03*
D11*
X265588980Y-50038000D03*
X265588980Y-26162000D03*
D12*
X278923980Y-38100000D03*
D13*
X280828980Y-26162000D03*
D11*
X273843980Y-38100000D03*
D12*
X268763980Y-38100000D03*
D10*
X270033980Y-35560000D03*
X276383980Y-33020000D03*
D16*
X4524382Y-36909406D03*
D17*
X15678000Y-5630000D03*
X21458000Y-5630000D03*
D18*
X22888000Y-6160000D03*
X14248000Y-6160000D03*
D19*
X22888000Y-1980000D03*
X14248000Y-1980000D03*
D20*
X9604382Y-34369406D03*
D21*
X7064382Y-34369406D03*
X9604382Y-36909406D03*
X7064382Y-36909406D03*
X9604382Y-39449406D03*
X7064382Y-39449406D03*
G36*
X23440919Y-6450850D02*
G01*
X23460596Y-6517865D01*
X23512939Y-6563220D01*
X23581492Y-6573077D01*
X23644565Y-6544272D01*
X23666258Y-6515531D01*
X23668099Y-6514751D01*
X23669696Y-6515956D01*
X23669624Y-6517667D01*
X23663744Y-6528844D01*
X23599056Y-6737171D01*
X23573417Y-6953795D01*
X23581368Y-7075106D01*
X23580483Y-7076900D01*
X23578487Y-7077031D01*
X23577380Y-7075411D01*
X23576195Y-7061871D01*
X23550856Y-6997089D01*
X23494761Y-6956470D01*
X23425609Y-6952627D01*
X23365167Y-6986886D01*
X23352960Y-7001644D01*
X23343464Y-7015156D01*
X23341650Y-7015998D01*
X23340014Y-7014848D01*
X23340128Y-7012952D01*
X23389519Y-6933291D01*
X23431109Y-6790136D01*
X23437000Y-6709922D01*
X23437000Y-6451413D01*
X23438000Y-6449681D01*
X23440000Y-6449681D01*
X23440919Y-6450850D01*
G37*
M02*
